<svg width="178" height="58" viewBox="0 0 178 58" fill="none" xmlns="http://www.w3.org/2000/svg">
<path d="M15.3622 12.8636C15.3622 14.5291 15.0465 15.946 14.4151 17.1143C13.7887 18.2827 12.9336 19.1751 11.8498 19.7915C10.771 20.4031 9.55788 20.7088 8.21058 20.7088C6.85334 20.7088 5.6353 20.4006 4.55646 19.7841C3.47763 19.1676 2.625 18.2752 1.99858 17.1069C1.37216 15.9386 1.05895 14.5241 1.05895 12.8636C1.05895 11.1982 1.37216 9.78125 1.99858 8.61293C2.625 7.4446 3.47763 6.55469 4.55646 5.94318C5.6353 5.3267 6.85334 5.01847 8.21058 5.01847C9.55788 5.01847 10.771 5.3267 11.8498 5.94318C12.9336 6.55469 13.7887 7.4446 14.4151 8.61293C15.0465 9.78125 15.3622 11.1982 15.3622 12.8636ZM12.0884 12.8636C12.0884 11.7848 11.9268 10.875 11.6037 10.1342C11.2855 9.39347 10.8356 8.83168 10.2539 8.44886C9.67223 8.06605 8.99112 7.87465 8.21058 7.87465C7.43004 7.87465 6.74893 8.06605 6.16726 8.44886C5.58558 8.83168 5.13317 9.39347 4.81001 10.1342C4.49183 10.875 4.33274 11.7848 4.33274 12.8636C4.33274 13.9425 4.49183 14.8523 4.81001 15.593C5.13317 16.3338 5.58558 16.8956 6.16726 17.2784C6.74893 17.6612 7.43004 17.8526 8.21058 17.8526C8.99112 17.8526 9.67223 17.6612 10.2539 17.2784C10.8356 16.8956 11.2855 16.3338 11.6037 15.593C11.9268 14.8523 12.0884 13.9425 12.0884 12.8636ZM22.8699 20.7237C21.6966 20.7237 20.6874 20.4751 19.8422 19.978C19.002 19.4759 18.3557 18.7798 17.9033 17.8899C17.4559 17 17.2322 15.9759 17.2322 14.8175C17.2322 13.6442 17.4584 12.6151 17.9108 11.7301C18.3682 10.8402 19.017 10.1467 19.8572 9.6495C20.6974 9.14737 21.6966 8.89631 22.855 8.89631C23.8543 8.89631 24.7293 9.07777 25.48 9.4407C26.2307 9.80362 26.8248 10.3132 27.2623 10.9695C27.6998 11.6257 27.941 12.3963 27.9857 13.2812H24.9878C24.9033 12.7095 24.6796 12.2496 24.3167 11.9016C23.9587 11.5487 23.4889 11.3722 22.9072 11.3722C22.415 11.3722 21.985 11.5064 21.6171 11.7749C21.2542 12.0384 20.9708 12.4237 20.767 12.9308C20.5631 13.4379 20.4612 14.0518 20.4612 14.7727C20.4612 15.5036 20.5606 16.125 20.7595 16.6371C20.9633 17.1491 21.2492 17.5394 21.6171 17.8079C21.985 18.0763 22.415 18.2106 22.9072 18.2106C23.2702 18.2106 23.5958 18.136 23.8841 17.9869C24.1775 17.8377 24.4186 17.6214 24.6075 17.3381C24.8014 17.0497 24.9282 16.7042 24.9878 16.3015H27.9857C27.936 17.1765 27.6974 17.9471 27.2698 18.6133C26.8472 19.2745 26.2631 19.7915 25.5173 20.1644C24.7716 20.5373 23.8891 20.7237 22.8699 20.7237ZM36.1124 9.04545V11.4318H29.2143V9.04545H36.1124ZM30.7804 6.30114H33.9572V16.9801C33.9572 17.2734 34.002 17.5021 34.0914 17.6662C34.1809 17.8253 34.3052 17.9371 34.4643 18.0018C34.6284 18.0664 34.8173 18.0987 35.0311 18.0987C35.1802 18.0987 35.3294 18.0863 35.4785 18.0614C35.6277 18.0316 35.742 18.0092 35.8216 17.9943L36.3212 20.3583C36.1621 20.408 35.9384 20.4652 35.65 20.5298C35.3617 20.5994 35.0112 20.6417 34.5985 20.6566C33.8329 20.6864 33.1618 20.5845 32.585 20.3509C32.0133 20.1172 31.5684 19.7543 31.2502 19.2621C30.932 18.7699 30.7754 18.1484 30.7804 17.3977V6.30114ZM43.2342 20.7237C42.0758 20.7237 41.074 20.4776 40.2289 19.9854C39.3887 19.4883 38.7399 18.7972 38.2825 17.9123C37.8251 17.0224 37.5964 15.9908 37.5964 14.8175C37.5964 13.6342 37.8251 12.6001 38.2825 11.7152C38.7399 10.8253 39.3887 10.1342 40.2289 9.64204C41.074 9.14489 42.0758 8.89631 43.2342 8.89631C44.3926 8.89631 45.3919 9.14489 46.2321 9.64204C47.0772 10.1342 47.7285 10.8253 48.1859 11.7152C48.6433 12.6001 48.872 13.6342 48.872 14.8175C48.872 15.9908 48.6433 17.0224 48.1859 17.9123C47.7285 18.7972 47.0772 19.4883 46.2321 19.9854C45.3919 20.4776 44.3926 20.7237 43.2342 20.7237ZM43.2491 18.2628C43.7761 18.2628 44.2161 18.1136 44.5691 17.8153C44.9221 17.5121 45.188 17.0994 45.367 16.5774C45.551 16.0554 45.6429 15.4613 45.6429 14.7951C45.6429 14.1289 45.551 13.5348 45.367 13.0128C45.188 12.4908 44.9221 12.0781 44.5691 11.7749C44.2161 11.4716 43.7761 11.32 43.2491 11.32C42.7172 11.32 42.2697 11.4716 41.9068 11.7749C41.5488 12.0781 41.2779 12.4908 41.0939 13.0128C40.915 13.5348 40.8255 14.1289 40.8255 14.7951C40.8255 15.4613 40.915 16.0554 41.0939 16.5774C41.2779 17.0994 41.5488 17.5121 41.9068 17.8153C42.2697 18.1136 42.7172 18.2628 43.2491 18.2628ZM50.9973 20.5V5.22727H54.1742V10.9695H54.2711C54.4103 10.6612 54.6117 10.348 54.8752 10.0298C55.1436 9.70668 55.4917 9.43821 55.9192 9.22443C56.3517 9.00568 56.8887 8.89631 57.53 8.89631C58.3652 8.89631 59.1358 9.11506 59.8418 9.55256C60.5478 9.98509 61.112 10.6388 61.5346 11.5138C61.9572 12.3839 62.1685 13.4751 62.1685 14.7876C62.1685 16.0653 61.9622 17.1442 61.5495 18.0241C61.1419 18.8991 60.5851 19.5629 59.8791 20.0153C59.1781 20.4627 58.3926 20.6864 57.5225 20.6864C56.9061 20.6864 56.3816 20.5845 55.949 20.3807C55.5215 20.1768 55.171 19.9208 54.8975 19.6126C54.6241 19.2994 54.4153 18.9837 54.2711 18.6655H54.1294V20.5H50.9973ZM54.1071 14.7727C54.1071 15.4538 54.2015 16.0479 54.3904 16.555C54.5794 17.0621 54.8528 17.4574 55.2108 17.7408C55.5687 18.0192 56.0037 18.1584 56.5158 18.1584C57.0328 18.1584 57.4703 18.0167 57.8283 17.7333C58.1863 17.445 58.4572 17.0472 58.6412 16.5401C58.8301 16.0281 58.9245 15.4389 58.9245 14.7727C58.9245 14.1115 58.8326 13.5298 58.6486 13.0277C58.4647 12.5256 58.1937 12.1328 57.8358 11.8494C57.4778 11.5661 57.0378 11.4244 56.5158 11.4244C55.9988 11.4244 55.5613 11.5611 55.2033 11.8345C54.8503 12.108 54.5794 12.4957 54.3904 12.9979C54.2015 13.5 54.1071 14.0916 54.1071 14.7727ZM69.5084 20.7237C68.3302 20.7237 67.316 20.4851 66.4658 20.0078C65.6206 19.5256 64.9694 18.8445 64.512 17.9645C64.0546 17.0795 63.8259 16.033 63.8259 14.8249C63.8259 13.6467 64.0546 12.6126 64.512 11.7227C64.9694 10.8327 65.6132 10.1392 66.4434 9.64204C67.2787 9.14489 68.2581 8.89631 69.3817 8.89631C70.1373 8.89631 70.8408 9.01811 71.4921 9.26172C72.1483 9.50035 72.7201 9.8608 73.2073 10.343C73.6995 10.8253 74.0823 11.4318 74.3557 12.1626C74.6292 12.8885 74.7659 13.7386 74.7659 14.7131V15.5856H65.0937V13.6168H71.7755C71.7755 13.1594 71.676 12.7543 71.4772 12.4013C71.2783 12.0483 71.0024 11.7724 70.6494 11.5735C70.3014 11.3697 69.8962 11.2678 69.4339 11.2678C68.9516 11.2678 68.5241 11.3796 68.1512 11.6033C67.7833 11.8221 67.4949 12.1179 67.2861 12.4908C67.0773 12.8587 66.9704 13.2688 66.9655 13.7212V15.593C66.9655 16.1598 67.0699 16.6495 67.2787 17.0621C67.4925 17.4748 67.7932 17.793 68.181 18.0167C68.5688 18.2404 69.0287 18.3523 69.5606 18.3523C69.9136 18.3523 70.2368 18.3026 70.5301 18.2031C70.8234 18.1037 71.0745 17.9545 71.2833 17.7557C71.4921 17.5568 71.6512 17.3132 71.7606 17.0249L74.6988 17.2188C74.5496 17.9247 74.2439 18.5412 73.7815 19.0682C73.3241 19.5902 72.7325 19.9979 72.0067 20.2912C71.2858 20.5795 70.453 20.7237 69.5084 20.7237ZM76.839 20.5V9.04545H79.9189V11.044H80.0383C80.2471 10.3331 80.5976 9.79616 81.0898 9.43324C81.5819 9.06534 82.1487 8.88139 82.79 8.88139C82.9491 8.88139 83.1207 8.89133 83.3046 8.91122C83.4885 8.93111 83.6501 8.95845 83.7893 8.99325V11.8121C83.6402 11.7674 83.4339 11.7276 83.1704 11.6928C82.9069 11.658 82.6657 11.6406 82.447 11.6406C81.9797 11.6406 81.5621 11.7425 81.1942 11.9464C80.8312 12.1452 80.5429 12.4237 80.3291 12.7816C80.1203 13.1396 80.0159 13.5522 80.0159 14.0195V20.5H76.839ZM96.9069 5.22727V20.5H93.6778V8.29226H93.5883L90.0908 10.4847V7.62109L93.8717 5.22727H96.9069ZM106.398 20.7088C105.613 20.7038 104.855 20.5721 104.124 20.3136C103.398 20.055 102.747 19.6349 102.17 19.0533C101.593 18.4716 101.136 17.701 100.798 16.7415C100.465 15.782 100.298 14.6037 100.298 13.2067C100.303 11.924 100.45 10.7781 100.738 9.76882C101.031 8.75462 101.449 7.89453 101.991 7.18856C102.538 6.4826 103.192 5.94567 103.952 5.57777C104.713 5.2049 105.566 5.01847 106.51 5.01847C107.529 5.01847 108.429 5.21733 109.21 5.61506C109.99 6.00781 110.617 6.54226 111.089 7.2184C111.566 7.89453 111.855 8.6527 111.954 9.4929H108.77C108.645 8.96094 108.384 8.54332 107.987 8.24006C107.589 7.93679 107.097 7.78516 106.51 7.78516C105.516 7.78516 104.76 8.21768 104.243 9.08274C103.731 9.9478 103.47 11.1236 103.46 12.6101H103.564C103.793 12.1577 104.101 11.7724 104.489 11.4542C104.882 11.131 105.327 10.8849 105.824 10.7159C106.326 10.5419 106.856 10.4549 107.412 10.4549C108.317 10.4549 109.123 10.6687 109.829 11.0962C110.535 11.5188 111.091 12.1005 111.499 12.8413C111.907 13.582 112.111 14.4297 112.111 15.3842C112.111 16.4183 111.869 17.3381 111.387 18.1435C110.91 18.9489 110.241 19.5803 109.381 20.0376C108.526 20.4901 107.532 20.7138 106.398 20.7088ZM106.383 18.1733C106.881 18.1733 107.325 18.054 107.718 17.8153C108.111 17.5767 108.419 17.2536 108.643 16.8459C108.867 16.4382 108.979 15.9808 108.979 15.4737C108.979 14.9666 108.867 14.5117 108.643 14.109C108.424 13.7063 108.121 13.3857 107.733 13.147C107.345 12.9084 106.903 12.7891 106.406 12.7891C106.033 12.7891 105.687 12.8587 105.369 12.9979C105.056 13.1371 104.78 13.331 104.541 13.5795C104.308 13.8281 104.124 14.1165 103.99 14.4446C103.855 14.7678 103.788 15.1133 103.788 15.4812C103.788 15.9734 103.9 16.4233 104.124 16.831C104.352 17.2386 104.661 17.5643 105.048 17.8079C105.441 18.0515 105.886 18.1733 106.383 18.1733ZM117.247 18.4119L117.165 19.2322C117.1 19.8885 116.976 20.5423 116.792 21.1935C116.613 21.8498 116.424 22.4439 116.225 22.9759C116.031 23.5078 115.875 23.9254 115.755 24.2287H113.697C113.772 23.9354 113.874 23.5252 114.003 22.9982C114.132 22.4762 114.254 21.8896 114.368 21.2383C114.483 20.587 114.555 19.9233 114.585 19.2472L114.622 18.4119H117.247ZM124.264 20.5V18.1733L129.701 13.1396C130.163 12.6921 130.551 12.2894 130.864 11.9315C131.182 11.5735 131.423 11.223 131.587 10.88C131.752 10.532 131.834 10.1566 131.834 9.75391C131.834 9.30646 131.732 8.92116 131.528 8.59801C131.324 8.26989 131.046 8.01882 130.693 7.84481C130.34 7.66584 129.939 7.57635 129.492 7.57635C129.025 7.57635 128.617 7.67081 128.269 7.85973C127.921 8.04865 127.652 8.3196 127.464 8.67258C127.275 9.02557 127.18 9.44567 127.18 9.93288H124.115C124.115 8.93359 124.341 8.06605 124.794 7.33026C125.246 6.59446 125.88 6.02521 126.695 5.62251C127.511 5.21981 128.45 5.01847 129.514 5.01847C130.608 5.01847 131.56 5.21236 132.37 5.60014C133.186 5.98295 133.82 6.51491 134.272 7.19602C134.725 7.87713 134.951 8.65767 134.951 9.53764C134.951 10.1143 134.836 10.6836 134.608 11.2454C134.384 11.8072 133.984 12.4311 133.407 13.1172C132.83 13.7983 132.017 14.6161 130.968 15.5707L128.739 17.7557V17.8601H135.152V20.5H124.264ZM143.48 20.8356C142.197 20.8306 141.094 20.5149 140.169 19.8885C139.249 19.2621 138.541 18.3548 138.044 17.1665C137.551 15.9783 137.308 14.549 137.313 12.8786C137.313 11.2131 137.559 9.79368 138.051 8.62038C138.548 7.44709 139.257 6.55469 140.176 5.94318C141.101 5.3267 142.202 5.01847 143.48 5.01847C144.758 5.01847 145.857 5.3267 146.776 5.94318C147.701 6.55966 148.412 7.45454 148.909 8.62784C149.406 9.79616 149.652 11.2131 149.647 12.8786C149.647 14.554 149.399 15.9858 148.902 17.174C148.409 18.3622 147.703 19.2695 146.784 19.896C145.864 20.5224 144.763 20.8356 143.48 20.8356ZM143.48 18.1584C144.355 18.1584 145.054 17.7184 145.576 16.8384C146.098 15.9585 146.356 14.6385 146.351 12.8786C146.351 11.7202 146.232 10.7557 145.993 9.98508C145.76 9.21449 145.426 8.6353 144.994 8.24751C144.566 7.85973 144.062 7.66584 143.48 7.66584C142.61 7.66584 141.914 8.10085 141.392 8.97088C140.87 9.84091 140.607 11.1435 140.602 12.8786C140.602 14.0518 140.718 15.0312 140.952 15.8168C141.191 16.5973 141.526 17.1839 141.959 17.5767C142.391 17.9645 142.898 18.1584 143.48 18.1584ZM151.95 20.5V18.1733L157.386 13.1396C157.849 12.6921 158.236 12.2894 158.55 11.9315C158.868 11.5735 159.109 11.223 159.273 10.88C159.437 10.532 159.519 10.1566 159.519 9.75391C159.519 9.30646 159.417 8.92116 159.213 8.59801C159.009 8.26989 158.731 8.01882 158.378 7.84481C158.025 7.66584 157.625 7.57635 157.177 7.57635C156.71 7.57635 156.302 7.67081 155.954 7.85973C155.606 8.04865 155.338 8.3196 155.149 8.67258C154.96 9.02557 154.866 9.44567 154.866 9.93288H151.801C151.801 8.93359 152.027 8.06605 152.479 7.33026C152.932 6.59446 153.566 6.02521 154.381 5.62251C155.196 5.21981 156.136 5.01847 157.2 5.01847C158.294 5.01847 159.246 5.21236 160.056 5.60014C160.871 5.98295 161.505 6.51491 161.958 7.19602C162.41 7.87713 162.636 8.65767 162.636 9.53764C162.636 10.1143 162.522 10.6836 162.293 11.2454C162.07 11.8072 161.669 12.4311 161.093 13.1172C160.516 13.7983 159.703 14.6161 158.654 15.5707L156.424 17.7557V17.8601H162.838V20.5H151.95ZM165.177 20.5V18.1733L170.614 13.1396C171.076 12.6921 171.464 12.2894 171.777 11.9315C172.095 11.5735 172.336 11.223 172.501 10.88C172.665 10.532 172.747 10.1566 172.747 9.75391C172.747 9.30646 172.645 8.92116 172.441 8.59801C172.237 8.26989 171.959 8.01882 171.606 7.84481C171.253 7.66584 170.852 7.57635 170.405 7.57635C169.938 7.57635 169.53 7.67081 169.182 7.85973C168.834 8.04865 168.566 8.3196 168.377 8.67258C168.188 9.02557 168.093 9.44567 168.093 9.93288H165.028C165.028 8.93359 165.254 8.06605 165.707 7.33026C166.159 6.59446 166.793 6.02521 167.608 5.62251C168.424 5.21981 169.363 5.01847 170.427 5.01847C171.521 5.01847 172.473 5.21236 173.284 5.60014C174.099 5.98295 174.733 6.51491 175.185 7.19602C175.638 7.87713 175.864 8.65767 175.864 9.53764C175.864 10.1143 175.749 10.6836 175.521 11.2454C175.297 11.8072 174.897 12.4311 174.32 13.1172C173.743 13.7983 172.931 14.6161 171.882 15.5707L169.652 17.7557V17.8601H176.065V20.5H165.177Z" fill="#2A3647"/>
<path d="M9.04545 41.8636H10.4545V49.5682C10.4545 50.3636 10.267 51.0739 9.89205 51.6989C9.52083 52.3201 8.99621 52.8106 8.31818 53.1705C7.64015 53.5265 6.8447 53.7045 5.93182 53.7045C5.01894 53.7045 4.22348 53.5265 3.54545 53.1705C2.86742 52.8106 2.34091 52.3201 1.96591 51.6989C1.5947 51.0739 1.40909 50.3636 1.40909 49.5682V41.8636H2.81818V49.4545C2.81818 50.0227 2.94318 50.5284 3.19318 50.9716C3.44318 51.411 3.79924 51.7576 4.26136 52.0114C4.72727 52.2614 5.28409 52.3864 5.93182 52.3864C6.57955 52.3864 7.13636 52.2614 7.60227 52.0114C8.06818 51.7576 8.42424 51.411 8.67045 50.9716C8.92045 50.5284 9.04545 50.0227 9.04545 49.4545V41.8636ZM13.0866 56.7727V44.7727H14.3821V46.1591H14.5412C14.6397 46.0076 14.776 45.8144 14.9503 45.5795C15.1283 45.3409 15.3821 45.1288 15.7116 44.9432C16.045 44.7538 16.4957 44.6591 17.0639 44.6591C17.7988 44.6591 18.4465 44.8428 19.0071 45.2102C19.5677 45.5777 20.0052 46.0985 20.3196 46.7727C20.634 47.447 20.7912 48.2424 20.7912 49.1591C20.7912 50.0833 20.634 50.8845 20.3196 51.5625C20.0052 52.2367 19.5696 52.7595 19.0128 53.1307C18.456 53.4981 17.8139 53.6818 17.0866 53.6818C16.526 53.6818 16.0772 53.589 15.7401 53.4034C15.4029 53.214 15.1435 53 14.9616 52.7614C14.7798 52.5189 14.6397 52.3182 14.5412 52.1591H14.4276V56.7727H13.0866ZM14.4048 49.1364C14.4048 49.7955 14.5014 50.3769 14.6946 50.8807C14.8878 51.3807 15.17 51.7727 15.5412 52.0568C15.9124 52.3371 16.367 52.4773 16.9048 52.4773C17.4654 52.4773 17.9332 52.3295 18.3082 52.0341C18.687 51.7348 18.9711 51.3333 19.1605 50.8295C19.3537 50.322 19.4503 49.7576 19.4503 49.1364C19.4503 48.5227 19.3556 47.9697 19.1662 47.4773C18.9806 46.9811 18.6984 46.589 18.3196 46.3011C17.9446 46.0095 17.473 45.8636 16.9048 45.8636C16.3594 45.8636 15.901 46.0019 15.5298 46.2784C15.1586 46.5511 14.8783 46.9337 14.6889 47.4261C14.4995 47.9148 14.4048 48.4848 14.4048 49.1364ZM26.3821 53.6818C25.5639 53.6818 24.8594 53.4886 24.2685 53.1023C23.6776 52.7159 23.223 52.1837 22.9048 51.5057C22.5866 50.8277 22.4276 50.053 22.4276 49.1818C22.4276 48.2955 22.5904 47.5133 22.9162 46.8352C23.2457 46.1534 23.7041 45.6212 24.2912 45.2386C24.8821 44.8523 25.5715 44.6591 26.3594 44.6591C26.973 44.6591 27.526 44.7727 28.0185 45C28.5109 45.2273 28.9143 45.5455 29.2287 45.9545C29.5431 46.3636 29.7382 46.8409 29.8139 47.3864H28.473C28.3707 46.9886 28.1435 46.6364 27.7912 46.3295C27.4427 46.0189 26.973 45.8636 26.3821 45.8636C25.8594 45.8636 25.401 46 25.0071 46.2727C24.617 46.5417 24.312 46.9223 24.0923 47.4148C23.8764 47.9034 23.7685 48.4773 23.7685 49.1364C23.7685 49.8106 23.8745 50.3977 24.0866 50.8977C24.3026 51.3977 24.6056 51.786 24.9957 52.0625C25.3897 52.339 25.8518 52.4773 26.3821 52.4773C26.7306 52.4773 27.0469 52.4167 27.331 52.2955C27.6151 52.1742 27.8556 52 28.0526 51.7727C28.2495 51.5455 28.3897 51.2727 28.473 50.9545H29.8139C29.7382 51.4697 29.5507 51.9337 29.2514 52.3466C28.956 52.7557 28.5639 53.0814 28.0753 53.3239C27.5904 53.5625 27.026 53.6818 26.3821 53.6818ZM35.3196 53.6818C34.5317 53.6818 33.8404 53.4943 33.2457 53.1193C32.6548 52.7443 32.1927 52.2197 31.8594 51.5455C31.5298 50.8712 31.3651 50.0833 31.3651 49.1818C31.3651 48.2727 31.5298 47.4792 31.8594 46.8011C32.1927 46.1231 32.6548 45.5966 33.2457 45.2216C33.8404 44.8466 34.5317 44.6591 35.3196 44.6591C36.1075 44.6591 36.7969 44.8466 37.3878 45.2216C37.9825 45.5966 38.4446 46.1231 38.7741 46.8011C39.1075 47.4792 39.2741 48.2727 39.2741 49.1818C39.2741 50.0833 39.1075 50.8712 38.7741 51.5455C38.4446 52.2197 37.9825 52.7443 37.3878 53.1193C36.7969 53.4943 36.1075 53.6818 35.3196 53.6818ZM35.3196 52.4773C35.9181 52.4773 36.4105 52.3239 36.7969 52.017C37.1832 51.7102 37.4692 51.3068 37.6548 50.8068C37.8404 50.3068 37.9332 49.7652 37.9332 49.1818C37.9332 48.5985 37.8404 48.0549 37.6548 47.5511C37.4692 47.0473 37.1832 46.6402 36.7969 46.3295C36.4105 46.0189 35.9181 45.8636 35.3196 45.8636C34.7211 45.8636 34.2287 46.0189 33.8423 46.3295C33.456 46.6402 33.17 47.0473 32.9844 47.5511C32.7988 48.0549 32.706 48.5985 32.706 49.1818C32.706 49.7652 32.7988 50.3068 32.9844 50.8068C33.17 51.3068 33.456 51.7102 33.8423 52.017C34.2287 52.3239 34.7211 52.4773 35.3196 52.4773ZM41.321 53.5V44.7727H42.6165V46.1364H42.7301C42.9119 45.6705 43.2055 45.3087 43.6108 45.0511C44.0161 44.7898 44.5028 44.6591 45.071 44.6591C45.6468 44.6591 46.1259 44.7898 46.5085 45.0511C46.8949 45.3087 47.196 45.6705 47.4119 46.1364H47.5028C47.7263 45.6856 48.0616 45.3277 48.5085 45.0625C48.9555 44.7936 49.4915 44.6591 50.1165 44.6591C50.8968 44.6591 51.535 44.9034 52.0312 45.392C52.5275 45.8769 52.7756 46.6326 52.7756 47.6591V53.5H51.4347V47.6591C51.4347 47.0152 51.2585 46.5549 50.9062 46.2784C50.554 46.0019 50.1392 45.8636 49.6619 45.8636C49.0483 45.8636 48.5729 46.0492 48.2358 46.4205C47.8987 46.7879 47.7301 47.2538 47.7301 47.8182V53.5H46.3665V47.5227C46.3665 47.0265 46.2055 46.6269 45.8835 46.3239C45.5616 46.017 45.1468 45.8636 44.6392 45.8636C44.2907 45.8636 43.965 45.9564 43.6619 46.142C43.3627 46.3277 43.1203 46.5852 42.9347 46.9148C42.7528 47.2405 42.6619 47.6174 42.6619 48.0455V53.5H41.321ZM55.2273 53.5V44.7727H56.5682V53.5H55.2273ZM55.9091 43.3182C55.6477 43.3182 55.4223 43.2292 55.233 43.0511C55.0473 42.8731 54.9545 42.6591 54.9545 42.4091C54.9545 42.1591 55.0473 41.9451 55.233 41.767C55.4223 41.589 55.6477 41.5 55.9091 41.5C56.1705 41.5 56.3939 41.589 56.5795 41.767C56.7689 41.9451 56.8636 42.1591 56.8636 42.4091C56.8636 42.6591 56.7689 42.8731 56.5795 43.0511C56.3939 43.2292 56.1705 43.3182 55.9091 43.3182ZM60.3651 48.25V53.5H59.0241V44.7727H60.3196V46.1364H60.4332C60.6378 45.6932 60.9484 45.3371 61.3651 45.0682C61.7817 44.7955 62.3196 44.6591 62.9787 44.6591C63.5696 44.6591 64.0866 44.7803 64.5298 45.0227C64.973 45.2614 65.3177 45.625 65.5639 46.1136C65.8101 46.5985 65.9332 47.2121 65.9332 47.9545V53.5H64.5923V48.0455C64.5923 47.3598 64.4143 46.8258 64.0582 46.4432C63.7022 46.0568 63.2135 45.8636 62.5923 45.8636C62.1643 45.8636 61.7817 45.9564 61.4446 46.142C61.1113 46.3277 60.848 46.5985 60.6548 46.9545C60.4616 47.3106 60.3651 47.7424 60.3651 48.25ZM71.9062 56.9545C71.2585 56.9545 70.7017 56.8712 70.2358 56.7045C69.7699 56.5417 69.3816 56.3258 69.071 56.0568C68.7642 55.7917 68.5199 55.5076 68.3381 55.2045L69.4062 54.4545C69.5275 54.6136 69.6809 54.7955 69.8665 55C70.0521 55.2083 70.3059 55.3883 70.6278 55.5398C70.9536 55.6951 71.3797 55.7727 71.9062 55.7727C72.6108 55.7727 73.1922 55.6023 73.6506 55.2614C74.1089 54.9205 74.3381 54.3864 74.3381 53.6591V51.8864H74.2244C74.1259 52.0455 73.9858 52.2424 73.804 52.4773C73.6259 52.7083 73.3684 52.9148 73.0312 53.0966C72.6979 53.2746 72.2472 53.3636 71.679 53.3636C70.9744 53.3636 70.3419 53.197 69.7812 52.8636C69.2244 52.5303 68.7831 52.0455 68.4574 51.4091C68.1354 50.7727 67.9744 50 67.9744 49.0909C67.9744 48.197 68.1316 47.4186 68.446 46.7557C68.7604 46.089 69.1979 45.5739 69.7585 45.2102C70.3191 44.8428 70.9669 44.6591 71.7017 44.6591C72.2699 44.6591 72.7206 44.7538 73.054 44.9432C73.3911 45.1288 73.6487 45.3409 73.8267 45.5795C74.0085 45.8144 74.1487 46.0076 74.2472 46.1591H74.3835V44.7727H75.679V53.75C75.679 54.5 75.5085 55.1098 75.1676 55.5795C74.8305 56.053 74.3759 56.3996 73.804 56.6193C73.2358 56.8428 72.6032 56.9545 71.9062 56.9545ZM71.8608 52.1591C72.3987 52.1591 72.8532 52.036 73.2244 51.7898C73.5956 51.5436 73.8778 51.1894 74.071 50.7273C74.2642 50.2652 74.3608 49.7121 74.3608 49.0682C74.3608 48.4394 74.2661 47.8845 74.0767 47.4034C73.8873 46.9223 73.607 46.5455 73.2358 46.2727C72.8646 46 72.4063 45.8636 71.8608 45.8636C71.2926 45.8636 70.8191 46.0076 70.4403 46.2955C70.0653 46.5833 69.7831 46.9697 69.5938 47.4545C69.4081 47.9394 69.3153 48.4773 69.3153 49.0682C69.3153 49.6742 69.41 50.2102 69.5994 50.6761C69.7926 51.1383 70.0767 51.5019 70.4517 51.767C70.8305 52.0284 71.3002 52.1591 71.8608 52.1591ZM86.4062 53.5H82.8153V41.8636H86.5653C87.6941 41.8636 88.66 42.0966 89.4631 42.5625C90.2661 43.0246 90.8816 43.6894 91.3097 44.5568C91.7377 45.4205 91.9517 46.4545 91.9517 47.6591C91.9517 48.8712 91.7358 49.9148 91.304 50.7898C90.8722 51.661 90.2434 52.3314 89.4176 52.8011C88.5919 53.267 87.5881 53.5 86.4062 53.5ZM84.2244 52.25H86.3153C87.2775 52.25 88.0748 52.0644 88.7074 51.6932C89.34 51.322 89.8116 50.7936 90.1222 50.108C90.4328 49.4223 90.5881 48.6061 90.5881 47.6591C90.5881 46.7197 90.4347 45.911 90.1278 45.233C89.821 44.5511 89.3627 44.0284 88.7528 43.6648C88.143 43.2973 87.3835 43.1136 86.4744 43.1136H84.2244V52.25ZM97.7926 53.6818C96.9517 53.6818 96.2263 53.4962 95.6165 53.125C95.0104 52.75 94.5426 52.2273 94.2131 51.5568C93.8873 50.8826 93.7244 50.0985 93.7244 49.2045C93.7244 48.3106 93.8873 47.5227 94.2131 46.8409C94.5426 46.1553 95.0009 45.6212 95.5881 45.2386C96.179 44.8523 96.8684 44.6591 97.6562 44.6591C98.1108 44.6591 98.5597 44.7348 99.0028 44.8864C99.446 45.0379 99.8494 45.2841 100.213 45.625C100.577 45.9621 100.866 46.4091 101.082 46.9659C101.298 47.5227 101.406 48.2083 101.406 49.0227V49.5909H94.679V48.4318H100.043C100.043 47.9394 99.9441 47.5 99.7472 47.1136C99.554 46.7273 99.2775 46.4223 98.9176 46.1989C98.5616 45.9754 98.1411 45.8636 97.6562 45.8636C97.1222 45.8636 96.66 45.9962 96.2699 46.2614C95.8835 46.5227 95.5862 46.8636 95.3778 47.2841C95.1695 47.7045 95.0653 48.1553 95.0653 48.6364V49.4091C95.0653 50.0682 95.179 50.6269 95.4062 51.0852C95.6373 51.5398 95.9574 51.8864 96.3665 52.125C96.7756 52.3598 97.2509 52.4773 97.7926 52.4773C98.1449 52.4773 98.4631 52.428 98.7472 52.3295C99.035 52.2273 99.2831 52.0758 99.4915 51.875C99.6998 51.6705 99.8608 51.4167 99.9744 51.1136L101.27 51.4773C101.134 51.9167 100.904 52.303 100.582 52.6364C100.26 52.9659 99.8627 53.2235 99.3892 53.4091C98.9157 53.5909 98.3835 53.6818 97.7926 53.6818ZM106.014 53.7045C105.461 53.7045 104.959 53.6004 104.509 53.392C104.058 53.1799 103.7 52.875 103.435 52.4773C103.17 52.0758 103.037 51.5909 103.037 51.0227C103.037 50.5227 103.135 50.1174 103.332 49.8068C103.529 49.4924 103.793 49.2462 104.122 49.0682C104.452 48.8902 104.815 48.7576 105.213 48.6705C105.615 48.5795 106.018 48.5076 106.423 48.4545C106.954 48.3864 107.384 48.3352 107.713 48.3011C108.046 48.2633 108.289 48.2008 108.44 48.1136C108.596 48.0265 108.673 47.875 108.673 47.6591V47.6136C108.673 47.053 108.52 46.6174 108.213 46.3068C107.91 45.9962 107.45 45.8409 106.832 45.8409C106.192 45.8409 105.69 45.9811 105.327 46.2614C104.963 46.5417 104.707 46.8409 104.56 47.1591L103.287 46.7045C103.514 46.1742 103.817 45.7614 104.196 45.4659C104.579 45.1667 104.995 44.9583 105.446 44.8409C105.901 44.7197 106.348 44.6591 106.787 44.6591C107.067 44.6591 107.389 44.6932 107.753 44.7614C108.12 44.8258 108.474 44.9602 108.815 45.1648C109.16 45.3693 109.446 45.678 109.673 46.0909C109.901 46.5038 110.014 47.0568 110.014 47.75V53.5H108.673V52.3182H108.605C108.514 52.5076 108.363 52.7102 108.151 52.9261C107.938 53.142 107.656 53.3258 107.304 53.4773C106.952 53.6288 106.522 53.7045 106.014 53.7045ZM106.219 52.5C106.749 52.5 107.196 52.3958 107.56 52.1875C107.927 51.9792 108.204 51.7102 108.389 51.3807C108.579 51.0511 108.673 50.7045 108.673 50.3409V49.1136C108.616 49.1818 108.491 49.2443 108.298 49.3011C108.109 49.3542 107.889 49.4015 107.639 49.4432C107.393 49.4811 107.152 49.5152 106.918 49.5455C106.687 49.572 106.499 49.5947 106.355 49.6136C106.007 49.6591 105.681 49.733 105.378 49.8352C105.079 49.9337 104.836 50.0833 104.651 50.2841C104.469 50.4811 104.378 50.75 104.378 51.0909C104.378 51.5568 104.55 51.9091 104.895 52.1477C105.243 52.3826 105.685 52.5 106.219 52.5ZM115.757 53.6818C115.03 53.6818 114.388 53.4981 113.831 53.1307C113.274 52.7595 112.839 52.2367 112.524 51.5625C112.21 50.8845 112.053 50.0833 112.053 49.1591C112.053 48.2424 112.21 47.447 112.524 46.7727C112.839 46.0985 113.276 45.5777 113.837 45.2102C114.397 44.8428 115.045 44.6591 115.78 44.6591C116.348 44.6591 116.797 44.7538 117.126 44.9432C117.46 45.1288 117.714 45.3409 117.888 45.5795C118.066 45.8144 118.204 46.0076 118.303 46.1591H118.416V41.8636H119.757V53.5H118.462V52.1591H118.303C118.204 52.3182 118.064 52.5189 117.882 52.7614C117.7 53 117.441 53.214 117.104 53.4034C116.767 53.589 116.318 53.6818 115.757 53.6818ZM115.939 52.4773C116.477 52.4773 116.931 52.3371 117.303 52.0568C117.674 51.7727 117.956 51.3807 118.149 50.8807C118.342 50.3769 118.439 49.7955 118.439 49.1364C118.439 48.4848 118.344 47.9148 118.155 47.4261C117.965 46.9337 117.685 46.5511 117.314 46.2784C116.943 46.0019 116.484 45.8636 115.939 45.8636C115.371 45.8636 114.897 46.0095 114.518 46.3011C114.143 46.589 113.861 46.9811 113.672 47.4773C113.486 47.9697 113.393 48.5227 113.393 49.1364C113.393 49.7576 113.488 50.322 113.678 50.8295C113.871 51.3333 114.155 51.7348 114.53 52.0341C114.909 52.3295 115.378 52.4773 115.939 52.4773ZM123.74 41.8636V53.5H122.399V41.8636H123.74ZM126.196 53.5V44.7727H127.537V53.5H126.196ZM126.878 43.3182C126.616 43.3182 126.391 43.2292 126.202 43.0511C126.016 42.8731 125.923 42.6591 125.923 42.4091C125.923 42.1591 126.016 41.9451 126.202 41.767C126.391 41.589 126.616 41.5 126.878 41.5C127.139 41.5 127.363 41.589 127.548 41.767C127.738 41.9451 127.832 42.1591 127.832 42.4091C127.832 42.6591 127.738 42.8731 127.548 43.0511C127.363 43.2292 127.139 43.3182 126.878 43.3182ZM131.334 48.25V53.5H129.993V44.7727H131.288V46.1364H131.402C131.607 45.6932 131.917 45.3371 132.334 45.0682C132.75 44.7955 133.288 44.6591 133.947 44.6591C134.538 44.6591 135.055 44.7803 135.499 45.0227C135.942 45.2614 136.286 45.625 136.533 46.1136C136.779 46.5985 136.902 47.2121 136.902 47.9545V53.5H135.561V48.0455C135.561 47.3598 135.383 46.8258 135.027 46.4432C134.671 46.0568 134.182 45.8636 133.561 45.8636C133.133 45.8636 132.75 45.9564 132.413 46.142C132.08 46.3277 131.817 46.5985 131.624 46.9545C131.43 47.3106 131.334 47.7424 131.334 48.25ZM143.011 53.6818C142.17 53.6818 141.445 53.4962 140.835 53.125C140.229 52.75 139.761 52.2273 139.432 51.5568C139.106 50.8826 138.943 50.0985 138.943 49.2045C138.943 48.3106 139.106 47.5227 139.432 46.8409C139.761 46.1553 140.22 45.6212 140.807 45.2386C141.398 44.8523 142.087 44.6591 142.875 44.6591C143.33 44.6591 143.778 44.7348 144.222 44.8864C144.665 45.0379 145.068 45.2841 145.432 45.625C145.795 45.9621 146.085 46.4091 146.301 46.9659C146.517 47.5227 146.625 48.2083 146.625 49.0227V49.5909H139.898V48.4318H145.261C145.261 47.9394 145.163 47.5 144.966 47.1136C144.773 46.7273 144.496 46.4223 144.136 46.1989C143.78 45.9754 143.36 45.8636 142.875 45.8636C142.341 45.8636 141.879 45.9962 141.489 46.2614C141.102 46.5227 140.805 46.8636 140.597 47.2841C140.388 47.7045 140.284 48.1553 140.284 48.6364V49.4091C140.284 50.0682 140.398 50.6269 140.625 51.0852C140.856 51.5398 141.176 51.8864 141.585 52.125C141.994 52.3598 142.47 52.4773 143.011 52.4773C143.364 52.4773 143.682 52.428 143.966 52.3295C144.254 52.2273 144.502 52.0758 144.71 51.875C144.919 51.6705 145.08 51.4167 145.193 51.1136L146.489 51.4773C146.352 51.9167 146.123 52.303 145.801 52.6364C145.479 52.9659 145.081 53.2235 144.608 53.4091C144.134 53.5909 143.602 53.6818 143.011 53.6818Z" fill="#2A3647"/>
</svg>
