<svg width="1440" height="1024" viewBox="0 0 1440 1024" fill="none" xmlns="http://www.w3.org/2000/svg">
<rect width="1440" height="1024" fill="#F6F7F8"/>
<g filter="url(#filter0_d_423_2510)">
<rect x="421" y="197" width="598" height="630" rx="30" fill="white"/>
<path d="M636.019 272.395C635.846 270.648 635.102 269.29 633.788 268.323C632.474 267.355 630.691 266.871 628.438 266.871C626.907 266.871 625.614 267.088 624.56 267.521C623.506 267.94 622.697 268.525 622.134 269.276C621.585 270.027 621.311 270.879 621.311 271.832C621.282 272.626 621.448 273.319 621.809 273.912C622.185 274.504 622.697 275.016 623.347 275.45C623.997 275.868 624.748 276.237 625.6 276.554C626.452 276.858 627.362 277.118 628.329 277.334L632.315 278.287C634.25 278.721 636.027 279.298 637.644 280.02C639.261 280.742 640.662 281.63 641.846 282.685C643.031 283.739 643.948 284.981 644.598 286.411C645.262 287.84 645.601 289.479 645.616 291.328C645.601 294.043 644.908 296.397 643.536 298.39C642.179 300.368 640.215 301.906 637.644 303.004C635.088 304.087 632.005 304.628 628.394 304.628C624.813 304.628 621.694 304.079 619.036 302.982C616.394 301.884 614.329 300.26 612.841 298.108C611.368 295.942 610.596 293.263 610.523 290.071H619.6C619.701 291.559 620.127 292.801 620.878 293.797C621.643 294.779 622.661 295.523 623.932 296.028C625.217 296.519 626.669 296.765 628.286 296.765C629.875 296.765 631.254 296.534 632.424 296.072C633.608 295.61 634.525 294.967 635.175 294.144C635.824 293.321 636.149 292.375 636.149 291.306C636.149 290.31 635.853 289.472 635.261 288.793C634.684 288.115 633.832 287.537 632.705 287.06C631.593 286.584 630.228 286.151 628.611 285.761L623.78 284.548C620.04 283.638 617.087 282.215 614.921 280.28C612.754 278.345 611.679 275.738 611.693 272.46C611.679 269.774 612.393 267.427 613.838 265.42C615.296 263.413 617.296 261.846 619.838 260.719C622.38 259.593 625.268 259.03 628.503 259.03C631.795 259.03 634.669 259.593 637.124 260.719C639.594 261.846 641.514 263.413 642.886 265.42C644.258 267.427 644.966 269.752 645.009 272.395H636.019ZM651.751 304V270.727H660.979V304H651.751ZM656.387 266.438C655.015 266.438 653.838 265.983 652.856 265.074C651.889 264.149 651.405 263.045 651.405 261.759C651.405 260.488 651.889 259.398 652.856 258.488C653.838 257.564 655.015 257.102 656.387 257.102C657.759 257.102 658.929 257.564 659.896 258.488C660.878 259.398 661.369 260.488 661.369 261.759C661.369 263.045 660.878 264.149 659.896 265.074C658.929 265.983 657.759 266.438 656.387 266.438ZM683.362 317.17C680.372 317.17 677.809 316.759 675.672 315.936C673.549 315.127 671.859 314.022 670.603 312.621C669.346 311.221 668.53 309.647 668.155 307.899L676.69 306.751C676.95 307.415 677.361 308.036 677.924 308.614C678.488 309.192 679.231 309.654 680.156 310C681.094 310.361 682.235 310.542 683.578 310.542C685.586 310.542 687.239 310.051 688.539 309.069C689.853 308.101 690.51 306.477 690.51 304.195V298.108H690.12C689.716 299.032 689.109 299.906 688.3 300.729C687.492 301.552 686.452 302.224 685.181 302.744C683.91 303.263 682.394 303.523 680.632 303.523C678.134 303.523 675.859 302.946 673.809 301.79C671.772 300.621 670.148 298.837 668.935 296.44C667.736 294.028 667.137 290.981 667.137 287.299C667.137 283.529 667.751 280.381 668.978 277.854C670.206 275.327 671.837 273.435 673.874 272.179C675.924 270.922 678.17 270.294 680.61 270.294C682.473 270.294 684.033 270.612 685.289 271.247C686.546 271.868 687.557 272.648 688.322 273.587C689.102 274.511 689.701 275.421 690.12 276.316H690.467V270.727H699.63V304.325C699.63 307.155 698.936 309.524 697.55 311.43C696.164 313.336 694.243 314.766 691.788 315.719C689.347 316.687 686.539 317.17 683.362 317.17ZM683.557 296.592C685.044 296.592 686.3 296.223 687.326 295.487C688.365 294.736 689.16 293.667 689.708 292.281C690.272 290.88 690.553 289.205 690.553 287.255C690.553 285.306 690.279 283.616 689.73 282.186C689.181 280.742 688.387 279.623 687.347 278.829C686.308 278.035 685.044 277.637 683.557 277.637C682.04 277.637 680.762 278.049 679.722 278.872C678.683 279.681 677.896 280.807 677.361 282.251C676.827 283.696 676.56 285.364 676.56 287.255C676.56 289.176 676.827 290.837 677.361 292.238C677.91 293.624 678.697 294.7 679.722 295.465C680.762 296.216 682.04 296.592 683.557 296.592ZM716.201 284.764V304H706.973V270.727H715.768V276.598H716.158C716.894 274.663 718.129 273.132 719.862 272.005C721.595 270.864 723.696 270.294 726.166 270.294C728.476 270.294 730.491 270.799 732.209 271.81C733.928 272.821 735.264 274.265 736.217 276.143C737.17 278.006 737.646 280.23 737.646 282.815V304H728.418V284.461C728.433 282.425 727.913 280.836 726.859 279.695C725.804 278.54 724.353 277.962 722.505 277.962C721.263 277.962 720.165 278.23 719.212 278.764C718.273 279.298 717.537 280.078 717.003 281.103C716.483 282.114 716.215 283.335 716.201 284.764ZM780.375 289.833V270.727H789.602V304H780.743V297.956H780.396C779.645 299.906 778.396 301.473 776.649 302.657C774.916 303.841 772.8 304.433 770.302 304.433C768.078 304.433 766.121 303.928 764.431 302.917C762.742 301.906 761.42 300.469 760.467 298.606C759.529 296.743 759.052 294.512 759.038 291.913V270.727H768.265V290.266C768.28 292.23 768.807 293.783 769.847 294.924C770.887 296.065 772.28 296.635 774.028 296.635C775.14 296.635 776.179 296.382 777.147 295.877C778.114 295.357 778.894 294.592 779.486 293.581C780.093 292.57 780.389 291.321 780.375 289.833ZM796.984 316.477V270.727H806.082V276.316H806.493C806.898 275.421 807.483 274.511 808.248 273.587C809.028 272.648 810.039 271.868 811.281 271.247C812.537 270.612 814.097 270.294 815.96 270.294C818.386 270.294 820.624 270.929 822.675 272.2C824.726 273.457 826.365 275.356 827.592 277.897C828.82 280.425 829.433 283.594 829.433 287.407C829.433 291.118 828.834 294.252 827.635 296.808C826.451 299.35 824.834 301.278 822.783 302.592C820.747 303.892 818.465 304.542 815.938 304.542C814.147 304.542 812.624 304.246 811.367 303.653C810.125 303.061 809.107 302.318 808.313 301.422C807.519 300.512 806.912 299.595 806.493 298.671H806.212V316.477H796.984ZM806.017 287.364C806.017 289.342 806.291 291.068 806.84 292.541C807.389 294.014 808.183 295.162 809.223 295.985C810.263 296.794 811.526 297.198 813.014 297.198C814.516 297.198 815.786 296.787 816.826 295.963C817.866 295.126 818.653 293.971 819.187 292.498C819.736 291.01 820.01 289.299 820.01 287.364C820.01 285.443 819.743 283.753 819.209 282.295C818.675 280.836 817.888 279.695 816.848 278.872C815.808 278.049 814.53 277.637 813.014 277.637C811.512 277.637 810.241 278.035 809.201 278.829C808.176 279.623 807.389 280.75 806.84 282.208C806.291 283.667 806.017 285.385 806.017 287.364Z" fill="black"/>
<path d="M795 334H645" stroke="#29ABE2" stroke-width="3" stroke-linecap="round"/>
<rect x="509.5" y="366.5" width="421" height="47" rx="9.5" fill="white"/>
<rect x="509.5" y="366.5" width="421" height="47" rx="9.5" stroke="#D1D1D1"/>
<path d="M543.295 382.455V397H541.591L533.665 385.58H533.523V397H531.761V382.455H533.466L541.42 393.903H541.562V382.455H543.295ZM549.803 397.256C549.112 397.256 548.484 397.125 547.921 396.865C547.357 396.6 546.91 396.219 546.578 395.722C546.247 395.22 546.081 394.614 546.081 393.903C546.081 393.278 546.204 392.772 546.451 392.384C546.697 391.991 547.026 391.683 547.438 391.46C547.85 391.238 548.304 391.072 548.801 390.963C549.303 390.849 549.808 390.759 550.314 390.693C550.977 390.608 551.515 390.544 551.926 390.501C552.343 390.454 552.646 390.376 552.836 390.267C553.03 390.158 553.127 389.969 553.127 389.699V389.642C553.127 388.941 552.935 388.397 552.551 388.009C552.173 387.62 551.597 387.426 550.826 387.426C550.025 387.426 549.398 387.601 548.944 387.952C548.489 388.302 548.169 388.676 547.985 389.074L546.394 388.506C546.678 387.843 547.057 387.327 547.53 386.957C548.008 386.583 548.529 386.323 549.093 386.176C549.661 386.025 550.22 385.949 550.769 385.949C551.119 385.949 551.522 385.991 551.976 386.077C552.435 386.157 552.878 386.325 553.304 386.581C553.735 386.837 554.093 387.223 554.377 387.739C554.661 388.255 554.803 388.946 554.803 389.812V397H553.127V395.523H553.042C552.928 395.759 552.739 396.013 552.473 396.283C552.208 396.553 551.855 396.782 551.415 396.972C550.975 397.161 550.437 397.256 549.803 397.256ZM550.059 395.75C550.721 395.75 551.28 395.62 551.735 395.359C552.194 395.099 552.54 394.763 552.772 394.351C553.008 393.939 553.127 393.506 553.127 393.051V391.517C553.056 391.602 552.9 391.68 552.658 391.751C552.421 391.818 552.147 391.877 551.834 391.929C551.526 391.976 551.226 392.019 550.932 392.057C550.643 392.09 550.409 392.118 550.229 392.142C549.793 392.199 549.386 392.291 549.007 392.419C548.633 392.542 548.33 392.729 548.098 392.98C547.871 393.226 547.757 393.562 547.757 393.989C547.757 394.571 547.973 395.011 548.404 395.31C548.839 395.603 549.391 395.75 550.059 395.75ZM557.862 397V386.091H559.482V387.795H559.624C559.851 387.213 560.218 386.761 560.724 386.439C561.231 386.112 561.839 385.949 562.55 385.949C563.269 385.949 563.868 386.112 564.347 386.439C564.83 386.761 565.206 387.213 565.476 387.795H565.589C565.869 387.232 566.288 386.785 566.847 386.453C567.405 386.117 568.075 385.949 568.857 385.949C569.832 385.949 570.63 386.254 571.25 386.865C571.87 387.471 572.18 388.416 572.18 389.699V397H570.504V389.699C570.504 388.894 570.284 388.319 569.844 387.973C569.403 387.627 568.885 387.455 568.288 387.455C567.521 387.455 566.927 387.687 566.506 388.151C566.084 388.61 565.874 389.192 565.874 389.898V397H564.169V389.528C564.169 388.908 563.968 388.409 563.565 388.03C563.163 387.646 562.644 387.455 562.01 387.455C561.574 387.455 561.167 387.571 560.788 387.803C560.414 388.035 560.111 388.357 559.879 388.768C559.652 389.176 559.538 389.647 559.538 390.182V397H557.862ZM579.819 397.227C578.768 397.227 577.861 396.995 577.099 396.531C576.341 396.062 575.756 395.409 575.344 394.571C574.937 393.728 574.734 392.748 574.734 391.631C574.734 390.513 574.937 389.528 575.344 388.676C575.756 387.819 576.329 387.152 577.063 386.673C577.802 386.19 578.664 385.949 579.648 385.949C580.217 385.949 580.778 386.044 581.332 386.233C581.886 386.422 582.39 386.73 582.844 387.156C583.299 387.578 583.661 388.136 583.931 388.832C584.201 389.528 584.336 390.385 584.336 391.403V392.114H575.927V390.665H582.631C582.631 390.049 582.508 389.5 582.262 389.017C582.021 388.534 581.675 388.153 581.225 387.874C580.78 387.594 580.254 387.455 579.648 387.455C578.981 387.455 578.403 387.62 577.915 387.952C577.433 388.278 577.061 388.705 576.8 389.23C576.54 389.756 576.41 390.319 576.41 390.92V391.886C576.41 392.71 576.552 393.409 576.836 393.982C577.125 394.55 577.525 394.983 578.036 395.281C578.548 395.575 579.142 395.722 579.819 395.722C580.259 395.722 580.657 395.66 581.012 395.537C581.372 395.409 581.682 395.22 581.942 394.969C582.203 394.713 582.404 394.396 582.546 394.017L584.165 394.472C583.995 395.021 583.709 395.504 583.306 395.92C582.904 396.332 582.406 396.654 581.815 396.886C581.223 397.114 580.558 397.227 579.819 397.227Z" fill="#D1D1D1"/>
<mask id="mask0_423_2510" style="mask-type:alpha" maskUnits="userSpaceOnUse" x="886" y="378" width="24" height="24">
<rect x="886" y="378" width="24" height="24" fill="#D9D9D9"/>
</mask>
<g mask="url(#mask0_423_2510)">
<path d="M898 390C896.9 390 895.958 389.608 895.175 388.825C894.392 388.042 894 387.1 894 386C894 384.9 894.392 383.958 895.175 383.175C895.958 382.392 896.9 382 898 382C899.1 382 900.042 382.392 900.825 383.175C901.608 383.958 902 384.9 902 386C902 387.1 901.608 388.042 900.825 388.825C900.042 389.608 899.1 390 898 390ZM904 398H892C891.45 398 890.979 397.804 890.588 397.413C890.196 397.021 890 396.55 890 396V395.2C890 394.633 890.146 394.113 890.438 393.637C890.729 393.162 891.117 392.8 891.6 392.55C892.633 392.033 893.683 391.646 894.75 391.387C895.817 391.129 896.9 391 898 391C899.1 391 900.183 391.129 901.25 391.387C902.317 391.646 903.367 392.033 904.4 392.55C904.883 392.8 905.271 393.162 905.562 393.637C905.854 394.113 906 394.633 906 395.2V396C906 396.55 905.804 397.021 905.413 397.413C905.021 397.804 904.55 398 904 398ZM892 396H904V395.2C904 395.017 903.954 394.85 903.863 394.7C903.771 394.55 903.65 394.433 903.5 394.35C902.6 393.9 901.692 393.563 900.775 393.338C899.858 393.113 898.933 393 898 393C897.067 393 896.142 393.113 895.225 393.338C894.308 393.563 893.4 393.9 892.5 394.35C892.35 394.433 892.229 394.55 892.138 394.7C892.046 394.85 892 395.017 892 395.2V396ZM898 388C898.55 388 899.021 387.804 899.413 387.412C899.804 387.021 900 386.55 900 386C900 385.45 899.804 384.979 899.413 384.588C899.021 384.196 898.55 384 898 384C897.45 384 896.979 384.196 896.588 384.588C896.196 384.979 896 385.45 896 386C896 386.55 896.196 387.021 896.588 387.412C896.979 387.804 897.45 388 898 388Z" fill="#A8A8A8"/>
</g>
<rect x="509.5" y="438.5" width="421" height="47" rx="9.5" fill="white"/>
<rect x="509.5" y="438.5" width="421" height="47" rx="9.5" stroke="#D1D1D1"/>
<path d="M531.761 469V454.455H540.54V456.017H533.523V460.932H540.085V462.494H533.523V467.438H540.653V469H531.761ZM543.487 469V458.091H545.107V459.795H545.249C545.476 459.213 545.843 458.761 546.349 458.439C546.856 458.112 547.464 457.949 548.175 457.949C548.894 457.949 549.493 458.112 549.972 458.439C550.455 458.761 550.831 459.213 551.101 459.795H551.214C551.494 459.232 551.913 458.785 552.472 458.453C553.03 458.117 553.7 457.949 554.482 457.949C555.457 457.949 556.255 458.254 556.875 458.865C557.495 459.471 557.805 460.416 557.805 461.699V469H556.129V461.699C556.129 460.894 555.909 460.319 555.469 459.973C555.028 459.627 554.51 459.455 553.913 459.455C553.146 459.455 552.552 459.687 552.131 460.151C551.709 460.61 551.499 461.192 551.499 461.898V469H549.794V461.528C549.794 460.908 549.593 460.409 549.19 460.03C548.788 459.646 548.269 459.455 547.635 459.455C547.199 459.455 546.792 459.571 546.413 459.803C546.039 460.035 545.736 460.357 545.504 460.768C545.277 461.176 545.163 461.647 545.163 462.182V469H543.487ZM564.08 469.256C563.389 469.256 562.762 469.125 562.198 468.865C561.635 468.6 561.187 468.219 560.856 467.722C560.524 467.22 560.359 466.614 560.359 465.903C560.359 465.278 560.482 464.772 560.728 464.384C560.974 463.991 561.303 463.683 561.715 463.46C562.127 463.238 562.582 463.072 563.079 462.963C563.581 462.849 564.085 462.759 564.592 462.693C565.254 462.608 565.792 462.544 566.204 462.501C566.621 462.454 566.924 462.376 567.113 462.267C567.307 462.158 567.404 461.969 567.404 461.699V461.642C567.404 460.941 567.212 460.397 566.829 460.009C566.45 459.62 565.875 459.426 565.103 459.426C564.303 459.426 563.675 459.601 563.221 459.952C562.766 460.302 562.447 460.676 562.262 461.074L560.671 460.506C560.955 459.843 561.334 459.327 561.808 458.957C562.286 458.583 562.807 458.323 563.37 458.176C563.938 458.025 564.497 457.949 565.046 457.949C565.397 457.949 565.799 457.991 566.254 458.077C566.713 458.157 567.156 458.325 567.582 458.581C568.013 458.837 568.37 459.223 568.654 459.739C568.938 460.255 569.08 460.946 569.08 461.812V469H567.404V467.523H567.319C567.205 467.759 567.016 468.013 566.751 468.283C566.486 468.553 566.133 468.782 565.692 468.972C565.252 469.161 564.715 469.256 564.08 469.256ZM564.336 467.75C564.999 467.75 565.558 467.62 566.012 467.359C566.471 467.099 566.817 466.763 567.049 466.351C567.286 465.939 567.404 465.506 567.404 465.051V463.517C567.333 463.602 567.177 463.68 566.935 463.751C566.699 463.818 566.424 463.877 566.112 463.929C565.804 463.976 565.503 464.019 565.21 464.057C564.921 464.09 564.686 464.118 564.506 464.142C564.071 464.199 563.664 464.291 563.285 464.419C562.911 464.542 562.608 464.729 562.376 464.98C562.148 465.226 562.035 465.562 562.035 465.989C562.035 466.571 562.25 467.011 562.681 467.31C563.117 467.603 563.668 467.75 564.336 467.75ZM572.14 469V458.091H573.816V469H572.14ZM572.992 456.273C572.665 456.273 572.383 456.161 572.147 455.939C571.915 455.716 571.799 455.449 571.799 455.136C571.799 454.824 571.915 454.556 572.147 454.334C572.383 454.111 572.665 454 572.992 454C573.319 454 573.598 454.111 573.83 454.334C574.067 454.556 574.185 454.824 574.185 455.136C574.185 455.449 574.067 455.716 573.83 455.939C573.598 456.161 573.319 456.273 572.992 456.273ZM578.562 454.455V469H576.886V454.455H578.562Z" fill="#D1D1D1"/>
<mask id="mask1_423_2510" style="mask-type:alpha" maskUnits="userSpaceOnUse" x="886" y="450" width="24" height="24">
<rect x="886" y="450" width="24" height="24" fill="#D9D9D9"/>
</mask>
<g mask="url(#mask1_423_2510)">
<path d="M890 470C889.45 470 888.979 469.804 888.588 469.413C888.196 469.021 888 468.55 888 468V456C888 455.45 888.196 454.979 888.588 454.588C888.979 454.196 889.45 454 890 454H906C906.55 454 907.021 454.196 907.413 454.588C907.804 454.979 908 455.45 908 456V468C908 468.55 907.804 469.021 907.413 469.413C907.021 469.804 906.55 470 906 470H890ZM906 458L898.525 462.675C898.442 462.725 898.354 462.763 898.262 462.788C898.171 462.812 898.083 462.825 898 462.825C897.917 462.825 897.829 462.812 897.738 462.788C897.646 462.763 897.558 462.725 897.475 462.675L890 458V468H906V458ZM898 461L906 456H890L898 461ZM890 458.25V456.775V456.8V456.788V458.25Z" fill="#A8A8A8"/>
</g>
<rect x="509.5" y="510.5" width="421" height="47" rx="9.5" fill="white"/>
<rect x="509.5" y="510.5" width="421" height="47" rx="9.5" stroke="#D1D1D1"/>
<path d="M531.761 541V526.455H536.676C537.817 526.455 538.75 526.661 539.474 527.072C540.204 527.48 540.743 528.031 541.094 528.727C541.444 529.423 541.619 530.2 541.619 531.057C541.619 531.914 541.444 532.693 541.094 533.393C540.748 534.094 540.213 534.653 539.489 535.07C538.764 535.482 537.836 535.688 536.705 535.688H533.182V534.125H536.648C537.429 534.125 538.056 533.99 538.53 533.72C539.003 533.45 539.347 533.086 539.56 532.626C539.777 532.162 539.886 531.639 539.886 531.057C539.886 530.474 539.777 529.954 539.56 529.494C539.347 529.035 539.001 528.675 538.523 528.415C538.045 528.15 537.41 528.017 536.619 528.017H533.523V541H531.761ZM547.44 541.256C546.748 541.256 546.121 541.125 545.558 540.865C544.994 540.6 544.547 540.219 544.215 539.722C543.884 539.22 543.718 538.614 543.718 537.903C543.718 537.278 543.841 536.772 544.087 536.384C544.334 535.991 544.663 535.683 545.075 535.46C545.487 535.238 545.941 535.072 546.438 534.963C546.94 534.849 547.444 534.759 547.951 534.693C548.614 534.608 549.151 534.544 549.563 534.501C549.98 534.454 550.283 534.376 550.472 534.267C550.666 534.158 550.763 533.969 550.763 533.699V533.642C550.763 532.941 550.572 532.397 550.188 532.009C549.809 531.62 549.234 531.426 548.462 531.426C547.662 531.426 547.035 531.601 546.58 531.952C546.126 532.302 545.806 532.676 545.621 533.074L544.031 532.506C544.315 531.843 544.693 531.327 545.167 530.957C545.645 530.583 546.166 530.323 546.729 530.176C547.298 530.025 547.856 529.949 548.406 529.949C548.756 529.949 549.158 529.991 549.613 530.077C550.072 530.157 550.515 530.325 550.941 530.581C551.372 530.837 551.729 531.223 552.013 531.739C552.298 532.255 552.44 532.946 552.44 533.812V541H550.763V539.523H550.678C550.565 539.759 550.375 540.013 550.11 540.283C549.845 540.553 549.492 540.782 549.052 540.972C548.612 541.161 548.074 541.256 547.44 541.256ZM547.695 539.75C548.358 539.75 548.917 539.62 549.371 539.359C549.831 539.099 550.176 538.763 550.408 538.351C550.645 537.939 550.763 537.506 550.763 537.051V535.517C550.692 535.602 550.536 535.68 550.295 535.751C550.058 535.818 549.783 535.877 549.471 535.929C549.163 535.976 548.862 536.019 548.569 536.057C548.28 536.09 548.046 536.118 547.866 536.142C547.43 536.199 547.023 536.291 546.644 536.419C546.27 536.542 545.967 536.729 545.735 536.98C545.508 537.226 545.394 537.562 545.394 537.989C545.394 538.571 545.61 539.011 546.04 539.31C546.476 539.603 547.028 539.75 547.695 539.75ZM563.226 532.534L561.721 532.96C561.626 532.709 561.486 532.465 561.301 532.229C561.122 531.987 560.875 531.788 560.563 531.632C560.25 531.476 559.85 531.398 559.363 531.398C558.695 531.398 558.139 531.552 557.694 531.859C557.253 532.162 557.033 532.548 557.033 533.017C557.033 533.434 557.185 533.763 557.488 534.004C557.791 534.246 558.264 534.447 558.908 534.608L560.527 535.006C561.503 535.242 562.23 535.605 562.708 536.092C563.186 536.575 563.425 537.198 563.425 537.96C563.425 538.585 563.245 539.144 562.885 539.636C562.53 540.129 562.033 540.517 561.394 540.801C560.755 541.085 560.011 541.227 559.164 541.227C558.051 541.227 557.13 540.986 556.401 540.503C555.672 540.02 555.21 539.314 555.016 538.386L556.607 537.989C556.758 538.576 557.045 539.016 557.466 539.31C557.892 539.603 558.449 539.75 559.135 539.75C559.917 539.75 560.537 539.584 560.996 539.253C561.46 538.917 561.692 538.514 561.692 538.045C561.692 537.667 561.56 537.349 561.294 537.094C561.029 536.833 560.622 536.639 560.073 536.511L558.255 536.085C557.256 535.848 556.522 535.482 556.053 534.984C555.589 534.482 555.357 533.855 555.357 533.102C555.357 532.487 555.53 531.942 555.875 531.469C556.226 530.995 556.702 530.624 557.303 530.354C557.909 530.084 558.596 529.949 559.363 529.949C560.442 529.949 561.29 530.186 561.905 530.659C562.525 531.133 562.966 531.758 563.226 532.534ZM573.675 532.534L572.17 532.96C572.075 532.709 571.935 532.465 571.751 532.229C571.571 531.987 571.325 531.788 571.012 531.632C570.7 531.476 570.299 531.398 569.812 531.398C569.144 531.398 568.588 531.552 568.143 531.859C567.702 532.162 567.482 532.548 567.482 533.017C567.482 533.434 567.634 533.763 567.937 534.004C568.24 534.246 568.713 534.447 569.357 534.608L570.977 535.006C571.952 535.242 572.679 535.605 573.157 536.092C573.635 536.575 573.874 537.198 573.874 537.96C573.874 538.585 573.694 539.144 573.335 539.636C572.979 540.129 572.482 540.517 571.843 540.801C571.204 541.085 570.46 541.227 569.613 541.227C568.5 541.227 567.579 540.986 566.85 540.503C566.121 540.02 565.659 539.314 565.465 538.386L567.056 537.989C567.208 538.576 567.494 539.016 567.915 539.31C568.342 539.603 568.898 539.75 569.585 539.75C570.366 539.75 570.986 539.584 571.445 539.253C571.909 538.917 572.141 538.514 572.141 538.045C572.141 537.667 572.009 537.349 571.744 537.094C571.478 536.833 571.071 536.639 570.522 536.511L568.704 536.085C567.705 535.848 566.971 535.482 566.502 534.984C566.038 534.482 565.806 533.855 565.806 533.102C565.806 532.487 565.979 531.942 566.325 531.469C566.675 530.995 567.151 530.624 567.752 530.354C568.358 530.084 569.045 529.949 569.812 529.949C570.891 529.949 571.739 530.186 572.354 530.659C572.975 531.133 573.415 531.758 573.675 532.534ZM578.869 541L575.545 530.091H577.306L579.664 538.443H579.778L582.108 530.091H583.897L586.199 538.415H586.312L588.67 530.091H590.431L587.108 541H585.46L583.074 532.619H582.903L580.517 541H578.869ZM596.708 541.227C595.723 541.227 594.859 540.993 594.116 540.524C593.377 540.055 592.799 539.4 592.383 538.557C591.971 537.714 591.765 536.729 591.765 535.602C591.765 534.466 591.971 533.474 592.383 532.626C592.799 531.779 593.377 531.121 594.116 530.652C594.859 530.183 595.723 529.949 596.708 529.949C597.693 529.949 598.555 530.183 599.293 530.652C600.037 531.121 600.614 531.779 601.026 532.626C601.443 533.474 601.651 534.466 601.651 535.602C601.651 536.729 601.443 537.714 601.026 538.557C600.614 539.4 600.037 540.055 599.293 540.524C598.555 540.993 597.693 541.227 596.708 541.227ZM596.708 539.722C597.456 539.722 598.072 539.53 598.555 539.146C599.038 538.763 599.395 538.259 599.627 537.634C599.859 537.009 599.975 536.331 599.975 535.602C599.975 534.873 599.859 534.194 599.627 533.564C599.395 532.934 599.038 532.425 598.555 532.037C598.072 531.649 597.456 531.455 596.708 531.455C595.96 531.455 595.344 531.649 594.862 532.037C594.379 532.425 594.021 532.934 593.789 533.564C593.557 534.194 593.441 534.873 593.441 535.602C593.441 536.331 593.557 537.009 593.789 537.634C594.021 538.259 594.379 538.763 594.862 539.146C595.344 539.53 595.96 539.722 596.708 539.722ZM604.21 541V530.091H605.829V531.739H605.943C606.142 531.199 606.502 530.761 607.022 530.425C607.543 530.089 608.13 529.92 608.784 529.92C608.907 529.92 609.061 529.923 609.245 529.928C609.43 529.932 609.57 529.939 609.664 529.949V531.653C609.608 531.639 609.477 531.618 609.274 531.589C609.075 531.556 608.864 531.54 608.642 531.54C608.111 531.54 607.638 531.651 607.221 531.874C606.809 532.091 606.483 532.394 606.241 532.783C606.004 533.166 605.886 533.604 605.886 534.097V541H604.21ZM615.439 541.227C614.529 541.227 613.727 540.998 613.031 540.538C612.335 540.074 611.79 539.421 611.397 538.578C611.004 537.731 610.808 536.729 610.808 535.574C610.808 534.428 611.004 533.434 611.397 532.591C611.79 531.748 612.337 531.097 613.038 530.638C613.739 530.179 614.548 529.949 615.467 529.949C616.177 529.949 616.738 530.067 617.15 530.304C617.567 530.536 617.884 530.801 618.102 531.099C618.324 531.393 618.497 531.634 618.62 531.824H618.762V526.455H620.439V541H618.819V539.324H618.62C618.497 539.523 618.322 539.774 618.095 540.077C617.868 540.375 617.543 540.643 617.122 540.879C616.7 541.111 616.139 541.227 615.439 541.227ZM615.666 539.722C616.338 539.722 616.906 539.546 617.37 539.196C617.834 538.841 618.187 538.351 618.429 537.726C618.67 537.096 618.791 536.369 618.791 535.545C618.791 534.731 618.672 534.018 618.436 533.408C618.199 532.792 617.849 532.314 617.385 531.973C616.921 531.627 616.348 531.455 615.666 531.455C614.956 531.455 614.364 531.637 613.89 532.001C613.422 532.361 613.069 532.851 612.832 533.472C612.6 534.087 612.484 534.778 612.484 535.545C612.484 536.322 612.602 537.027 612.839 537.662C613.081 538.292 613.436 538.794 613.904 539.168C614.378 539.537 614.965 539.722 615.666 539.722Z" fill="#D1D1D1"/>
<mask id="mask2_423_2510" style="mask-type:alpha" maskUnits="userSpaceOnUse" x="886" y="522" width="24" height="24">
<rect x="886" y="522" width="24" height="24" fill="#D9D9D9"/>
</mask>
<g mask="url(#mask2_423_2510)">
<path d="M892 544C891.45 544 890.979 543.804 890.588 543.413C890.196 543.021 890 542.55 890 542V532C890 531.45 890.196 530.979 890.588 530.588C890.979 530.196 891.45 530 892 530H893V528C893 526.617 893.488 525.438 894.463 524.462C895.438 523.487 896.617 523 898 523C899.383 523 900.562 523.487 901.538 524.462C902.513 525.438 903 526.617 903 528V530H904C904.55 530 905.021 530.196 905.413 530.588C905.804 530.979 906 531.45 906 532V542C906 542.55 905.804 543.021 905.413 543.413C905.021 543.804 904.55 544 904 544H892ZM892 542H904V532H892V542ZM898 539C898.55 539 899.021 538.804 899.413 538.413C899.804 538.021 900 537.55 900 537C900 536.45 899.804 535.979 899.413 535.588C899.021 535.196 898.55 535 898 535C897.45 535 896.979 535.196 896.588 535.588C896.196 535.979 896 536.45 896 537C896 537.55 896.196 538.021 896.588 538.413C896.979 538.804 897.45 539 898 539ZM895 530H901V528C901 527.167 900.708 526.458 900.125 525.875C899.542 525.292 898.833 525 898 525C897.167 525 896.458 525.292 895.875 525.875C895.292 526.458 895 527.167 895 528V530Z" fill="#A8A8A8"/>
</g>
<rect x="509.5" y="582.5" width="421" height="47" rx="9.5" fill="white"/>
<rect x="509.5" y="582.5" width="421" height="47" rx="9.5" stroke="#D1D1D1"/>
<path d="M543.466 603H541.705C541.6 602.493 541.418 602.048 541.158 601.665C540.902 601.281 540.589 600.959 540.22 600.699C539.856 600.434 539.451 600.235 539.006 600.102C538.561 599.97 538.097 599.903 537.614 599.903C536.733 599.903 535.935 600.126 535.22 600.571C534.51 601.016 533.944 601.672 533.523 602.538C533.106 603.405 532.898 604.468 532.898 605.727C532.898 606.987 533.106 608.05 533.523 608.916C533.944 609.783 534.51 610.438 535.22 610.884C535.935 611.329 536.733 611.551 537.614 611.551C538.097 611.551 538.561 611.485 539.006 611.352C539.451 611.22 539.856 611.023 540.22 610.763C540.589 610.498 540.902 610.173 541.158 609.79C541.418 609.402 541.6 608.956 541.705 608.455H543.466C543.333 609.198 543.092 609.863 542.741 610.45C542.391 611.037 541.955 611.537 541.435 611.949C540.914 612.356 540.329 612.666 539.68 612.879C539.036 613.092 538.348 613.199 537.614 613.199C536.373 613.199 535.27 612.896 534.304 612.29C533.338 611.684 532.578 610.822 532.024 609.705C531.47 608.587 531.193 607.261 531.193 605.727C531.193 604.193 531.47 602.867 532.024 601.75C532.578 600.633 533.338 599.771 534.304 599.165C535.27 598.559 536.373 598.256 537.614 598.256C538.348 598.256 539.036 598.362 539.68 598.575C540.329 598.788 540.914 599.101 541.435 599.513C541.955 599.92 542.391 600.417 542.741 601.004C543.092 601.587 543.333 602.252 543.466 603ZM550.517 613.227C549.532 613.227 548.668 612.993 547.924 612.524C547.186 612.055 546.608 611.4 546.191 610.557C545.779 609.714 545.574 608.729 545.574 607.602C545.574 606.466 545.779 605.474 546.191 604.626C546.608 603.779 547.186 603.121 547.924 602.652C548.668 602.183 549.532 601.949 550.517 601.949C551.502 601.949 552.363 602.183 553.102 602.652C553.845 603.121 554.423 603.779 554.835 604.626C555.252 605.474 555.46 606.466 555.46 607.602C555.46 608.729 555.252 609.714 554.835 610.557C554.423 611.4 553.845 612.055 553.102 612.524C552.363 612.993 551.502 613.227 550.517 613.227ZM550.517 611.722C551.265 611.722 551.88 611.53 552.363 611.146C552.846 610.763 553.204 610.259 553.436 609.634C553.668 609.009 553.784 608.331 553.784 607.602C553.784 606.873 553.668 606.194 553.436 605.564C553.204 604.934 552.846 604.425 552.363 604.037C551.88 603.649 551.265 603.455 550.517 603.455C549.769 603.455 549.153 603.649 548.67 604.037C548.187 604.425 547.83 604.934 547.598 605.564C547.366 606.194 547.25 606.873 547.25 607.602C547.25 608.331 547.366 609.009 547.598 609.634C547.83 610.259 548.187 610.763 548.67 611.146C549.153 611.53 549.769 611.722 550.517 611.722ZM559.695 606.438V613H558.018V602.091H559.638V603.795H559.78C560.036 603.241 560.424 602.796 560.945 602.46C561.465 602.119 562.138 601.949 562.962 601.949C563.7 601.949 564.347 602.1 564.901 602.403C565.455 602.702 565.885 603.156 566.193 603.767C566.501 604.373 566.655 605.14 566.655 606.068V613H564.979V606.182C564.979 605.325 564.756 604.657 564.311 604.179C563.866 603.696 563.255 603.455 562.479 603.455C561.944 603.455 561.465 603.571 561.044 603.803C560.627 604.035 560.298 604.373 560.057 604.818C559.815 605.263 559.695 605.803 559.695 606.438ZM574.576 602.091V603.511H568.695V602.091H574.576ZM570.456 613V600.585C570.456 599.96 570.603 599.439 570.897 599.023C571.19 598.606 571.571 598.294 572.04 598.085C572.509 597.877 573.004 597.773 573.525 597.773C573.936 597.773 574.273 597.806 574.533 597.872C574.793 597.938 574.988 598 575.115 598.057L574.632 599.506C574.547 599.477 574.429 599.442 574.277 599.399C574.131 599.357 573.936 599.335 573.695 599.335C573.141 599.335 572.741 599.475 572.495 599.754C572.253 600.034 572.132 600.443 572.132 600.983V613H570.456ZM576.925 613V602.091H578.601V613H576.925ZM577.777 600.273C577.45 600.273 577.169 600.161 576.932 599.939C576.7 599.716 576.584 599.449 576.584 599.136C576.584 598.824 576.7 598.556 576.932 598.334C577.169 598.111 577.45 598 577.777 598C578.104 598 578.383 598.111 578.615 598.334C578.852 598.556 578.97 598.824 578.97 599.136C578.97 599.449 578.852 599.716 578.615 599.939C578.383 600.161 578.104 600.273 577.777 600.273ZM581.671 613V602.091H583.29V603.739H583.404C583.603 603.199 583.962 602.761 584.483 602.425C585.004 602.089 585.591 601.92 586.245 601.92C586.368 601.92 586.522 601.923 586.706 601.928C586.891 601.932 587.031 601.939 587.125 601.949V603.653C587.069 603.639 586.938 603.618 586.735 603.589C586.536 603.556 586.325 603.54 586.103 603.54C585.572 603.54 585.099 603.651 584.682 603.874C584.27 604.091 583.944 604.394 583.702 604.783C583.465 605.166 583.347 605.604 583.347 606.097V613H581.671ZM589.112 613V602.091H590.732V603.795H590.874C591.101 603.213 591.468 602.761 591.974 602.439C592.481 602.112 593.089 601.949 593.8 601.949C594.519 601.949 595.118 602.112 595.597 602.439C596.08 602.761 596.456 603.213 596.726 603.795H596.839C597.119 603.232 597.538 602.785 598.097 602.453C598.655 602.117 599.325 601.949 600.107 601.949C601.082 601.949 601.88 602.254 602.5 602.865C603.12 603.471 603.43 604.416 603.43 605.699V613H601.754V605.699C601.754 604.894 601.534 604.319 601.094 603.973C600.653 603.627 600.135 603.455 599.538 603.455C598.771 603.455 598.177 603.687 597.756 604.151C597.334 604.61 597.124 605.192 597.124 605.898V613H595.419V605.528C595.419 604.908 595.218 604.409 594.815 604.03C594.413 603.646 593.894 603.455 593.26 603.455C592.824 603.455 592.417 603.571 592.038 603.803C591.664 604.035 591.361 604.357 591.129 604.768C590.902 605.176 590.788 605.647 590.788 606.182V613H589.112ZM612.347 613V598.455H617.262C618.403 598.455 619.336 598.661 620.06 599.072C620.79 599.48 621.329 600.031 621.68 600.727C622.03 601.423 622.205 602.2 622.205 603.057C622.205 603.914 622.03 604.693 621.68 605.393C621.334 606.094 620.799 606.653 620.075 607.07C619.35 607.482 618.422 607.688 617.29 607.688H613.768V606.125H617.234C618.015 606.125 618.642 605.99 619.116 605.72C619.589 605.45 619.933 605.086 620.146 604.626C620.363 604.162 620.472 603.639 620.472 603.057C620.472 602.474 620.363 601.954 620.146 601.494C619.933 601.035 619.587 600.675 619.109 600.415C618.63 600.15 617.996 600.017 617.205 600.017H614.109V613H612.347ZM628.026 613.256C627.334 613.256 626.707 613.125 626.143 612.865C625.58 612.6 625.133 612.219 624.801 611.722C624.47 611.22 624.304 610.614 624.304 609.903C624.304 609.278 624.427 608.772 624.673 608.384C624.92 607.991 625.249 607.683 625.661 607.46C626.072 607.238 626.527 607.072 627.024 606.963C627.526 606.849 628.03 606.759 628.537 606.693C629.2 606.608 629.737 606.544 630.149 606.501C630.566 606.454 630.869 606.376 631.058 606.267C631.252 606.158 631.349 605.969 631.349 605.699V605.642C631.349 604.941 631.158 604.397 630.774 604.009C630.395 603.62 629.82 603.426 629.048 603.426C628.248 603.426 627.621 603.601 627.166 603.952C626.712 604.302 626.392 604.676 626.207 605.074L624.616 604.506C624.901 603.843 625.279 603.327 625.753 602.957C626.231 602.583 626.752 602.323 627.315 602.176C627.884 602.025 628.442 601.949 628.991 601.949C629.342 601.949 629.744 601.991 630.199 602.077C630.658 602.157 631.101 602.325 631.527 602.581C631.958 602.837 632.315 603.223 632.599 603.739C632.884 604.255 633.026 604.946 633.026 605.812V613H631.349V611.523H631.264C631.151 611.759 630.961 612.013 630.696 612.283C630.431 612.553 630.078 612.782 629.638 612.972C629.197 613.161 628.66 613.256 628.026 613.256ZM628.281 611.75C628.944 611.75 629.503 611.62 629.957 611.359C630.417 611.099 630.762 610.763 630.994 610.351C631.231 609.939 631.349 609.506 631.349 609.051V607.517C631.278 607.602 631.122 607.68 630.881 607.751C630.644 607.818 630.369 607.877 630.057 607.929C629.749 607.976 629.448 608.019 629.155 608.057C628.866 608.09 628.632 608.118 628.452 608.142C628.016 608.199 627.609 608.291 627.23 608.419C626.856 608.542 626.553 608.729 626.321 608.98C626.094 609.226 625.98 609.562 625.98 609.989C625.98 610.571 626.196 611.011 626.626 611.31C627.062 611.603 627.614 611.75 628.281 611.75ZM643.812 604.534L642.306 604.96C642.212 604.709 642.072 604.465 641.887 604.229C641.708 603.987 641.461 603.788 641.149 603.632C640.836 603.476 640.436 603.398 639.949 603.398C639.281 603.398 638.725 603.552 638.279 603.859C637.839 604.162 637.619 604.548 637.619 605.017C637.619 605.434 637.77 605.763 638.074 606.004C638.377 606.246 638.85 606.447 639.494 606.608L641.113 607.006C642.089 607.242 642.815 607.605 643.294 608.092C643.772 608.575 644.011 609.198 644.011 609.96C644.011 610.585 643.831 611.144 643.471 611.636C643.116 612.129 642.619 612.517 641.98 612.801C641.341 613.085 640.597 613.227 639.75 613.227C638.637 613.227 637.716 612.986 636.987 612.503C636.258 612.02 635.796 611.314 635.602 610.386L637.193 609.989C637.344 610.576 637.631 611.016 638.052 611.31C638.478 611.603 639.035 611.75 639.721 611.75C640.502 611.75 641.123 611.584 641.582 611.253C642.046 610.917 642.278 610.514 642.278 610.045C642.278 609.667 642.145 609.349 641.88 609.094C641.615 608.833 641.208 608.639 640.659 608.511L638.841 608.085C637.842 607.848 637.108 607.482 636.639 606.984C636.175 606.482 635.943 605.855 635.943 605.102C635.943 604.487 636.116 603.942 636.461 603.469C636.812 602.995 637.288 602.624 637.889 602.354C638.495 602.084 639.181 601.949 639.949 601.949C641.028 601.949 641.876 602.186 642.491 602.659C643.111 603.133 643.552 603.758 643.812 604.534ZM654.261 604.534L652.756 604.96C652.661 604.709 652.521 604.465 652.337 604.229C652.157 603.987 651.911 603.788 651.598 603.632C651.286 603.476 650.885 603.398 650.398 603.398C649.73 603.398 649.174 603.552 648.729 603.859C648.288 604.162 648.068 604.548 648.068 605.017C648.068 605.434 648.22 605.763 648.523 606.004C648.826 606.246 649.299 606.447 649.943 606.608L651.562 607.006C652.538 607.242 653.265 607.605 653.743 608.092C654.221 608.575 654.46 609.198 654.46 609.96C654.46 610.585 654.28 611.144 653.92 611.636C653.565 612.129 653.068 612.517 652.429 612.801C651.79 613.085 651.046 613.227 650.199 613.227C649.086 613.227 648.165 612.986 647.436 612.503C646.707 612.02 646.245 611.314 646.051 610.386L647.642 609.989C647.794 610.576 648.08 611.016 648.501 611.31C648.928 611.603 649.484 611.75 650.17 611.75C650.952 611.75 651.572 611.584 652.031 611.253C652.495 610.917 652.727 610.514 652.727 610.045C652.727 609.667 652.595 609.349 652.33 609.094C652.064 608.833 651.657 608.639 651.108 608.511L649.29 608.085C648.291 607.848 647.557 607.482 647.088 606.984C646.624 606.482 646.392 605.855 646.392 605.102C646.392 604.487 646.565 603.942 646.911 603.469C647.261 602.995 647.737 602.624 648.338 602.354C648.944 602.084 649.631 601.949 650.398 601.949C651.477 601.949 652.325 602.186 652.94 602.659C653.561 603.133 654.001 603.758 654.261 604.534ZM659.455 613L656.131 602.091H657.892L660.25 610.443H660.364L662.694 602.091H664.483L666.784 610.415H666.898L669.256 602.091H671.017L667.694 613H666.046L663.659 604.619H663.489L661.103 613H659.455ZM677.294 613.227C676.309 613.227 675.445 612.993 674.702 612.524C673.963 612.055 673.385 611.4 672.969 610.557C672.557 609.714 672.351 608.729 672.351 607.602C672.351 606.466 672.557 605.474 672.969 604.626C673.385 603.779 673.963 603.121 674.702 602.652C675.445 602.183 676.309 601.949 677.294 601.949C678.279 601.949 679.141 602.183 679.879 602.652C680.623 603.121 681.2 603.779 681.612 604.626C682.029 605.474 682.237 606.466 682.237 607.602C682.237 608.729 682.029 609.714 681.612 610.557C681.2 611.4 680.623 612.055 679.879 612.524C679.141 612.993 678.279 613.227 677.294 613.227ZM677.294 611.722C678.042 611.722 678.658 611.53 679.141 611.146C679.624 610.763 679.981 610.259 680.213 609.634C680.445 609.009 680.561 608.331 680.561 607.602C680.561 606.873 680.445 606.194 680.213 605.564C679.981 604.934 679.624 604.425 679.141 604.037C678.658 603.649 678.042 603.455 677.294 603.455C676.546 603.455 675.93 603.649 675.447 604.037C674.964 604.425 674.607 604.934 674.375 605.564C674.143 606.194 674.027 606.873 674.027 607.602C674.027 608.331 674.143 609.009 674.375 609.634C674.607 610.259 674.964 610.763 675.447 611.146C675.93 611.53 676.546 611.722 677.294 611.722ZM684.796 613V602.091H686.415V603.739H686.529C686.728 603.199 687.087 602.761 687.608 602.425C688.129 602.089 688.716 601.92 689.37 601.92C689.493 601.92 689.647 601.923 689.831 601.928C690.016 601.932 690.156 601.939 690.25 601.949V603.653C690.194 603.639 690.063 603.618 689.86 603.589C689.661 603.556 689.45 603.54 689.228 603.54C688.697 603.54 688.224 603.651 687.807 603.874C687.395 604.091 687.069 604.394 686.827 604.783C686.59 605.166 686.472 605.604 686.472 606.097V613H684.796ZM696.025 613.227C695.115 613.227 694.313 612.998 693.617 612.538C692.921 612.074 692.376 611.421 691.983 610.578C691.59 609.731 691.394 608.729 691.394 607.574C691.394 606.428 691.59 605.434 691.983 604.591C692.376 603.748 692.923 603.097 693.624 602.638C694.325 602.179 695.134 601.949 696.053 601.949C696.763 601.949 697.324 602.067 697.736 602.304C698.153 602.536 698.47 602.801 698.688 603.099C698.91 603.393 699.083 603.634 699.206 603.824H699.348V598.455H701.025V613H699.405V611.324H699.206C699.083 611.523 698.908 611.774 698.681 612.077C698.453 612.375 698.129 612.643 697.708 612.879C697.286 613.111 696.725 613.227 696.025 613.227ZM696.252 611.722C696.924 611.722 697.492 611.546 697.956 611.196C698.42 610.841 698.773 610.351 699.015 609.726C699.256 609.096 699.377 608.369 699.377 607.545C699.377 606.731 699.258 606.018 699.022 605.408C698.785 604.792 698.435 604.314 697.971 603.973C697.507 603.627 696.934 603.455 696.252 603.455C695.542 603.455 694.95 603.637 694.476 604.001C694.007 604.361 693.655 604.851 693.418 605.472C693.186 606.087 693.07 606.778 693.07 607.545C693.07 608.322 693.188 609.027 693.425 609.662C693.667 610.292 694.022 610.794 694.49 611.168C694.964 611.537 695.551 611.722 696.252 611.722Z" fill="#D1D1D1"/>
<mask id="mask3_423_2510" style="mask-type:alpha" maskUnits="userSpaceOnUse" x="886" y="594" width="24" height="24">
<rect x="886" y="594" width="24" height="24" fill="#D9D9D9"/>
</mask>
<g mask="url(#mask3_423_2510)">
<path d="M892 616C891.45 616 890.979 615.804 890.588 615.413C890.196 615.021 890 614.55 890 614V604C890 603.45 890.196 602.979 890.588 602.588C890.979 602.196 891.45 602 892 602H893V600C893 598.617 893.488 597.438 894.463 596.462C895.438 595.487 896.617 595 898 595C899.383 595 900.562 595.487 901.538 596.462C902.513 597.438 903 598.617 903 600V602H904C904.55 602 905.021 602.196 905.413 602.588C905.804 602.979 906 603.45 906 604V614C906 614.55 905.804 615.021 905.413 615.413C905.021 615.804 904.55 616 904 616H892ZM892 614H904V604H892V614ZM898 611C898.55 611 899.021 610.804 899.413 610.413C899.804 610.021 900 609.55 900 609C900 608.45 899.804 607.979 899.413 607.588C899.021 607.196 898.55 607 898 607C897.45 607 896.979 607.196 896.588 607.588C896.196 607.979 896 608.45 896 609C896 609.55 896.196 610.021 896.588 610.413C896.979 610.804 897.45 611 898 611ZM895 602H901V600C901 599.167 900.708 598.458 900.125 597.875C899.542 597.292 898.833 597 898 597C897.167 597 896.458 597.292 895.875 597.875C895.292 598.458 895 599.167 895 600V602Z" fill="#A8A8A8"/>
</g>
<rect x="608.5" y="672" width="16" height="16" rx="3" stroke="#2A3647" stroke-width="2"/>
<path d="M639.318 673.864V685.5H637.909V673.864H639.318ZM649.03 685.705C648.477 685.705 647.975 685.6 647.524 685.392C647.073 685.18 646.715 684.875 646.45 684.477C646.185 684.076 646.053 683.591 646.053 683.023C646.053 682.523 646.151 682.117 646.348 681.807C646.545 681.492 646.808 681.246 647.138 681.068C647.467 680.89 647.831 680.758 648.229 680.67C648.63 680.58 649.034 680.508 649.439 680.455C649.969 680.386 650.399 680.335 650.729 680.301C651.062 680.263 651.304 680.201 651.456 680.114C651.611 680.027 651.689 679.875 651.689 679.659V679.614C651.689 679.053 651.536 678.617 651.229 678.307C650.926 677.996 650.465 677.841 649.848 677.841C649.208 677.841 648.706 677.981 648.342 678.261C647.979 678.542 647.723 678.841 647.575 679.159L646.303 678.705C646.53 678.174 646.833 677.761 647.212 677.466C647.594 677.167 648.011 676.958 648.462 676.841C648.916 676.72 649.363 676.659 649.803 676.659C650.083 676.659 650.405 676.693 650.768 676.761C651.136 676.826 651.49 676.96 651.831 677.165C652.176 677.369 652.462 677.678 652.689 678.091C652.916 678.504 653.03 679.057 653.03 679.75V685.5H651.689V684.318H651.621C651.53 684.508 651.378 684.71 651.166 684.926C650.954 685.142 650.672 685.326 650.32 685.477C649.967 685.629 649.537 685.705 649.03 685.705ZM649.234 684.5C649.765 684.5 650.212 684.396 650.575 684.188C650.943 683.979 651.219 683.71 651.405 683.381C651.594 683.051 651.689 682.705 651.689 682.341V681.114C651.632 681.182 651.507 681.244 651.314 681.301C651.125 681.354 650.905 681.402 650.655 681.443C650.409 681.481 650.168 681.515 649.933 681.545C649.702 681.572 649.515 681.595 649.371 681.614C649.022 681.659 648.696 681.733 648.393 681.835C648.094 681.934 647.852 682.083 647.666 682.284C647.484 682.481 647.393 682.75 647.393 683.091C647.393 683.557 647.566 683.909 647.911 684.148C648.259 684.383 648.7 684.5 649.234 684.5ZM659.023 685.682C658.205 685.682 657.5 685.489 656.909 685.102C656.318 684.716 655.864 684.184 655.545 683.506C655.227 682.828 655.068 682.053 655.068 681.182C655.068 680.295 655.231 679.513 655.557 678.835C655.886 678.153 656.345 677.621 656.932 677.239C657.523 676.852 658.212 676.659 659 676.659C659.614 676.659 660.167 676.773 660.659 677C661.152 677.227 661.555 677.545 661.869 677.955C662.184 678.364 662.379 678.841 662.455 679.386H661.114C661.011 678.989 660.784 678.636 660.432 678.33C660.083 678.019 659.614 677.864 659.023 677.864C658.5 677.864 658.042 678 657.648 678.273C657.258 678.542 656.953 678.922 656.733 679.415C656.517 679.903 656.409 680.477 656.409 681.136C656.409 681.811 656.515 682.398 656.727 682.898C656.943 683.398 657.246 683.786 657.636 684.062C658.03 684.339 658.492 684.477 659.023 684.477C659.371 684.477 659.688 684.417 659.972 684.295C660.256 684.174 660.496 684 660.693 683.773C660.89 683.545 661.03 683.273 661.114 682.955H662.455C662.379 683.47 662.191 683.934 661.892 684.347C661.597 684.756 661.205 685.081 660.716 685.324C660.231 685.562 659.667 685.682 659.023 685.682ZM667.96 685.682C667.142 685.682 666.438 685.489 665.847 685.102C665.256 684.716 664.801 684.184 664.483 683.506C664.165 682.828 664.006 682.053 664.006 681.182C664.006 680.295 664.169 679.513 664.494 678.835C664.824 678.153 665.282 677.621 665.869 677.239C666.46 676.852 667.15 676.659 667.938 676.659C668.551 676.659 669.104 676.773 669.597 677C670.089 677.227 670.492 677.545 670.807 677.955C671.121 678.364 671.316 678.841 671.392 679.386H670.051C669.949 678.989 669.722 678.636 669.369 678.33C669.021 678.019 668.551 677.864 667.96 677.864C667.438 677.864 666.979 678 666.585 678.273C666.195 678.542 665.89 678.922 665.67 679.415C665.455 679.903 665.347 680.477 665.347 681.136C665.347 681.811 665.453 682.398 665.665 682.898C665.881 683.398 666.184 683.786 666.574 684.062C666.968 684.339 667.43 684.477 667.96 684.477C668.309 684.477 668.625 684.417 668.909 684.295C669.193 684.174 669.434 684 669.631 683.773C669.828 683.545 669.968 683.273 670.051 682.955H671.392C671.316 683.47 671.129 683.934 670.83 684.347C670.534 684.756 670.142 685.081 669.653 685.324C669.169 685.562 668.604 685.682 667.96 685.682ZM677.011 685.682C676.17 685.682 675.445 685.496 674.835 685.125C674.229 684.75 673.761 684.227 673.432 683.557C673.106 682.883 672.943 682.098 672.943 681.205C672.943 680.311 673.106 679.523 673.432 678.841C673.761 678.155 674.22 677.621 674.807 677.239C675.398 676.852 676.087 676.659 676.875 676.659C677.33 676.659 677.778 676.735 678.222 676.886C678.665 677.038 679.068 677.284 679.432 677.625C679.795 677.962 680.085 678.409 680.301 678.966C680.517 679.523 680.625 680.208 680.625 681.023V681.591H673.898V680.432H679.261C679.261 679.939 679.163 679.5 678.966 679.114C678.773 678.727 678.496 678.422 678.136 678.199C677.78 677.975 677.36 677.864 676.875 677.864C676.341 677.864 675.879 677.996 675.489 678.261C675.102 678.523 674.805 678.864 674.597 679.284C674.388 679.705 674.284 680.155 674.284 680.636V681.409C674.284 682.068 674.398 682.627 674.625 683.085C674.856 683.54 675.176 683.886 675.585 684.125C675.994 684.36 676.47 684.477 677.011 684.477C677.364 684.477 677.682 684.428 677.966 684.33C678.254 684.227 678.502 684.076 678.71 683.875C678.919 683.67 679.08 683.417 679.193 683.114L680.489 683.477C680.352 683.917 680.123 684.303 679.801 684.636C679.479 684.966 679.081 685.223 678.608 685.409C678.134 685.591 677.602 685.682 677.011 685.682ZM682.665 688.773V676.773H683.96V678.159H684.119C684.218 678.008 684.354 677.814 684.528 677.58C684.706 677.341 684.96 677.129 685.29 676.943C685.623 676.754 686.074 676.659 686.642 676.659C687.377 676.659 688.025 676.843 688.585 677.21C689.146 677.578 689.583 678.098 689.898 678.773C690.212 679.447 690.369 680.242 690.369 681.159C690.369 682.083 690.212 682.884 689.898 683.562C689.583 684.237 689.148 684.759 688.591 685.131C688.034 685.498 687.392 685.682 686.665 685.682C686.104 685.682 685.655 685.589 685.318 685.403C684.981 685.214 684.722 685 684.54 684.761C684.358 684.519 684.218 684.318 684.119 684.159H684.006V688.773H682.665ZM683.983 681.136C683.983 681.795 684.08 682.377 684.273 682.881C684.466 683.381 684.748 683.773 685.119 684.057C685.491 684.337 685.945 684.477 686.483 684.477C687.044 684.477 687.511 684.33 687.886 684.034C688.265 683.735 688.549 683.333 688.739 682.83C688.932 682.322 689.028 681.758 689.028 681.136C689.028 680.523 688.934 679.97 688.744 679.477C688.559 678.981 688.277 678.589 687.898 678.301C687.523 678.009 687.051 677.864 686.483 677.864C685.938 677.864 685.479 678.002 685.108 678.278C684.737 678.551 684.456 678.934 684.267 679.426C684.078 679.915 683.983 680.485 683.983 681.136ZM696.21 676.773V677.909H691.688V676.773H696.21ZM693.006 674.682H694.347V683C694.347 683.379 694.402 683.663 694.511 683.852C694.625 684.038 694.769 684.163 694.943 684.227C695.121 684.288 695.309 684.318 695.506 684.318C695.653 684.318 695.775 684.311 695.869 684.295C695.964 684.277 696.04 684.261 696.097 684.25L696.369 685.455C696.278 685.489 696.152 685.523 695.989 685.557C695.826 685.595 695.619 685.614 695.369 685.614C694.991 685.614 694.619 685.532 694.256 685.369C693.896 685.206 693.597 684.958 693.358 684.625C693.123 684.292 693.006 683.871 693.006 683.364V674.682ZM706.523 676.773V677.909H702V676.773H706.523ZM703.318 674.682H704.659V683C704.659 683.379 704.714 683.663 704.824 683.852C704.938 684.038 705.081 684.163 705.256 684.227C705.434 684.288 705.621 684.318 705.818 684.318C705.966 684.318 706.087 684.311 706.182 684.295C706.277 684.277 706.352 684.261 706.409 684.25L706.682 685.455C706.591 685.489 706.464 685.523 706.301 685.557C706.138 685.595 705.932 685.614 705.682 685.614C705.303 685.614 704.932 685.532 704.568 685.369C704.208 685.206 703.909 684.958 703.67 684.625C703.436 684.292 703.318 683.871 703.318 683.364V674.682ZM710.068 680.25V685.5H708.727V673.864H710.068V678.136H710.182C710.386 677.686 710.693 677.328 711.102 677.062C711.515 676.794 712.064 676.659 712.75 676.659C713.345 676.659 713.866 676.778 714.312 677.017C714.759 677.252 715.106 677.614 715.352 678.102C715.602 678.587 715.727 679.205 715.727 679.955V685.5H714.386V680.045C714.386 679.352 714.206 678.816 713.847 678.438C713.491 678.055 712.996 677.864 712.364 677.864C711.924 677.864 711.53 677.956 711.182 678.142C710.837 678.328 710.564 678.598 710.364 678.955C710.167 679.311 710.068 679.742 710.068 680.25ZM721.839 685.682C720.999 685.682 720.273 685.496 719.663 685.125C719.057 684.75 718.589 684.227 718.26 683.557C717.934 682.883 717.771 682.098 717.771 681.205C717.771 680.311 717.934 679.523 718.26 678.841C718.589 678.155 719.048 677.621 719.635 677.239C720.226 676.852 720.915 676.659 721.703 676.659C722.158 676.659 722.607 676.735 723.05 676.886C723.493 677.038 723.896 677.284 724.26 677.625C724.624 677.962 724.913 678.409 725.129 678.966C725.345 679.523 725.453 680.208 725.453 681.023V681.591H718.726V680.432H724.089C724.089 679.939 723.991 679.5 723.794 679.114C723.601 678.727 723.324 678.422 722.964 678.199C722.608 677.975 722.188 677.864 721.703 677.864C721.169 677.864 720.707 677.996 720.317 678.261C719.93 678.523 719.633 678.864 719.425 679.284C719.216 679.705 719.112 680.155 719.112 680.636V681.409C719.112 682.068 719.226 682.627 719.453 683.085C719.684 683.54 720.004 683.886 720.413 684.125C720.822 684.36 721.298 684.477 721.839 684.477C722.192 684.477 722.51 684.428 722.794 684.33C723.082 684.227 723.33 684.076 723.538 683.875C723.747 683.67 723.908 683.417 724.021 683.114L725.317 683.477C725.18 683.917 724.951 684.303 724.629 684.636C724.307 684.966 723.91 685.223 723.436 685.409C722.963 685.591 722.43 685.682 721.839 685.682Z" fill="#A8A8A8"/>
<path d="M731.909 685.5V673.864H735.841C736.754 673.864 737.5 674.028 738.08 674.358C738.663 674.684 739.095 675.125 739.375 675.682C739.655 676.239 739.795 676.86 739.795 677.545C739.795 678.231 739.655 678.854 739.375 679.415C739.098 679.975 738.67 680.422 738.091 680.756C737.511 681.085 736.769 681.25 735.864 681.25H733.045V680H735.818C736.443 680 736.945 679.892 737.324 679.676C737.703 679.46 737.977 679.169 738.148 678.801C738.322 678.43 738.409 678.011 738.409 677.545C738.409 677.08 738.322 676.663 738.148 676.295C737.977 675.928 737.701 675.64 737.318 675.432C736.936 675.22 736.428 675.114 735.795 675.114H733.318V685.5H731.909ZM741.884 685.5V676.773H743.179V678.091H743.27C743.429 677.659 743.717 677.309 744.134 677.04C744.55 676.771 745.02 676.636 745.543 676.636C745.641 676.636 745.764 676.638 745.912 676.642C746.06 676.646 746.171 676.652 746.247 676.659V678.023C746.202 678.011 746.098 677.994 745.935 677.972C745.776 677.945 745.607 677.932 745.429 677.932C745.005 677.932 744.626 678.021 744.293 678.199C743.963 678.373 743.702 678.616 743.509 678.926C743.319 679.233 743.224 679.583 743.224 679.977V685.5H741.884ZM747.837 685.5V676.773H749.178V685.5H747.837ZM748.518 675.318C748.257 675.318 748.032 675.229 747.842 675.051C747.657 674.873 747.564 674.659 747.564 674.409C747.564 674.159 747.657 673.945 747.842 673.767C748.032 673.589 748.257 673.5 748.518 673.5C748.78 673.5 749.003 673.589 749.189 673.767C749.378 673.945 749.473 674.159 749.473 674.409C749.473 674.659 749.378 674.873 749.189 675.051C749.003 675.229 748.78 675.318 748.518 675.318ZM758.77 676.773L755.543 685.5H754.179L750.952 676.773H752.406L754.815 683.727H754.906L757.315 676.773H758.77ZM762.842 685.705C762.289 685.705 761.787 685.6 761.337 685.392C760.886 685.18 760.528 684.875 760.263 684.477C759.998 684.076 759.865 683.591 759.865 683.023C759.865 682.523 759.964 682.117 760.161 681.807C760.357 681.492 760.621 681.246 760.95 681.068C761.28 680.89 761.643 680.758 762.041 680.67C762.443 680.58 762.846 680.508 763.251 680.455C763.782 680.386 764.212 680.335 764.541 680.301C764.875 680.263 765.117 680.201 765.268 680.114C765.424 680.027 765.501 679.875 765.501 679.659V679.614C765.501 679.053 765.348 678.617 765.041 678.307C764.738 677.996 764.278 677.841 763.661 677.841C763.02 677.841 762.518 677.981 762.155 678.261C761.791 678.542 761.536 678.841 761.388 679.159L760.115 678.705C760.342 678.174 760.645 677.761 761.024 677.466C761.407 677.167 761.823 676.958 762.274 676.841C762.729 676.72 763.176 676.659 763.615 676.659C763.895 676.659 764.217 676.693 764.581 676.761C764.948 676.826 765.303 676.96 765.643 677.165C765.988 677.369 766.274 677.678 766.501 678.091C766.729 678.504 766.842 679.057 766.842 679.75V685.5H765.501V684.318H765.433C765.342 684.508 765.191 684.71 764.979 684.926C764.767 685.142 764.484 685.326 764.132 685.477C763.78 685.629 763.35 685.705 762.842 685.705ZM763.047 684.5C763.577 684.5 764.024 684.396 764.388 684.188C764.755 683.979 765.032 683.71 765.217 683.381C765.407 683.051 765.501 682.705 765.501 682.341V681.114C765.445 681.182 765.32 681.244 765.126 681.301C764.937 681.354 764.717 681.402 764.467 681.443C764.221 681.481 763.981 681.515 763.746 681.545C763.515 681.572 763.327 681.595 763.183 681.614C762.835 681.659 762.509 681.733 762.206 681.835C761.907 681.934 761.664 682.083 761.479 682.284C761.297 682.481 761.206 682.75 761.206 683.091C761.206 683.557 761.378 683.909 761.723 684.148C762.071 684.383 762.513 684.5 763.047 684.5ZM772.835 685.682C772.017 685.682 771.313 685.489 770.722 685.102C770.131 684.716 769.676 684.184 769.358 683.506C769.04 682.828 768.881 682.053 768.881 681.182C768.881 680.295 769.044 679.513 769.369 678.835C769.699 678.153 770.157 677.621 770.744 677.239C771.335 676.852 772.025 676.659 772.812 676.659C773.426 676.659 773.979 676.773 774.472 677C774.964 677.227 775.367 677.545 775.682 677.955C775.996 678.364 776.191 678.841 776.267 679.386H774.926C774.824 678.989 774.597 678.636 774.244 678.33C773.896 678.019 773.426 677.864 772.835 677.864C772.313 677.864 771.854 678 771.46 678.273C771.07 678.542 770.765 678.922 770.545 679.415C770.33 679.903 770.222 680.477 770.222 681.136C770.222 681.811 770.328 682.398 770.54 682.898C770.756 683.398 771.059 683.786 771.449 684.062C771.843 684.339 772.305 684.477 772.835 684.477C773.184 684.477 773.5 684.417 773.784 684.295C774.068 684.174 774.309 684 774.506 683.773C774.703 683.545 774.843 683.273 774.926 682.955H776.267C776.191 683.47 776.004 683.934 775.705 684.347C775.409 684.756 775.017 685.081 774.528 685.324C774.044 685.562 773.479 685.682 772.835 685.682ZM779.091 688.773C778.864 688.773 778.661 688.754 778.483 688.716C778.305 688.682 778.182 688.648 778.114 688.614L778.455 687.432C778.78 687.515 779.068 687.545 779.318 687.523C779.568 687.5 779.79 687.388 779.983 687.188C780.18 686.991 780.36 686.67 780.523 686.227L780.773 685.545L777.545 676.773H779L781.409 683.727H781.5L783.909 676.773H785.364L781.659 686.773C781.492 687.223 781.286 687.597 781.04 687.892C780.794 688.191 780.508 688.413 780.182 688.557C779.86 688.701 779.496 688.773 779.091 688.773ZM791.634 688.773V676.773H792.929V678.159H793.088C793.187 678.008 793.323 677.814 793.497 677.58C793.675 677.341 793.929 677.129 794.259 676.943C794.592 676.754 795.043 676.659 795.611 676.659C796.346 676.659 796.993 676.843 797.554 677.21C798.115 677.578 798.552 678.098 798.866 678.773C799.181 679.447 799.338 680.242 799.338 681.159C799.338 682.083 799.181 682.884 798.866 683.562C798.552 684.237 798.116 684.759 797.56 685.131C797.003 685.498 796.361 685.682 795.634 685.682C795.073 685.682 794.624 685.589 794.287 685.403C793.95 685.214 793.69 685 793.509 684.761C793.327 684.519 793.187 684.318 793.088 684.159H792.974V688.773H791.634ZM792.952 681.136C792.952 681.795 793.048 682.377 793.241 682.881C793.435 683.381 793.717 683.773 794.088 684.057C794.459 684.337 794.914 684.477 795.452 684.477C796.012 684.477 796.48 684.33 796.855 684.034C797.234 683.735 797.518 683.333 797.707 682.83C797.901 682.322 797.997 681.758 797.997 681.136C797.997 680.523 797.902 679.97 797.713 679.477C797.527 678.981 797.245 678.589 796.866 678.301C796.491 678.009 796.02 677.864 795.452 677.864C794.906 677.864 794.448 678.002 794.077 678.278C793.705 678.551 793.425 678.934 793.236 679.426C793.046 679.915 792.952 680.485 792.952 681.136ZM804.929 685.682C804.141 685.682 803.45 685.494 802.855 685.119C802.264 684.744 801.802 684.22 801.469 683.545C801.139 682.871 800.974 682.083 800.974 681.182C800.974 680.273 801.139 679.479 801.469 678.801C801.802 678.123 802.264 677.597 802.855 677.222C803.45 676.847 804.141 676.659 804.929 676.659C805.717 676.659 806.406 676.847 806.997 677.222C807.592 677.597 808.054 678.123 808.384 678.801C808.717 679.479 808.884 680.273 808.884 681.182C808.884 682.083 808.717 682.871 808.384 683.545C808.054 684.22 807.592 684.744 806.997 685.119C806.406 685.494 805.717 685.682 804.929 685.682ZM804.929 684.477C805.527 684.477 806.02 684.324 806.406 684.017C806.793 683.71 807.079 683.307 807.264 682.807C807.45 682.307 807.543 681.765 807.543 681.182C807.543 680.598 807.45 680.055 807.264 679.551C807.079 679.047 806.793 678.64 806.406 678.33C806.02 678.019 805.527 677.864 804.929 677.864C804.33 677.864 803.838 678.019 803.452 678.33C803.065 678.64 802.779 679.047 802.594 679.551C802.408 680.055 802.315 680.598 802.315 681.182C802.315 681.765 802.408 682.307 802.594 682.807C802.779 683.307 803.065 683.71 803.452 684.017C803.838 684.324 804.33 684.477 804.929 684.477ZM812.271 673.864V685.5H810.93V673.864H812.271ZM814.727 685.5V676.773H816.068V685.5H814.727ZM815.409 675.318C815.148 675.318 814.922 675.229 814.733 675.051C814.547 674.873 814.455 674.659 814.455 674.409C814.455 674.159 814.547 673.945 814.733 673.767C814.922 673.589 815.148 673.5 815.409 673.5C815.67 673.5 815.894 673.589 816.08 673.767C816.269 673.945 816.364 674.159 816.364 674.409C816.364 674.659 816.269 674.873 816.08 675.051C815.894 675.229 815.67 675.318 815.409 675.318ZM822.07 685.682C821.251 685.682 820.547 685.489 819.956 685.102C819.365 684.716 818.911 684.184 818.592 683.506C818.274 682.828 818.115 682.053 818.115 681.182C818.115 680.295 818.278 679.513 818.604 678.835C818.933 678.153 819.392 677.621 819.979 677.239C820.57 676.852 821.259 676.659 822.047 676.659C822.661 676.659 823.214 676.773 823.706 677C824.198 677.227 824.602 677.545 824.916 677.955C825.231 678.364 825.426 678.841 825.501 679.386H824.161C824.058 678.989 823.831 678.636 823.479 678.33C823.13 678.019 822.661 677.864 822.07 677.864C821.547 677.864 821.089 678 820.695 678.273C820.304 678.542 820 678.922 819.78 679.415C819.564 679.903 819.456 680.477 819.456 681.136C819.456 681.811 819.562 682.398 819.774 682.898C819.99 683.398 820.293 683.786 820.683 684.062C821.077 684.339 821.539 684.477 822.07 684.477C822.418 684.477 822.734 684.417 823.018 684.295C823.303 684.174 823.543 684 823.74 683.773C823.937 683.545 824.077 683.273 824.161 682.955H825.501C825.426 683.47 825.238 683.934 824.939 684.347C824.643 684.756 824.251 685.081 823.763 685.324C823.278 685.562 822.714 685.682 822.07 685.682ZM828.325 688.773C828.098 688.773 827.895 688.754 827.717 688.716C827.539 688.682 827.416 688.648 827.348 688.614L827.689 687.432C828.015 687.515 828.303 687.545 828.553 687.523C828.803 687.5 829.024 687.388 829.217 687.188C829.414 686.991 829.594 686.67 829.757 686.227L830.007 685.545L826.78 676.773H828.234L830.643 683.727H830.734L833.143 676.773H834.598L830.893 686.773C830.727 687.223 830.52 687.597 830.274 687.892C830.028 688.191 829.742 688.413 829.416 688.557C829.094 688.701 828.731 688.773 828.325 688.773Z" fill="#29ABE2"/>
<rect x="657" y="724" width="126" height="55" rx="8" fill="#2A3647"/>
<path d="M690.613 748.12C690.553 747.518 690.297 747.051 689.844 746.718C689.392 746.385 688.778 746.218 688.002 746.218C687.475 746.218 687.031 746.293 686.668 746.442C686.305 746.586 686.026 746.787 685.832 747.046C685.643 747.304 685.549 747.598 685.549 747.926C685.539 748.199 685.596 748.438 685.721 748.642C685.85 748.846 686.026 749.022 686.25 749.171C686.474 749.315 686.732 749.442 687.026 749.551C687.319 749.656 687.632 749.745 687.965 749.82L689.337 750.148C690.004 750.297 690.615 750.496 691.172 750.745C691.729 750.993 692.211 751.299 692.619 751.662C693.026 752.025 693.342 752.452 693.566 752.945C693.794 753.437 693.911 754.001 693.916 754.637C693.911 755.572 693.673 756.382 693.2 757.069C692.733 757.75 692.057 758.279 691.172 758.657C690.292 759.03 689.23 759.216 687.988 759.216C686.755 759.216 685.681 759.027 684.766 758.65C683.856 758.272 683.145 757.712 682.633 756.972C682.126 756.226 681.86 755.304 681.835 754.205H684.96C684.995 754.717 685.141 755.145 685.4 755.488C685.663 755.826 686.014 756.082 686.451 756.256C686.894 756.425 687.393 756.509 687.95 756.509C688.497 756.509 688.972 756.43 689.375 756.271C689.782 756.112 690.098 755.89 690.322 755.607C690.545 755.324 690.657 754.998 690.657 754.63C690.657 754.287 690.555 753.999 690.352 753.765C690.153 753.531 689.859 753.332 689.472 753.168C689.089 753.004 688.619 752.855 688.062 752.721L686.399 752.303C685.112 751.99 684.095 751.5 683.349 750.834C682.603 750.168 682.233 749.271 682.238 748.142C682.233 747.217 682.479 746.409 682.976 745.718C683.478 745.027 684.167 744.488 685.042 744.1C685.917 743.712 686.911 743.518 688.025 743.518C689.158 743.518 690.148 743.712 690.993 744.1C691.843 744.488 692.504 745.027 692.977 745.718C693.449 746.409 693.692 747.21 693.707 748.12H690.613ZM696.028 759V747.545H699.205V759H696.028ZM697.624 746.069C697.152 746.069 696.747 745.912 696.409 745.599C696.076 745.281 695.909 744.901 695.909 744.458C695.909 744.021 696.076 743.645 696.409 743.332C696.747 743.014 697.152 742.855 697.624 742.855C698.097 742.855 698.499 743.014 698.832 743.332C699.171 743.645 699.34 744.021 699.34 744.458C699.34 744.901 699.171 745.281 698.832 745.599C698.499 745.912 698.097 746.069 697.624 746.069ZM706.911 763.534C705.882 763.534 704.999 763.392 704.263 763.109C703.532 762.831 702.951 762.45 702.518 761.968C702.086 761.486 701.805 760.944 701.676 760.342L704.614 759.947C704.703 760.176 704.845 760.39 705.039 760.588C705.233 760.787 705.489 760.946 705.807 761.066C706.13 761.19 706.523 761.252 706.985 761.252C707.676 761.252 708.246 761.083 708.693 760.745C709.145 760.412 709.372 759.853 709.372 759.067V756.972H709.237C709.098 757.29 708.889 757.591 708.611 757.874C708.333 758.157 707.975 758.388 707.537 758.567C707.1 758.746 706.578 758.836 705.971 758.836C705.111 758.836 704.328 758.637 703.622 758.239C702.921 757.837 702.362 757.223 701.944 756.397C701.531 755.567 701.325 754.518 701.325 753.25C701.325 751.953 701.536 750.869 701.959 749.999C702.382 749.129 702.943 748.478 703.644 748.045C704.35 747.613 705.123 747.396 705.964 747.396C706.605 747.396 707.142 747.506 707.574 747.724C708.007 747.938 708.355 748.207 708.618 748.53C708.887 748.848 709.093 749.161 709.237 749.469H709.357V747.545H712.511V759.112C712.511 760.086 712.273 760.902 711.795 761.558C711.318 762.214 710.657 762.706 709.812 763.034C708.971 763.368 708.004 763.534 706.911 763.534ZM706.978 756.45C707.49 756.45 707.922 756.323 708.275 756.069C708.633 755.811 708.907 755.443 709.096 754.966C709.29 754.483 709.387 753.907 709.387 753.235C709.387 752.564 709.292 751.983 709.103 751.49C708.914 750.993 708.641 750.608 708.283 750.335C707.925 750.061 707.49 749.924 706.978 749.924C706.456 749.924 706.016 750.066 705.658 750.349C705.3 750.628 705.029 751.016 704.845 751.513C704.661 752.01 704.569 752.584 704.569 753.235C704.569 753.897 704.661 754.468 704.845 754.951C705.034 755.428 705.305 755.798 705.658 756.062C706.016 756.32 706.456 756.45 706.978 756.45ZM718.216 752.378V759H715.039V747.545H718.067V749.566H718.201C718.455 748.9 718.88 748.373 719.476 747.985C720.073 747.593 720.796 747.396 721.646 747.396C722.442 747.396 723.135 747.57 723.727 747.918C724.319 748.266 724.779 748.763 725.107 749.41C725.435 750.051 725.599 750.817 725.599 751.707V759H722.422V752.273C722.427 751.572 722.248 751.026 721.885 750.633C721.522 750.235 721.023 750.036 720.386 750.036C719.959 750.036 719.581 750.128 719.253 750.312C718.93 750.496 718.676 750.765 718.492 751.118C718.313 751.466 718.221 751.886 718.216 752.378ZM740.309 754.123V747.545H743.485V759H740.435V756.919H740.316C740.058 757.591 739.627 758.13 739.026 758.538C738.429 758.945 737.701 759.149 736.841 759.149C736.075 759.149 735.402 758.975 734.82 758.627C734.238 758.279 733.783 757.784 733.455 757.143C733.132 756.502 732.968 755.734 732.963 754.839V747.545H736.14V754.272C736.145 754.948 736.326 755.483 736.684 755.875C737.042 756.268 737.522 756.464 738.124 756.464C738.506 756.464 738.864 756.377 739.197 756.203C739.531 756.025 739.799 755.761 740.003 755.413C740.212 755.065 740.314 754.635 740.309 754.123ZM746.027 763.295V747.545H749.159V749.469H749.3C749.44 749.161 749.641 748.848 749.904 748.53C750.173 748.207 750.521 747.938 750.948 747.724C751.381 747.506 751.918 747.396 752.559 747.396C753.394 747.396 754.165 747.615 754.871 748.053C755.577 748.485 756.141 749.139 756.564 750.014C756.986 750.884 757.198 751.975 757.198 753.288C757.198 754.565 756.991 755.644 756.579 756.524C756.171 757.399 755.614 758.063 754.908 758.515C754.207 758.963 753.422 759.186 752.552 759.186C751.935 759.186 751.411 759.085 750.978 758.881C750.551 758.677 750.2 758.421 749.927 758.113C749.653 757.799 749.445 757.484 749.3 757.165H749.203V763.295H746.027ZM749.136 753.273C749.136 753.954 749.231 754.548 749.42 755.055C749.609 755.562 749.882 755.957 750.24 756.241C750.598 756.519 751.033 756.658 751.545 756.658C752.062 756.658 752.5 756.517 752.858 756.233C753.215 755.945 753.486 755.547 753.67 755.04C753.859 754.528 753.954 753.939 753.954 753.273C753.954 752.612 753.862 752.03 753.678 751.528C753.494 751.026 753.223 750.633 752.865 750.349C752.507 750.066 752.067 749.924 751.545 749.924C751.028 749.924 750.59 750.061 750.233 750.335C749.88 750.608 749.609 750.996 749.42 751.498C749.231 752 749.136 752.592 749.136 753.273Z" fill="white"/>
<g clip-path="url(#clip0_423_2510)">
<path d="M479.437 275.667H494.333C495.07 275.667 495.667 276.264 495.667 277C495.667 277.736 495.07 278.333 494.333 278.333H479.437L485.647 284.543C486.167 285.063 486.167 285.907 485.647 286.428C485.126 286.949 484.282 286.949 483.761 286.428L475.747 278.414C474.966 277.633 474.966 276.367 475.747 275.586L483.761 267.572C484.282 267.051 485.126 267.051 485.647 267.572C486.167 268.093 486.167 268.937 485.647 269.457L479.437 275.667Z" fill="#29ABE2"/>
</g>
</g>
<path d="M148.672 80H126.514V105.492H148.672V80Z" fill="#2A3647"/>
<path d="M126.514 126.225H148.672V162.178C148.773 170.829 146.311 179.315 141.599 186.557C136.945 193.594 127.963 201.966 111.345 201.966C93.2434 201.966 82.6929 193.406 77 188.715L90.9765 171.474C96.533 176.011 101.885 179.743 111.43 179.743C118.657 179.743 121.537 176.799 123.225 174.231C125.519 170.664 126.705 166.492 126.634 162.246L126.514 126.225Z" fill="#2A3647"/>
<path d="M115.214 110.132H93.0559V132.388H115.214V110.132Z" fill="#29ABE2"/>
<path d="M160.279 191.522C160.279 196.265 157.876 198.815 154.518 198.815C151.161 198.815 148.962 195.785 148.962 191.762C148.962 187.739 151.229 184.554 154.706 184.554C158.183 184.554 160.279 187.687 160.279 191.522ZM151.536 191.711C151.536 194.57 152.678 196.675 154.638 196.675C156.598 196.675 157.706 194.45 157.706 191.539C157.706 188.988 156.683 186.592 154.638 186.592C152.592 186.592 151.536 188.903 151.536 191.711Z" fill="#2A3647"/>
<path d="M164.677 184.76V198.593H162.222V184.76H164.677Z" fill="#2A3647"/>
<path d="M167.336 198.593V184.76H170.063L172.994 190.461C173.749 191.952 174.421 193.483 175.006 195.049C174.852 193.337 174.784 191.368 174.784 189.177V184.76H177.034V198.593H174.494L171.529 192.772C170.743 191.243 170.044 189.671 169.432 188.064C169.432 189.776 169.551 191.711 169.551 194.09V198.576L167.336 198.593Z" fill="#2A3647"/>
<path d="M606.409 972V960.364H610.341C611.254 960.364 612 960.528 612.58 960.858C613.163 961.184 613.595 961.625 613.875 962.182C614.155 962.739 614.295 963.36 614.295 964.045C614.295 964.731 614.155 965.354 613.875 965.915C613.598 966.475 613.17 966.922 612.591 967.256C612.011 967.585 611.269 967.75 610.364 967.75H607.545V966.5H610.318C610.943 966.5 611.445 966.392 611.824 966.176C612.203 965.96 612.477 965.669 612.648 965.301C612.822 964.93 612.909 964.511 612.909 964.045C612.909 963.58 612.822 963.163 612.648 962.795C612.477 962.428 612.201 962.14 611.818 961.932C611.436 961.72 610.928 961.614 610.295 961.614H607.818V972H606.409ZM616.384 972V963.273H617.679V964.591H617.77C617.929 964.159 618.217 963.809 618.634 963.54C619.05 963.271 619.52 963.136 620.043 963.136C620.141 963.136 620.264 963.138 620.412 963.142C620.56 963.146 620.671 963.152 620.747 963.159V964.523C620.702 964.511 620.598 964.494 620.435 964.472C620.276 964.445 620.107 964.432 619.929 964.432C619.505 964.432 619.126 964.521 618.793 964.699C618.463 964.873 618.202 965.116 618.009 965.426C617.819 965.733 617.724 966.083 617.724 966.477V972H616.384ZM622.337 972V963.273H623.678V972H622.337ZM623.018 961.818C622.757 961.818 622.532 961.729 622.342 961.551C622.157 961.373 622.064 961.159 622.064 960.909C622.064 960.659 622.157 960.445 622.342 960.267C622.532 960.089 622.757 960 623.018 960C623.28 960 623.503 960.089 623.689 960.267C623.878 960.445 623.973 960.659 623.973 960.909C623.973 961.159 623.878 961.373 623.689 961.551C623.503 961.729 623.28 961.818 623.018 961.818ZM633.27 963.273L630.043 972H628.679L625.452 963.273H626.906L629.315 970.227H629.406L631.815 963.273H633.27ZM637.342 972.205C636.789 972.205 636.287 972.1 635.837 971.892C635.386 971.68 635.028 971.375 634.763 970.977C634.498 970.576 634.365 970.091 634.365 969.523C634.365 969.023 634.464 968.617 634.661 968.307C634.857 967.992 635.121 967.746 635.45 967.568C635.78 967.39 636.143 967.258 636.541 967.17C636.943 967.08 637.346 967.008 637.751 966.955C638.282 966.886 638.712 966.835 639.041 966.801C639.375 966.763 639.617 966.701 639.768 966.614C639.924 966.527 640.001 966.375 640.001 966.159V966.114C640.001 965.553 639.848 965.117 639.541 964.807C639.238 964.496 638.778 964.341 638.161 964.341C637.52 964.341 637.018 964.481 636.655 964.761C636.291 965.042 636.036 965.341 635.888 965.659L634.615 965.205C634.842 964.674 635.145 964.261 635.524 963.966C635.907 963.667 636.323 963.458 636.774 963.341C637.229 963.22 637.676 963.159 638.115 963.159C638.395 963.159 638.717 963.193 639.081 963.261C639.448 963.326 639.803 963.46 640.143 963.665C640.488 963.869 640.774 964.178 641.001 964.591C641.229 965.004 641.342 965.557 641.342 966.25V972H640.001V970.818H639.933C639.842 971.008 639.691 971.21 639.479 971.426C639.267 971.642 638.984 971.826 638.632 971.977C638.28 972.129 637.85 972.205 637.342 972.205ZM637.547 971C638.077 971 638.524 970.896 638.888 970.688C639.255 970.479 639.532 970.21 639.717 969.881C639.907 969.551 640.001 969.205 640.001 968.841V967.614C639.945 967.682 639.82 967.744 639.626 967.801C639.437 967.854 639.217 967.902 638.967 967.943C638.721 967.981 638.481 968.015 638.246 968.045C638.015 968.072 637.827 968.095 637.683 968.114C637.335 968.159 637.009 968.233 636.706 968.335C636.407 968.434 636.164 968.583 635.979 968.784C635.797 968.981 635.706 969.25 635.706 969.591C635.706 970.057 635.878 970.409 636.223 970.648C636.571 970.883 637.013 971 637.547 971ZM647.335 972.182C646.517 972.182 645.813 971.989 645.222 971.602C644.631 971.216 644.176 970.684 643.858 970.006C643.54 969.328 643.381 968.553 643.381 967.682C643.381 966.795 643.544 966.013 643.869 965.335C644.199 964.653 644.657 964.121 645.244 963.739C645.835 963.352 646.525 963.159 647.312 963.159C647.926 963.159 648.479 963.273 648.972 963.5C649.464 963.727 649.867 964.045 650.182 964.455C650.496 964.864 650.691 965.341 650.767 965.886H649.426C649.324 965.489 649.097 965.136 648.744 964.83C648.396 964.519 647.926 964.364 647.335 964.364C646.813 964.364 646.354 964.5 645.96 964.773C645.57 965.042 645.265 965.422 645.045 965.915C644.83 966.403 644.722 966.977 644.722 967.636C644.722 968.311 644.828 968.898 645.04 969.398C645.256 969.898 645.559 970.286 645.949 970.562C646.343 970.839 646.805 970.977 647.335 970.977C647.684 970.977 648 970.917 648.284 970.795C648.568 970.674 648.809 970.5 649.006 970.273C649.203 970.045 649.343 969.773 649.426 969.455H650.767C650.691 969.97 650.504 970.434 650.205 970.847C649.909 971.256 649.517 971.581 649.028 971.824C648.544 972.062 647.979 972.182 647.335 972.182ZM653.591 975.273C653.364 975.273 653.161 975.254 652.983 975.216C652.805 975.182 652.682 975.148 652.614 975.114L652.955 973.932C653.28 974.015 653.568 974.045 653.818 974.023C654.068 974 654.29 973.888 654.483 973.688C654.68 973.491 654.86 973.17 655.023 972.727L655.273 972.045L652.045 963.273H653.5L655.909 970.227H656L658.409 963.273H659.864L656.159 973.273C655.992 973.723 655.786 974.097 655.54 974.392C655.294 974.691 655.008 974.913 654.682 975.057C654.36 975.201 653.996 975.273 653.591 975.273ZM666.315 972V960.364H670.247C671.16 960.364 671.906 960.528 672.486 960.858C673.069 961.184 673.501 961.625 673.781 962.182C674.062 962.739 674.202 963.36 674.202 964.045C674.202 964.731 674.062 965.354 673.781 965.915C673.505 966.475 673.077 966.922 672.497 967.256C671.918 967.585 671.175 967.75 670.27 967.75H667.452V966.5H670.224C670.849 966.5 671.351 966.392 671.73 966.176C672.109 965.96 672.384 965.669 672.554 965.301C672.728 964.93 672.815 964.511 672.815 964.045C672.815 963.58 672.728 963.163 672.554 962.795C672.384 962.428 672.107 962.14 671.724 961.932C671.342 961.72 670.834 961.614 670.202 961.614H667.724V972H666.315ZM679.741 972.182C678.954 972.182 678.262 971.994 677.668 971.619C677.077 971.244 676.615 970.72 676.281 970.045C675.952 969.371 675.787 968.583 675.787 967.682C675.787 966.773 675.952 965.979 676.281 965.301C676.615 964.623 677.077 964.097 677.668 963.722C678.262 963.347 678.954 963.159 679.741 963.159C680.529 963.159 681.219 963.347 681.81 963.722C682.404 964.097 682.866 964.623 683.196 965.301C683.529 965.979 683.696 966.773 683.696 967.682C683.696 968.583 683.529 969.371 683.196 970.045C682.866 970.72 682.404 971.244 681.81 971.619C681.219 971.994 680.529 972.182 679.741 972.182ZM679.741 970.977C680.34 970.977 680.832 970.824 681.219 970.517C681.605 970.21 681.891 969.807 682.077 969.307C682.262 968.807 682.355 968.265 682.355 967.682C682.355 967.098 682.262 966.555 682.077 966.051C681.891 965.547 681.605 965.14 681.219 964.83C680.832 964.519 680.34 964.364 679.741 964.364C679.143 964.364 678.651 964.519 678.264 964.83C677.878 965.14 677.592 965.547 677.406 966.051C677.221 966.555 677.128 967.098 677.128 967.682C677.128 968.265 677.221 968.807 677.406 969.307C677.592 969.807 677.878 970.21 678.264 970.517C678.651 970.824 679.143 970.977 679.741 970.977ZM687.084 960.364V972H685.743V960.364H687.084ZM689.54 972V963.273H690.881V972H689.54ZM690.222 961.818C689.96 961.818 689.735 961.729 689.545 961.551C689.36 961.373 689.267 961.159 689.267 960.909C689.267 960.659 689.36 960.445 689.545 960.267C689.735 960.089 689.96 960 690.222 960C690.483 960 690.706 960.089 690.892 960.267C691.081 960.445 691.176 960.659 691.176 960.909C691.176 961.159 691.081 961.373 690.892 961.551C690.706 961.729 690.483 961.818 690.222 961.818ZM696.882 972.182C696.064 972.182 695.359 971.989 694.768 971.602C694.178 971.216 693.723 970.684 693.405 970.006C693.087 969.328 692.928 968.553 692.928 967.682C692.928 966.795 693.09 966.013 693.416 965.335C693.746 964.653 694.204 964.121 694.791 963.739C695.382 963.352 696.071 963.159 696.859 963.159C697.473 963.159 698.026 963.273 698.518 963.5C699.011 963.727 699.414 964.045 699.729 964.455C700.043 964.864 700.238 965.341 700.314 965.886H698.973C698.871 965.489 698.643 965.136 698.291 964.83C697.943 964.519 697.473 964.364 696.882 964.364C696.359 964.364 695.901 964.5 695.507 964.773C695.117 965.042 694.812 965.422 694.592 965.915C694.376 966.403 694.268 966.977 694.268 967.636C694.268 968.311 694.375 968.898 694.587 969.398C694.803 969.898 695.106 970.286 695.496 970.562C695.89 970.839 696.352 970.977 696.882 970.977C697.231 970.977 697.547 970.917 697.831 970.795C698.115 970.674 698.356 970.5 698.553 970.273C698.75 970.045 698.89 969.773 698.973 969.455H700.314C700.238 969.97 700.051 970.434 699.751 970.847C699.456 971.256 699.064 971.581 698.575 971.824C698.09 972.062 697.526 972.182 696.882 972.182ZM703.138 975.273C702.911 975.273 702.708 975.254 702.53 975.216C702.352 975.182 702.229 975.148 702.161 975.114L702.501 973.932C702.827 974.015 703.115 974.045 703.365 974.023C703.615 974 703.837 973.888 704.03 973.688C704.227 973.491 704.407 973.17 704.57 972.727L704.82 972.045L701.592 963.273H703.047L705.456 970.227H705.547L707.956 963.273H709.411L705.706 973.273C705.539 973.723 705.333 974.097 705.087 974.392C704.84 974.691 704.554 974.913 704.229 975.057C703.907 975.201 703.543 975.273 703.138 975.273Z" fill="#A8A8A8"/>
<path d="M743.409 972V960.364H744.818V970.75H750.227V972H743.409ZM755.886 972.182C755.045 972.182 754.32 971.996 753.71 971.625C753.104 971.25 752.636 970.727 752.307 970.057C751.981 969.383 751.818 968.598 751.818 967.705C751.818 966.811 751.981 966.023 752.307 965.341C752.636 964.655 753.095 964.121 753.682 963.739C754.273 963.352 754.962 963.159 755.75 963.159C756.205 963.159 756.653 963.235 757.097 963.386C757.54 963.538 757.943 963.784 758.307 964.125C758.67 964.462 758.96 964.909 759.176 965.466C759.392 966.023 759.5 966.708 759.5 967.523V968.091H752.773V966.932H758.136C758.136 966.439 758.038 966 757.841 965.614C757.648 965.227 757.371 964.922 757.011 964.699C756.655 964.475 756.235 964.364 755.75 964.364C755.216 964.364 754.754 964.496 754.364 964.761C753.977 965.023 753.68 965.364 753.472 965.784C753.263 966.205 753.159 966.655 753.159 967.136V967.909C753.159 968.568 753.273 969.127 753.5 969.585C753.731 970.04 754.051 970.386 754.46 970.625C754.869 970.86 755.345 970.977 755.886 970.977C756.239 970.977 756.557 970.928 756.841 970.83C757.129 970.727 757.377 970.576 757.585 970.375C757.794 970.17 757.955 969.917 758.068 969.614L759.364 969.977C759.227 970.417 758.998 970.803 758.676 971.136C758.354 971.466 757.956 971.723 757.483 971.909C757.009 972.091 756.477 972.182 755.886 972.182ZM765.062 975.455C764.415 975.455 763.858 975.371 763.392 975.205C762.926 975.042 762.538 974.826 762.227 974.557C761.92 974.292 761.676 974.008 761.494 973.705L762.562 972.955C762.684 973.114 762.837 973.295 763.023 973.5C763.208 973.708 763.462 973.888 763.784 974.04C764.11 974.195 764.536 974.273 765.062 974.273C765.767 974.273 766.348 974.102 766.807 973.761C767.265 973.42 767.494 972.886 767.494 972.159V970.386H767.381C767.282 970.545 767.142 970.742 766.96 970.977C766.782 971.208 766.525 971.415 766.188 971.597C765.854 971.775 765.403 971.864 764.835 971.864C764.131 971.864 763.498 971.697 762.938 971.364C762.381 971.03 761.939 970.545 761.614 969.909C761.292 969.273 761.131 968.5 761.131 967.591C761.131 966.697 761.288 965.919 761.602 965.256C761.917 964.589 762.354 964.074 762.915 963.71C763.475 963.343 764.123 963.159 764.858 963.159C765.426 963.159 765.877 963.254 766.21 963.443C766.547 963.629 766.805 963.841 766.983 964.08C767.165 964.314 767.305 964.508 767.403 964.659H767.54V963.273H768.835V972.25C768.835 973 768.665 973.61 768.324 974.08C767.987 974.553 767.532 974.9 766.96 975.119C766.392 975.343 765.759 975.455 765.062 975.455ZM765.017 970.659C765.555 970.659 766.009 970.536 766.381 970.29C766.752 970.044 767.034 969.689 767.227 969.227C767.42 968.765 767.517 968.212 767.517 967.568C767.517 966.939 767.422 966.384 767.233 965.903C767.044 965.422 766.763 965.045 766.392 964.773C766.021 964.5 765.563 964.364 765.017 964.364C764.449 964.364 763.975 964.508 763.597 964.795C763.222 965.083 762.939 965.47 762.75 965.955C762.564 966.439 762.472 966.977 762.472 967.568C762.472 968.174 762.566 968.71 762.756 969.176C762.949 969.638 763.233 970.002 763.608 970.267C763.987 970.528 764.456 970.659 765.017 970.659ZM773.858 972.205C773.305 972.205 772.803 972.1 772.352 971.892C771.902 971.68 771.544 971.375 771.278 970.977C771.013 970.576 770.881 970.091 770.881 969.523C770.881 969.023 770.979 968.617 771.176 968.307C771.373 967.992 771.636 967.746 771.966 967.568C772.295 967.39 772.659 967.258 773.057 967.17C773.458 967.08 773.862 967.008 774.267 966.955C774.797 966.886 775.227 966.835 775.557 966.801C775.89 966.763 776.133 966.701 776.284 966.614C776.439 966.527 776.517 966.375 776.517 966.159V966.114C776.517 965.553 776.364 965.117 776.057 964.807C775.754 964.496 775.294 964.341 774.676 964.341C774.036 964.341 773.534 964.481 773.17 964.761C772.807 965.042 772.551 965.341 772.403 965.659L771.131 965.205C771.358 964.674 771.661 964.261 772.04 963.966C772.422 963.667 772.839 963.458 773.29 963.341C773.744 963.22 774.191 963.159 774.631 963.159C774.911 963.159 775.233 963.193 775.597 963.261C775.964 963.326 776.318 963.46 776.659 963.665C777.004 963.869 777.29 964.178 777.517 964.591C777.744 965.004 777.858 965.557 777.858 966.25V972H776.517V970.818H776.449C776.358 971.008 776.206 971.21 775.994 971.426C775.782 971.642 775.5 971.826 775.148 971.977C774.795 972.129 774.366 972.205 773.858 972.205ZM774.062 971C774.593 971 775.04 970.896 775.403 970.688C775.771 970.479 776.047 970.21 776.233 969.881C776.422 969.551 776.517 969.205 776.517 968.841V967.614C776.46 967.682 776.335 967.744 776.142 967.801C775.953 967.854 775.733 967.902 775.483 967.943C775.237 967.981 774.996 968.015 774.761 968.045C774.53 968.072 774.343 968.095 774.199 968.114C773.85 968.159 773.525 968.233 773.222 968.335C772.922 968.434 772.68 968.583 772.494 968.784C772.313 968.981 772.222 969.25 772.222 969.591C772.222 970.057 772.394 970.409 772.739 970.648C773.087 970.883 773.528 971 774.062 971ZM781.646 960.364V972H780.305V960.364H781.646ZM789.943 966.75V972H788.602V963.273H789.898V964.636H790.011C790.216 964.193 790.527 963.837 790.943 963.568C791.36 963.295 791.898 963.159 792.557 963.159C793.148 963.159 793.665 963.28 794.108 963.523C794.551 963.761 794.896 964.125 795.142 964.614C795.388 965.098 795.511 965.712 795.511 966.455V972H794.17V966.545C794.17 965.86 793.992 965.326 793.636 964.943C793.28 964.557 792.792 964.364 792.17 964.364C791.742 964.364 791.36 964.456 791.023 964.642C790.689 964.828 790.426 965.098 790.233 965.455C790.04 965.811 789.943 966.242 789.943 966.75ZM801.507 972.182C800.719 972.182 800.028 971.994 799.433 971.619C798.842 971.244 798.38 970.72 798.047 970.045C797.717 969.371 797.553 968.583 797.553 967.682C797.553 966.773 797.717 965.979 798.047 965.301C798.38 964.623 798.842 964.097 799.433 963.722C800.028 963.347 800.719 963.159 801.507 963.159C802.295 963.159 802.984 963.347 803.575 963.722C804.17 964.097 804.632 964.623 804.962 965.301C805.295 965.979 805.462 966.773 805.462 967.682C805.462 968.583 805.295 969.371 804.962 970.045C804.632 970.72 804.17 971.244 803.575 971.619C802.984 971.994 802.295 972.182 801.507 972.182ZM801.507 970.977C802.106 970.977 802.598 970.824 802.984 970.517C803.371 970.21 803.657 969.807 803.842 969.307C804.028 968.807 804.121 968.265 804.121 967.682C804.121 967.098 804.028 966.555 803.842 966.051C803.657 965.547 803.371 965.14 802.984 964.83C802.598 964.519 802.106 964.364 801.507 964.364C800.909 964.364 800.416 964.519 800.03 964.83C799.643 965.14 799.357 965.547 799.172 966.051C798.986 966.555 798.893 967.098 798.893 967.682C798.893 968.265 798.986 968.807 799.172 969.307C799.357 969.807 799.643 970.21 800.03 970.517C800.416 970.824 800.909 970.977 801.507 970.977ZM811.304 963.273V964.409H806.781V963.273H811.304ZM808.099 961.182H809.44V969.5C809.44 969.879 809.495 970.163 809.605 970.352C809.719 970.538 809.863 970.663 810.037 970.727C810.215 970.788 810.402 970.818 810.599 970.818C810.747 970.818 810.868 970.811 810.963 970.795C811.058 970.777 811.134 970.761 811.19 970.75L811.463 971.955C811.372 971.989 811.245 972.023 811.082 972.057C810.92 972.095 810.713 972.114 810.463 972.114C810.084 972.114 809.713 972.032 809.349 971.869C808.99 971.706 808.69 971.458 808.452 971.125C808.217 970.792 808.099 970.371 808.099 969.864V961.182ZM813.321 972V963.273H814.662V972H813.321ZM814.003 961.818C813.741 961.818 813.516 961.729 813.327 961.551C813.141 961.373 813.048 961.159 813.048 960.909C813.048 960.659 813.141 960.445 813.327 960.267C813.516 960.089 813.741 960 814.003 960C814.264 960 814.488 960.089 814.673 960.267C814.863 960.445 814.957 960.659 814.957 960.909C814.957 961.159 814.863 961.373 814.673 961.551C814.488 961.729 814.264 961.818 814.003 961.818ZM820.663 972.182C819.845 972.182 819.141 971.989 818.55 971.602C817.959 971.216 817.504 970.684 817.186 970.006C816.868 969.328 816.709 968.553 816.709 967.682C816.709 966.795 816.872 966.013 817.197 965.335C817.527 964.653 817.985 964.121 818.572 963.739C819.163 963.352 819.853 963.159 820.641 963.159C821.254 963.159 821.807 963.273 822.3 963.5C822.792 963.727 823.196 964.045 823.51 964.455C823.824 964.864 824.019 965.341 824.095 965.886H822.754C822.652 965.489 822.425 965.136 822.072 964.83C821.724 964.519 821.254 964.364 820.663 964.364C820.141 964.364 819.682 964.5 819.288 964.773C818.898 965.042 818.593 965.422 818.374 965.915C818.158 966.403 818.05 966.977 818.05 967.636C818.05 968.311 818.156 968.898 818.368 969.398C818.584 969.898 818.887 970.286 819.277 970.562C819.671 970.839 820.133 970.977 820.663 970.977C821.012 970.977 821.328 970.917 821.612 970.795C821.896 970.674 822.137 970.5 822.334 970.273C822.531 970.045 822.671 969.773 822.754 969.455H824.095C824.019 969.97 823.832 970.434 823.533 970.847C823.237 971.256 822.845 971.581 822.357 971.824C821.872 972.062 821.307 972.182 820.663 972.182ZM829.714 972.182C828.874 972.182 828.148 971.996 827.538 971.625C826.932 971.25 826.464 970.727 826.135 970.057C825.809 969.383 825.646 968.598 825.646 967.705C825.646 966.811 825.809 966.023 826.135 965.341C826.464 964.655 826.923 964.121 827.51 963.739C828.101 963.352 828.79 963.159 829.578 963.159C830.033 963.159 830.482 963.235 830.925 963.386C831.368 963.538 831.771 963.784 832.135 964.125C832.499 964.462 832.788 964.909 833.004 965.466C833.22 966.023 833.328 966.708 833.328 967.523V968.091H826.601V966.932H831.964C831.964 966.439 831.866 966 831.669 965.614C831.476 965.227 831.199 964.922 830.839 964.699C830.483 964.475 830.063 964.364 829.578 964.364C829.044 964.364 828.582 964.496 828.192 964.761C827.805 965.023 827.508 965.364 827.3 965.784C827.091 966.205 826.987 966.655 826.987 967.136V967.909C826.987 968.568 827.101 969.127 827.328 969.585C827.559 970.04 827.879 970.386 828.288 970.625C828.697 970.86 829.173 970.977 829.714 970.977C830.067 970.977 830.385 970.928 830.669 970.83C830.957 970.727 831.205 970.576 831.413 970.375C831.622 970.17 831.783 969.917 831.896 969.614L833.192 969.977C833.055 970.417 832.826 970.803 832.504 971.136C832.182 971.466 831.785 971.723 831.311 971.909C830.838 972.091 830.305 972.182 829.714 972.182Z" fill="#A8A8A8"/>
<defs>
<filter id="filter0_d_423_2510" x="404" y="180" width="632" height="664" filterUnits="userSpaceOnUse" color-interpolation-filters="sRGB">
<feFlood flood-opacity="0" result="BackgroundImageFix"/>
<feColorMatrix in="SourceAlpha" type="matrix" values="0 0 0 0 0 0 0 0 0 0 0 0 0 0 0 0 0 0 127 0" result="hardAlpha"/>
<feMorphology radius="3" operator="dilate" in="SourceAlpha" result="effect1_dropShadow_423_2510"/>
<feOffset/>
<feGaussianBlur stdDeviation="7"/>
<feComposite in2="hardAlpha" operator="out"/>
<feColorMatrix type="matrix" values="0 0 0 0 0 0 0 0 0 0 0 0 0 0 0 0 0 0 0.04 0"/>
<feBlend mode="normal" in2="BackgroundImageFix" result="effect1_dropShadow_423_2510"/>
<feBlend mode="normal" in="SourceGraphic" in2="effect1_dropShadow_423_2510" result="shape"/>
</filter>
<clipPath id="clip0_423_2510">
<rect width="32" height="32" fill="white" transform="translate(469 261)"/>
</clipPath>
</defs>
</svg>
