<svg width="176" height="176" viewBox="0 0 176 176" fill="none" xmlns="http://www.w3.org/2000/svg">
<g filter="url(#filter0_d_86105_6087)">
<rect x="4" y="4" width="168" height="168" rx="30" fill="white"/>
<path d="M72.2614 86.5V80.4091L88.4205 64.5682C89.9659 63.0076 91.2538 61.6212 92.2841 60.4091C93.3144 59.197 94.0871 58.0227 94.6023 56.8864C95.1174 55.75 95.375 54.5379 95.375 53.25C95.375 51.7803 95.0417 50.5227 94.375 49.4773C93.7083 48.4167 92.7917 47.5985 91.625 47.0227C90.4583 46.447 89.1326 46.1591 87.6477 46.1591C86.1174 46.1591 84.7765 46.4773 83.625 47.1136C82.4735 47.7348 81.5795 48.6212 80.9432 49.7727C80.322 50.9242 80.0114 52.2955 80.0114 53.8864H71.9886C71.9886 50.9318 72.6629 48.3636 74.0114 46.1818C75.3598 44 77.2159 42.3106 79.5795 41.1136C81.9583 39.9167 84.6856 39.3182 87.7614 39.3182C90.8826 39.3182 93.625 39.9015 95.9886 41.0682C98.3523 42.2348 100.186 43.8333 101.489 45.8636C102.807 47.8939 103.466 50.2121 103.466 52.8182C103.466 54.5606 103.133 56.2727 102.466 57.9545C101.799 59.6364 100.625 61.5 98.9432 63.5455C97.2765 65.5909 94.9356 68.0682 91.9205 70.9773L83.8977 79.1364V79.4545H104.17V86.5H72.2614Z" fill="black"/>
<path d="M55.4131 122.5H53.6597V109.047H48.9429V107.509H60.1094V109.047H55.4131V122.5ZM66.3232 111.077C67.6631 111.077 68.6577 111.378 69.3071 111.979C69.9565 112.581 70.2812 113.542 70.2812 114.861V122.5H69.0405L68.7124 120.839H68.6304C68.3159 121.249 67.9878 121.594 67.646 121.875C67.3042 122.148 66.9077 122.356 66.4565 122.5C66.0122 122.637 65.4653 122.705 64.8159 122.705C64.1323 122.705 63.5239 122.585 62.9907 122.346C62.4644 122.107 62.0474 121.745 61.7397 121.259C61.439 120.774 61.2886 120.159 61.2886 119.414C61.2886 118.292 61.7329 117.431 62.6216 116.83C63.5103 116.228 64.8638 115.9 66.6821 115.845L68.6201 115.763V115.076C68.6201 114.105 68.4116 113.425 67.9946 113.036C67.5776 112.646 66.9897 112.451 66.231 112.451C65.6431 112.451 65.0825 112.537 64.5493 112.708C64.0161 112.878 63.5103 113.08 63.0317 113.312L62.5088 112.021C63.0146 111.761 63.5957 111.539 64.252 111.354C64.9082 111.169 65.5986 111.077 66.3232 111.077ZM68.5996 116.963L66.8872 117.035C65.4858 117.089 64.498 117.318 63.9238 117.722C63.3496 118.125 63.0625 118.696 63.0625 119.434C63.0625 120.077 63.2573 120.552 63.647 120.859C64.0366 121.167 64.5527 121.321 65.1953 121.321C66.1934 121.321 67.0103 121.044 67.646 120.49C68.2817 119.937 68.5996 119.106 68.5996 117.999V116.963ZM81.0581 119.424C81.0581 120.142 80.877 120.747 80.5146 121.239C80.1592 121.724 79.6465 122.09 78.9766 122.336C78.3135 122.582 77.5205 122.705 76.5977 122.705C75.8115 122.705 75.1313 122.644 74.5571 122.521C73.9829 122.397 73.4805 122.223 73.0498 121.998V120.429C73.5078 120.654 74.0547 120.859 74.6904 121.044C75.3262 121.229 75.9756 121.321 76.6387 121.321C77.6094 121.321 78.3135 121.164 78.751 120.849C79.1885 120.535 79.4072 120.107 79.4072 119.567C79.4072 119.26 79.3184 118.99 79.1406 118.757C78.9697 118.518 78.6792 118.289 78.269 118.07C77.8589 117.845 77.2915 117.599 76.5669 117.332C75.8491 117.059 75.2271 116.789 74.7007 116.522C74.1812 116.249 73.7778 115.917 73.4907 115.527C73.2104 115.138 73.0703 114.632 73.0703 114.01C73.0703 113.06 73.4531 112.332 74.2188 111.826C74.9912 111.313 76.0029 111.057 77.2539 111.057C77.9307 111.057 78.563 111.125 79.1509 111.262C79.7456 111.392 80.2993 111.569 80.812 111.795L80.2378 113.159C79.7729 112.96 79.2773 112.793 78.751 112.656C78.2246 112.52 77.688 112.451 77.1411 112.451C76.355 112.451 75.75 112.581 75.3262 112.841C74.9092 113.101 74.7007 113.456 74.7007 113.907C74.7007 114.256 74.7964 114.543 74.9878 114.769C75.186 114.994 75.5005 115.206 75.9312 115.404C76.3618 115.603 76.9292 115.835 77.6333 116.102C78.3374 116.361 78.9458 116.631 79.4585 116.912C79.9712 117.185 80.3643 117.52 80.6377 117.917C80.918 118.306 81.0581 118.809 81.0581 119.424ZM85.4878 106.545V114.83C85.4878 115.104 85.4775 115.438 85.457 115.835C85.4365 116.225 85.4194 116.57 85.4058 116.871H85.4775C85.6211 116.693 85.8296 116.43 86.103 116.081C86.3833 115.732 86.6191 115.452 86.8105 115.24L90.543 111.262H92.5425L88.0205 116.061L92.8706 122.5H90.8198L86.8516 117.178L85.4878 118.429V122.5H83.7959V106.545H85.4878ZM102.099 119.424C102.099 120.142 101.918 120.747 101.556 121.239C101.2 121.724 100.688 122.09 100.018 122.336C99.3545 122.582 98.5615 122.705 97.6387 122.705C96.8525 122.705 96.1724 122.644 95.5981 122.521C95.0239 122.397 94.5215 122.223 94.0908 121.998V120.429C94.5488 120.654 95.0957 120.859 95.7314 121.044C96.3672 121.229 97.0166 121.321 97.6797 121.321C98.6504 121.321 99.3545 121.164 99.792 120.849C100.229 120.535 100.448 120.107 100.448 119.567C100.448 119.26 100.359 118.99 100.182 118.757C100.011 118.518 99.7202 118.289 99.3101 118.07C98.8999 117.845 98.3325 117.599 97.6079 117.332C96.8901 117.059 96.2681 116.789 95.7417 116.522C95.2222 116.249 94.8188 115.917 94.5317 115.527C94.2515 115.138 94.1113 114.632 94.1113 114.01C94.1113 113.06 94.4941 112.332 95.2598 111.826C96.0322 111.313 97.0439 111.057 98.2949 111.057C98.9717 111.057 99.604 111.125 100.192 111.262C100.787 111.392 101.34 111.569 101.853 111.795L101.279 113.159C100.814 112.96 100.318 112.793 99.792 112.656C99.2656 112.52 98.729 112.451 98.1821 112.451C97.396 112.451 96.791 112.581 96.3672 112.841C95.9502 113.101 95.7417 113.456 95.7417 113.907C95.7417 114.256 95.8374 114.543 96.0288 114.769C96.2271 114.994 96.5415 115.206 96.9722 115.404C97.4028 115.603 97.9702 115.835 98.6743 116.102C99.3784 116.361 99.9868 116.631 100.5 116.912C101.012 117.185 101.405 117.52 101.679 117.917C101.959 118.306 102.099 118.809 102.099 119.424ZM110.548 122.5V107.509H112.292V122.5H110.548ZM121.479 111.057C122.812 111.057 123.82 111.385 124.504 112.041C125.188 112.69 125.529 113.736 125.529 115.179V122.5H123.848V115.292C123.848 114.355 123.632 113.654 123.202 113.189C122.778 112.725 122.125 112.492 121.243 112.492C119.999 112.492 119.124 112.844 118.618 113.548C118.112 114.252 117.859 115.274 117.859 116.614V122.5H116.157V111.262H117.531L117.788 112.882H117.88C118.119 112.485 118.423 112.154 118.792 111.887C119.162 111.614 119.575 111.409 120.033 111.272C120.491 111.128 120.973 111.057 121.479 111.057ZM51.1372 132.509C53.0718 132.509 54.4834 132.888 55.3721 133.647C56.2676 134.399 56.7153 135.479 56.7153 136.887C56.7153 137.523 56.6094 138.128 56.3975 138.702C56.1924 139.27 55.8574 139.772 55.3926 140.209C54.9277 140.64 54.3159 140.982 53.5571 141.235C52.8052 141.481 51.8823 141.604 50.7886 141.604H48.9634V147.5H47.2202V132.509H51.1372ZM50.9731 133.996H48.9634V140.107H50.5938C51.5508 140.107 52.3472 140.004 52.9829 139.799C53.6255 139.594 54.1074 139.263 54.4287 138.805C54.75 138.34 54.9106 137.725 54.9106 136.959C54.9106 135.961 54.5928 135.219 53.957 134.734C53.3213 134.242 52.3267 133.996 50.9731 133.996ZM64.7031 136.057C64.9287 136.057 65.1646 136.07 65.4106 136.098C65.6567 136.118 65.8755 136.149 66.0669 136.19L65.8516 137.769C65.667 137.721 65.4619 137.684 65.2363 137.656C65.0107 137.629 64.7988 137.615 64.6006 137.615C64.1494 137.615 63.7222 137.708 63.3188 137.892C62.9224 138.07 62.5737 138.33 62.2729 138.671C61.9722 139.006 61.7363 139.413 61.5654 139.892C61.3945 140.363 61.3091 140.89 61.3091 141.471V147.5H59.5967V136.262H61.0117L61.1963 138.333H61.2681C61.5005 137.916 61.7808 137.537 62.1089 137.195C62.437 136.846 62.8164 136.569 63.2471 136.364C63.6846 136.159 64.1699 136.057 64.7031 136.057ZM77.8794 141.86C77.8794 142.783 77.7598 143.607 77.5205 144.332C77.2812 145.056 76.936 145.668 76.4849 146.167C76.0337 146.666 75.4868 147.049 74.8442 147.315C74.2085 147.575 73.4873 147.705 72.6807 147.705C71.9287 147.705 71.2383 147.575 70.6094 147.315C69.9873 147.049 69.4473 146.666 68.9893 146.167C68.5381 145.668 68.186 145.056 67.9331 144.332C67.687 143.607 67.564 142.783 67.564 141.86C67.564 140.63 67.7725 139.584 68.1895 138.723C68.6064 137.854 69.2012 137.195 69.9736 136.744C70.7529 136.286 71.6792 136.057 72.7524 136.057C73.7778 136.057 74.6733 136.286 75.439 136.744C76.2114 137.202 76.8096 137.865 77.2334 138.733C77.6641 139.594 77.8794 140.637 77.8794 141.86ZM69.3276 141.86C69.3276 142.763 69.4473 143.545 69.6865 144.208C69.9258 144.872 70.2949 145.384 70.7939 145.747C71.293 146.109 71.9355 146.29 72.7217 146.29C73.501 146.29 74.1401 146.109 74.6392 145.747C75.145 145.384 75.5176 144.872 75.7568 144.208C75.9961 143.545 76.1157 142.763 76.1157 141.86C76.1157 140.965 75.9961 140.192 75.7568 139.543C75.5176 138.887 75.1484 138.381 74.6494 138.025C74.1504 137.67 73.5044 137.492 72.7114 137.492C71.5425 137.492 70.6846 137.878 70.1377 138.651C69.5977 139.423 69.3276 140.493 69.3276 141.86ZM83.96 152.545C82.4834 152.545 81.3452 152.268 80.5454 151.714C79.7456 151.167 79.3457 150.398 79.3457 149.407C79.3457 148.703 79.5679 148.102 80.0122 147.603C80.4634 147.104 81.0854 146.772 81.8784 146.608C81.5845 146.471 81.3315 146.266 81.1196 145.993C80.9146 145.719 80.812 145.405 80.812 145.049C80.812 144.639 80.9248 144.28 81.1504 143.973C81.3828 143.658 81.7349 143.357 82.2065 143.07C81.6187 142.831 81.1401 142.428 80.771 141.86C80.4087 141.286 80.2275 140.62 80.2275 139.861C80.2275 139.054 80.395 138.367 80.73 137.8C81.0649 137.226 81.5503 136.788 82.186 136.487C82.8218 136.187 83.5908 136.036 84.4932 136.036C84.6914 136.036 84.8896 136.046 85.0879 136.067C85.293 136.081 85.4878 136.104 85.6724 136.139C85.8569 136.166 86.0176 136.2 86.1543 136.241H90.0098V137.338L87.9385 137.595C88.1436 137.861 88.3145 138.183 88.4512 138.559C88.5879 138.935 88.6562 139.352 88.6562 139.81C88.6562 140.931 88.2769 141.823 87.5181 142.486C86.7593 143.142 85.7168 143.47 84.3906 143.47C84.0762 143.47 83.7549 143.443 83.4268 143.388C83.0918 143.573 82.8354 143.778 82.6577 144.003C82.4868 144.229 82.4014 144.489 82.4014 144.783C82.4014 145.001 82.4663 145.176 82.5962 145.306C82.7329 145.436 82.9277 145.531 83.1807 145.593C83.4336 145.647 83.7378 145.675 84.0933 145.675H86.0723C87.2959 145.675 88.2324 145.931 88.8818 146.444C89.5381 146.957 89.8662 147.705 89.8662 148.689C89.8662 149.934 89.3604 150.887 88.3486 151.55C87.3369 152.213 85.874 152.545 83.96 152.545ZM84.0112 151.212C84.9409 151.212 85.71 151.116 86.3184 150.925C86.9336 150.74 87.3916 150.47 87.6924 150.115C88 149.766 88.1538 149.349 88.1538 148.864C88.1538 148.413 88.0513 148.071 87.8462 147.838C87.6411 147.613 87.3403 147.462 86.9438 147.387C86.5474 147.305 86.062 147.264 85.4878 147.264H83.5396C83.0337 147.264 82.5928 147.343 82.2168 147.5C81.8408 147.657 81.5503 147.89 81.3452 148.197C81.147 148.505 81.0479 148.888 81.0479 149.346C81.0479 149.954 81.3042 150.416 81.8169 150.73C82.3296 151.051 83.061 151.212 84.0112 151.212ZM84.4521 142.229C85.2656 142.229 85.8774 142.024 86.2876 141.614C86.6978 141.204 86.9028 140.606 86.9028 139.82C86.9028 138.979 86.6943 138.35 86.2773 137.933C85.8604 137.509 85.2451 137.297 84.4316 137.297C83.6523 137.297 83.0508 137.516 82.627 137.954C82.21 138.384 82.0015 139.017 82.0015 139.851C82.0015 140.616 82.2134 141.204 82.6372 141.614C83.061 142.024 83.666 142.229 84.4521 142.229ZM97.3311 136.057C97.5566 136.057 97.7925 136.07 98.0386 136.098C98.2847 136.118 98.5034 136.149 98.6948 136.19L98.4795 137.769C98.2949 137.721 98.0898 137.684 97.8643 137.656C97.6387 137.629 97.4268 137.615 97.2285 137.615C96.7773 137.615 96.3501 137.708 95.9468 137.892C95.5503 138.07 95.2017 138.33 94.9009 138.671C94.6001 139.006 94.3643 139.413 94.1934 139.892C94.0225 140.363 93.937 140.89 93.937 141.471V147.5H92.2246V136.262H93.6396L93.8242 138.333H93.896C94.1284 137.916 94.4087 137.537 94.7368 137.195C95.0649 136.846 95.4443 136.569 95.875 136.364C96.3125 136.159 96.7979 136.057 97.3311 136.057ZM105.145 136.057C106.102 136.057 106.922 136.269 107.605 136.692C108.289 137.116 108.812 137.711 109.174 138.477C109.537 139.235 109.718 140.124 109.718 141.143V142.199H101.956C101.976 143.518 102.304 144.523 102.94 145.213C103.576 145.904 104.471 146.249 105.626 146.249C106.337 146.249 106.966 146.184 107.513 146.054C108.06 145.924 108.627 145.733 109.215 145.48V146.977C108.648 147.23 108.084 147.415 107.523 147.531C106.97 147.647 106.313 147.705 105.555 147.705C104.475 147.705 103.531 147.486 102.725 147.049C101.925 146.604 101.303 145.955 100.858 145.101C100.414 144.246 100.192 143.2 100.192 141.963C100.192 140.753 100.394 139.707 100.797 138.825C101.207 137.937 101.781 137.253 102.52 136.774C103.265 136.296 104.14 136.057 105.145 136.057ZM105.124 137.451C104.215 137.451 103.49 137.749 102.95 138.343C102.41 138.938 102.089 139.769 101.986 140.835H107.934C107.927 140.165 107.821 139.577 107.616 139.071C107.417 138.559 107.113 138.162 106.703 137.882C106.293 137.595 105.767 137.451 105.124 137.451ZM119.879 144.424C119.879 145.142 119.698 145.747 119.336 146.239C118.98 146.724 118.468 147.09 117.798 147.336C117.135 147.582 116.342 147.705 115.419 147.705C114.633 147.705 113.953 147.644 113.378 147.521C112.804 147.397 112.302 147.223 111.871 146.998V145.429C112.329 145.654 112.876 145.859 113.512 146.044C114.147 146.229 114.797 146.321 115.46 146.321C116.431 146.321 117.135 146.164 117.572 145.849C118.01 145.535 118.229 145.107 118.229 144.567C118.229 144.26 118.14 143.99 117.962 143.757C117.791 143.518 117.5 143.289 117.09 143.07C116.68 142.845 116.113 142.599 115.388 142.332C114.67 142.059 114.048 141.789 113.522 141.522C113.002 141.249 112.599 140.917 112.312 140.527C112.032 140.138 111.892 139.632 111.892 139.01C111.892 138.06 112.274 137.332 113.04 136.826C113.812 136.313 114.824 136.057 116.075 136.057C116.752 136.057 117.384 136.125 117.972 136.262C118.567 136.392 119.121 136.569 119.633 136.795L119.059 138.159C118.594 137.96 118.099 137.793 117.572 137.656C117.046 137.52 116.509 137.451 115.962 137.451C115.176 137.451 114.571 137.581 114.147 137.841C113.73 138.101 113.522 138.456 113.522 138.907C113.522 139.256 113.618 139.543 113.809 139.769C114.007 139.994 114.322 140.206 114.752 140.404C115.183 140.603 115.75 140.835 116.455 141.102C117.159 141.361 117.767 141.631 118.28 141.912C118.792 142.185 119.186 142.52 119.459 142.917C119.739 143.306 119.879 143.809 119.879 144.424ZM129.887 144.424C129.887 145.142 129.706 145.747 129.344 146.239C128.988 146.724 128.476 147.09 127.806 147.336C127.143 147.582 126.35 147.705 125.427 147.705C124.641 147.705 123.96 147.644 123.386 147.521C122.812 147.397 122.31 147.223 121.879 146.998V145.429C122.337 145.654 122.884 145.859 123.52 146.044C124.155 146.229 124.805 146.321 125.468 146.321C126.438 146.321 127.143 146.164 127.58 145.849C128.018 145.535 128.236 145.107 128.236 144.567C128.236 144.26 128.147 143.99 127.97 143.757C127.799 143.518 127.508 143.289 127.098 143.07C126.688 142.845 126.121 142.599 125.396 142.332C124.678 142.059 124.056 141.789 123.53 141.522C123.01 141.249 122.607 140.917 122.32 140.527C122.04 140.138 121.899 139.632 121.899 139.01C121.899 138.06 122.282 137.332 123.048 136.826C123.82 136.313 124.832 136.057 126.083 136.057C126.76 136.057 127.392 136.125 127.98 136.262C128.575 136.392 129.128 136.569 129.641 136.795L129.067 138.159C128.602 137.96 128.106 137.793 127.58 137.656C127.054 137.52 126.517 137.451 125.97 137.451C125.184 137.451 124.579 137.581 124.155 137.841C123.738 138.101 123.53 138.456 123.53 138.907C123.53 139.256 123.625 139.543 123.817 139.769C124.015 139.994 124.33 140.206 124.76 140.404C125.191 140.603 125.758 140.835 126.462 141.102C127.167 141.361 127.775 141.631 128.288 141.912C128.8 142.185 129.193 142.52 129.467 142.917C129.747 143.306 129.887 143.809 129.887 144.424Z" fill="#2A3647"/>
</g>
<defs>
<filter id="filter0_d_86105_6087" x="0" y="0" width="176" height="176" filterUnits="userSpaceOnUse" color-interpolation-filters="sRGB">
<feFlood flood-opacity="0" result="BackgroundImageFix"/>
<feColorMatrix in="SourceAlpha" type="matrix" values="0 0 0 0 0 0 0 0 0 0 0 0 0 0 0 0 0 0 127 0" result="hardAlpha"/>
<feOffset/>
<feGaussianBlur stdDeviation="2"/>
<feColorMatrix type="matrix" values="0 0 0 0 0 0 0 0 0 0 0 0 0 0 0 0 0 0 0.1 0"/>
<feBlend mode="normal" in2="BackgroundImageFix" result="effect1_dropShadow_86105_6087"/>
<feBlend mode="normal" in="SourceGraphic" in2="effect1_dropShadow_86105_6087" result="shape"/>
</filter>
</defs>
</svg>
