<svg width="176" height="176" viewBox="0 0 176 176" fill="none" xmlns="http://www.w3.org/2000/svg">
<g filter="url(#filter0_d_86105_6088)">
<rect x="4" y="4" width="168" height="168" rx="30" fill="white"/>
<path d="M72.2614 87.5V81.4091L88.4205 65.5682C89.9659 64.0076 91.2538 62.6212 92.2841 61.4091C93.3144 60.197 94.0871 59.0227 94.6023 57.8864C95.1174 56.75 95.375 55.5379 95.375 54.25C95.375 52.7803 95.0417 51.5227 94.375 50.4773C93.7083 49.4167 92.7917 48.5985 91.625 48.0227C90.4583 47.447 89.1326 47.1591 87.6477 47.1591C86.1174 47.1591 84.7765 47.4773 83.625 48.1136C82.4735 48.7348 81.5795 49.6212 80.9432 50.7727C80.322 51.9242 80.0114 53.2955 80.0114 54.8864H71.9886C71.9886 51.9318 72.6629 49.3636 74.0114 47.1818C75.3598 45 77.2159 43.3106 79.5795 42.1136C81.9583 40.9167 84.6856 40.3182 87.7614 40.3182C90.8826 40.3182 93.625 40.9015 95.9886 42.0682C98.3523 43.2348 100.186 44.8333 101.489 46.8636C102.807 48.8939 103.466 51.2121 103.466 53.8182C103.466 55.5606 103.133 57.2727 102.466 58.9545C101.799 60.6364 100.625 62.5 98.9432 64.5455C97.2765 66.5909 94.9356 69.0682 91.9205 71.9773L83.8977 80.1364V80.4545H104.17V87.5H72.2614Z" fill="black"/>
<path d="M43.858 121.5H42.0114L47.3523 106.955H49.1705L54.5114 121.5H52.6648L48.3182 109.256H48.2045L43.858 121.5ZM44.5398 115.818H51.983V117.381H44.5398V115.818ZM57.6541 121.5L54.3303 110.591H56.0916L58.4496 118.943H58.5632L60.8928 110.591H62.6825L64.9837 118.915H65.0973L67.4553 110.591H69.2166L65.8928 121.5H64.245L61.8587 113.119H61.6882L59.3018 121.5H57.6541ZM74.6428 121.756C73.9515 121.756 73.3241 121.625 72.7607 121.365C72.1972 121.1 71.7498 120.719 71.4183 120.222C71.0869 119.72 70.9212 119.114 70.9212 118.403C70.9212 117.778 71.0443 117.272 71.2905 116.884C71.5367 116.491 71.8658 116.183 72.2777 115.96C72.6896 115.738 73.1442 115.572 73.6413 115.463C74.1432 115.349 74.6475 115.259 75.1541 115.193C75.817 115.108 76.3544 115.044 76.7663 115.001C77.183 114.954 77.486 114.876 77.6754 114.767C77.8696 114.658 77.9666 114.469 77.9666 114.199V114.142C77.9666 113.441 77.7749 112.897 77.3913 112.509C77.0125 112.12 76.4373 111.926 75.6655 111.926C74.8653 111.926 74.2379 112.101 73.7834 112.452C73.3288 112.802 73.0092 113.176 72.8246 113.574L71.2337 113.006C71.5178 112.343 71.8965 111.827 72.37 111.457C72.8482 111.083 73.3691 110.823 73.9325 110.676C74.5007 110.525 75.0594 110.449 75.6087 110.449C75.959 110.449 76.3615 110.491 76.8161 110.577C77.2753 110.657 77.718 110.825 78.1442 111.081C78.575 111.337 78.9325 111.723 79.2166 112.239C79.5007 112.755 79.6428 113.446 79.6428 114.312V121.5H77.9666V120.023H77.8814C77.7678 120.259 77.5784 120.513 77.3132 120.783C77.0481 121.053 76.6953 121.282 76.255 121.472C75.8146 121.661 75.2772 121.756 74.6428 121.756ZM74.8984 120.25C75.5613 120.25 76.12 120.12 76.5746 119.859C77.0339 119.599 77.3795 119.263 77.6115 118.851C77.8482 118.439 77.9666 118.006 77.9666 117.551V116.017C77.8956 116.102 77.7393 116.18 77.4979 116.251C77.2611 116.318 76.9865 116.377 76.674 116.429C76.3662 116.476 76.0656 116.519 75.772 116.557C75.4832 116.59 75.2488 116.618 75.0689 116.642C74.6333 116.699 74.2261 116.791 73.8473 116.919C73.4732 117.042 73.1702 117.229 72.9382 117.48C72.7109 117.726 72.5973 118.062 72.5973 118.489C72.5973 119.071 72.8127 119.511 73.2436 119.81C73.6792 120.103 74.2308 120.25 74.8984 120.25ZM82.7021 121.5V110.591H84.3782V121.5H82.7021ZM83.5543 108.773C83.2276 108.773 82.9459 108.661 82.7092 108.439C82.4772 108.216 82.3612 107.949 82.3612 107.636C82.3612 107.324 82.4772 107.056 82.7092 106.834C82.9459 106.611 83.2276 106.5 83.5543 106.5C83.881 106.5 84.1604 106.611 84.3924 106.834C84.6291 107.056 84.7475 107.324 84.7475 107.636C84.7475 107.949 84.6291 108.216 84.3924 108.439C84.1604 108.661 83.881 108.773 83.5543 108.773ZM92.1925 110.591V112.011H86.5391V110.591H92.1925ZM88.1868 107.977H89.8629V118.375C89.8629 118.848 89.9316 119.204 90.0689 119.44C90.2109 119.672 90.3909 119.829 90.6087 119.909C90.8312 119.985 91.0656 120.023 91.3118 120.023C91.4964 120.023 91.648 120.013 91.7663 119.994C91.8847 119.971 91.9794 119.952 92.0504 119.938L92.3913 121.443C92.2777 121.486 92.1191 121.528 91.9155 121.571C91.7119 121.618 91.4538 121.642 91.1413 121.642C90.6679 121.642 90.2038 121.54 89.7493 121.337C89.2995 121.133 88.9254 120.823 88.6271 120.406C88.3336 119.99 88.1868 119.464 88.1868 118.83V107.977ZM94.7138 121.5V110.591H96.3899V121.5H94.7138ZM95.5661 108.773C95.2393 108.773 94.9576 108.661 94.7209 108.439C94.4889 108.216 94.3729 107.949 94.3729 107.636C94.3729 107.324 94.4889 107.056 94.7209 106.834C94.9576 106.611 95.2393 106.5 95.5661 106.5C95.8928 106.5 96.1721 106.611 96.4041 106.834C96.6409 107.056 96.7592 107.324 96.7592 107.636C96.7592 107.949 96.6409 108.216 96.4041 108.439C96.1721 108.661 95.8928 108.773 95.5661 108.773ZM101.136 114.938V121.5H99.4599V110.591H101.079V112.295H101.221C101.477 111.741 101.865 111.296 102.386 110.96C102.907 110.619 103.579 110.449 104.403 110.449C105.142 110.449 105.788 110.6 106.342 110.903C106.896 111.202 107.327 111.656 107.635 112.267C107.942 112.873 108.096 113.64 108.096 114.568V121.5H106.42V114.682C106.42 113.825 106.198 113.157 105.752 112.679C105.307 112.196 104.697 111.955 103.92 111.955C103.385 111.955 102.907 112.071 102.485 112.303C102.069 112.535 101.74 112.873 101.498 113.318C101.257 113.763 101.136 114.303 101.136 114.938ZM115.562 125.818C114.753 125.818 114.057 125.714 113.474 125.506C112.892 125.302 112.407 125.032 112.018 124.696C111.635 124.365 111.33 124.009 111.102 123.631L112.438 122.693C112.589 122.892 112.781 123.119 113.013 123.375C113.245 123.635 113.562 123.86 113.964 124.05C114.372 124.244 114.904 124.341 115.562 124.341C116.443 124.341 117.17 124.128 117.743 123.702C118.316 123.276 118.602 122.608 118.602 121.699V119.483H118.46C118.337 119.682 118.162 119.928 117.935 120.222C117.712 120.51 117.39 120.768 116.969 120.996C116.552 121.218 115.989 121.33 115.278 121.33C114.398 121.33 113.607 121.121 112.906 120.705C112.21 120.288 111.659 119.682 111.251 118.886C110.849 118.091 110.648 117.125 110.648 115.989C110.648 114.871 110.844 113.898 111.237 113.07C111.63 112.236 112.177 111.592 112.878 111.138C113.579 110.679 114.388 110.449 115.307 110.449C116.017 110.449 116.58 110.567 116.997 110.804C117.419 111.036 117.741 111.301 117.963 111.599C118.19 111.893 118.366 112.134 118.489 112.324H118.659V110.591H120.278V121.812C120.278 122.75 120.065 123.512 119.639 124.099C119.218 124.691 118.65 125.125 117.935 125.399C117.224 125.679 116.434 125.818 115.562 125.818ZM115.506 119.824C116.178 119.824 116.746 119.67 117.21 119.362C117.674 119.054 118.027 118.612 118.268 118.034C118.51 117.456 118.631 116.765 118.631 115.96C118.631 115.174 118.512 114.481 118.276 113.879C118.039 113.278 117.688 112.807 117.224 112.466C116.76 112.125 116.188 111.955 115.506 111.955C114.795 111.955 114.204 112.134 113.73 112.494C113.261 112.854 112.909 113.337 112.672 113.943C112.44 114.549 112.324 115.222 112.324 115.96C112.324 116.718 112.442 117.388 112.679 117.97C112.92 118.548 113.276 119.002 113.744 119.334C114.218 119.661 114.805 119.824 115.506 119.824ZM43.2614 145.5V130.955H51.983V132.517H45.0227V137.432H51.3295V138.994H45.0227V145.5H43.2614ZM58.5455 145.727C57.4943 145.727 56.5876 145.495 55.8253 145.031C55.0677 144.562 54.483 143.909 54.071 143.071C53.6638 142.228 53.4602 141.248 53.4602 140.131C53.4602 139.013 53.6638 138.028 54.071 137.176C54.483 136.319 55.0559 135.652 55.7898 135.173C56.5284 134.69 57.3902 134.449 58.375 134.449C58.9432 134.449 59.5043 134.544 60.0582 134.733C60.6122 134.922 61.1165 135.23 61.571 135.656C62.0256 136.078 62.3878 136.636 62.6577 137.332C62.9276 138.028 63.0625 138.885 63.0625 139.903V140.614H54.6534V139.165H61.358C61.358 138.549 61.2348 138 60.9886 137.517C60.7472 137.034 60.4015 136.653 59.9517 136.374C59.5066 136.094 58.9811 135.955 58.375 135.955C57.7074 135.955 57.1297 136.12 56.642 136.452C56.1591 136.778 55.7874 137.205 55.527 137.73C55.2666 138.256 55.1364 138.819 55.1364 139.42V140.386C55.1364 141.21 55.2784 141.909 55.5625 142.482C55.8513 143.05 56.2514 143.483 56.7628 143.781C57.2741 144.075 57.8684 144.222 58.5455 144.222C58.9858 144.222 59.3835 144.16 59.7386 144.037C60.0985 143.909 60.4086 143.72 60.669 143.469C60.9295 143.213 61.1307 142.896 61.2727 142.517L62.892 142.972C62.7216 143.521 62.4351 144.004 62.0327 144.42C61.6302 144.832 61.133 145.154 60.5412 145.386C59.9493 145.614 59.2841 145.727 58.5455 145.727ZM70.1861 145.727C69.1349 145.727 68.2282 145.495 67.4659 145.031C66.7083 144.562 66.1236 143.909 65.7116 143.071C65.3045 142.228 65.1009 141.248 65.1009 140.131C65.1009 139.013 65.3045 138.028 65.7116 137.176C66.1236 136.319 66.6965 135.652 67.4304 135.173C68.169 134.69 69.0308 134.449 70.0156 134.449C70.5838 134.449 71.1449 134.544 71.6989 134.733C72.2528 134.922 72.7571 135.23 73.2116 135.656C73.6662 136.078 74.0284 136.636 74.2983 137.332C74.5682 138.028 74.7031 138.885 74.7031 139.903V140.614H66.294V139.165H72.9986C72.9986 138.549 72.8755 138 72.6293 137.517C72.3878 137.034 72.0421 136.653 71.5923 136.374C71.1473 136.094 70.6217 135.955 70.0156 135.955C69.348 135.955 68.7704 136.12 68.2827 136.452C67.7997 136.778 67.428 137.205 67.1676 137.73C66.9072 138.256 66.777 138.819 66.777 139.42V140.386C66.777 141.21 66.919 141.909 67.2031 142.482C67.492 143.05 67.892 143.483 68.4034 143.781C68.9148 144.075 69.509 144.222 70.1861 144.222C70.6264 144.222 71.0241 144.16 71.3793 144.037C71.7391 143.909 72.0492 143.72 72.3097 143.469C72.5701 143.213 72.7713 142.896 72.9134 142.517L74.5327 142.972C74.3622 143.521 74.0758 144.004 73.6733 144.42C73.2708 144.832 72.7737 145.154 72.1818 145.386C71.59 145.614 70.9247 145.727 70.1861 145.727ZM81.3722 145.727C80.4631 145.727 79.6605 145.498 78.9645 145.038C78.2685 144.574 77.724 143.921 77.331 143.078C76.938 142.231 76.7415 141.229 76.7415 140.074C76.7415 138.928 76.938 137.934 77.331 137.091C77.724 136.248 78.2708 135.597 78.9716 135.138C79.6723 134.679 80.482 134.449 81.4006 134.449C82.1108 134.449 82.6719 134.567 83.0838 134.804C83.5005 135.036 83.8177 135.301 84.0355 135.599C84.258 135.893 84.4309 136.134 84.554 136.324H84.696V130.955H86.3722V145.5H84.7528V143.824H84.554C84.4309 144.023 84.2557 144.274 84.0284 144.577C83.8011 144.875 83.4768 145.143 83.0554 145.379C82.634 145.611 82.0729 145.727 81.3722 145.727ZM81.5994 144.222C82.2718 144.222 82.84 144.046 83.304 143.696C83.768 143.341 84.1207 142.851 84.3622 142.226C84.6037 141.596 84.7244 140.869 84.7244 140.045C84.7244 139.231 84.6061 138.518 84.3693 137.908C84.1326 137.292 83.7822 136.814 83.3182 136.473C82.8542 136.127 82.2813 135.955 81.5994 135.955C80.8892 135.955 80.2973 136.137 79.8239 136.501C79.3551 136.861 79.0024 137.351 78.7656 137.972C78.5336 138.587 78.4176 139.278 78.4176 140.045C78.4176 140.822 78.536 141.527 78.7727 142.162C79.0142 142.792 79.3693 143.294 79.8381 143.668C80.3116 144.037 80.8987 144.222 81.5994 144.222ZM89.902 145.5V130.955H91.5781V136.324H91.7202C91.8433 136.134 92.0137 135.893 92.2315 135.599C92.4541 135.301 92.7713 135.036 93.1832 134.804C93.5999 134.567 94.1634 134.449 94.8736 134.449C95.7921 134.449 96.6018 134.679 97.3026 135.138C98.0033 135.597 98.5502 136.248 98.9432 137.091C99.3362 137.934 99.5327 138.928 99.5327 140.074C99.5327 141.229 99.3362 142.231 98.9432 143.078C98.5502 143.921 98.0057 144.574 97.3097 145.038C96.6136 145.498 95.8111 145.727 94.902 145.727C94.2012 145.727 93.6402 145.611 93.2188 145.379C92.7973 145.143 92.473 144.875 92.2457 144.577C92.0185 144.274 91.8433 144.023 91.7202 143.824H91.5213V145.5H89.902ZM91.5497 140.045C91.5497 140.869 91.6705 141.596 91.9119 142.226C92.1534 142.851 92.5062 143.341 92.9702 143.696C93.4342 144.046 94.0024 144.222 94.6747 144.222C95.3755 144.222 95.9602 144.037 96.429 143.668C96.9025 143.294 97.2576 142.792 97.4943 142.162C97.7358 141.527 97.8565 140.822 97.8565 140.045C97.8565 139.278 97.7382 138.587 97.5014 137.972C97.2694 137.351 96.9167 136.861 96.4432 136.501C95.9744 136.137 95.3849 135.955 94.6747 135.955C93.9929 135.955 93.42 136.127 92.956 136.473C92.492 136.814 92.1416 137.292 91.9048 137.908C91.6681 138.518 91.5497 139.231 91.5497 140.045ZM105.307 145.756C104.616 145.756 103.988 145.625 103.425 145.365C102.861 145.1 102.414 144.719 102.082 144.222C101.751 143.72 101.585 143.114 101.585 142.403C101.585 141.778 101.708 141.272 101.955 140.884C102.201 140.491 102.53 140.183 102.942 139.96C103.354 139.738 103.808 139.572 104.305 139.463C104.807 139.349 105.312 139.259 105.818 139.193C106.481 139.108 107.018 139.044 107.43 139.001C107.847 138.954 108.15 138.876 108.339 138.767C108.534 138.658 108.631 138.469 108.631 138.199V138.142C108.631 137.441 108.439 136.897 108.055 136.509C107.677 136.12 107.101 135.926 106.33 135.926C105.529 135.926 104.902 136.101 104.447 136.452C103.993 136.802 103.673 137.176 103.489 137.574L101.898 137.006C102.182 136.343 102.561 135.827 103.034 135.457C103.512 135.083 104.033 134.823 104.597 134.676C105.165 134.525 105.723 134.449 106.273 134.449C106.623 134.449 107.026 134.491 107.48 134.577C107.939 134.657 108.382 134.825 108.808 135.081C109.239 135.337 109.597 135.723 109.881 136.239C110.165 136.755 110.307 137.446 110.307 138.312V145.5H108.631V144.023H108.545C108.432 144.259 108.242 144.513 107.977 144.783C107.712 145.053 107.359 145.282 106.919 145.472C106.479 145.661 105.941 145.756 105.307 145.756ZM105.562 144.25C106.225 144.25 106.784 144.12 107.239 143.859C107.698 143.599 108.044 143.263 108.276 142.851C108.512 142.439 108.631 142.006 108.631 141.551V140.017C108.56 140.102 108.403 140.18 108.162 140.251C107.925 140.318 107.651 140.377 107.338 140.429C107.03 140.476 106.73 140.519 106.436 140.557C106.147 140.59 105.913 140.618 105.733 140.642C105.297 140.699 104.89 140.791 104.511 140.919C104.137 141.042 103.834 141.229 103.602 141.48C103.375 141.726 103.261 142.062 103.261 142.489C103.261 143.071 103.477 143.511 103.908 143.81C104.343 144.103 104.895 144.25 105.562 144.25ZM117.798 145.727C116.775 145.727 115.895 145.486 115.156 145.003C114.417 144.52 113.849 143.855 113.451 143.007C113.054 142.16 112.855 141.191 112.855 140.102C112.855 138.994 113.058 138.017 113.466 137.169C113.877 136.317 114.45 135.652 115.184 135.173C115.923 134.69 116.785 134.449 117.77 134.449C118.537 134.449 119.228 134.591 119.843 134.875C120.459 135.159 120.963 135.557 121.356 136.068C121.749 136.58 121.993 137.176 122.088 137.858H120.412C120.284 137.361 120 136.92 119.559 136.537C119.124 136.149 118.537 135.955 117.798 135.955C117.145 135.955 116.572 136.125 116.079 136.466C115.592 136.802 115.21 137.278 114.936 137.893C114.666 138.504 114.531 139.222 114.531 140.045C114.531 140.888 114.663 141.622 114.929 142.247C115.199 142.872 115.577 143.357 116.065 143.703C116.557 144.049 117.135 144.222 117.798 144.222C118.234 144.222 118.629 144.146 118.984 143.994C119.339 143.843 119.64 143.625 119.886 143.341C120.132 143.057 120.307 142.716 120.412 142.318H122.088C121.993 142.962 121.759 143.542 121.385 144.058C121.015 144.57 120.525 144.977 119.914 145.28C119.308 145.578 118.603 145.727 117.798 145.727ZM126.1 141.523L126.072 139.449H126.413L131.186 134.591H133.26L128.174 139.733H128.032L126.1 141.523ZM124.538 145.5V130.955H126.214V145.5H124.538ZM131.47 145.5L127.208 140.102L128.402 138.938L133.6 145.5H131.47Z" fill="#2A3647"/>
</g>
<defs>
<filter id="filter0_d_86105_6088" x="0" y="0" width="176" height="176" filterUnits="userSpaceOnUse" color-interpolation-filters="sRGB">
<feFlood flood-opacity="0" result="BackgroundImageFix"/>
<feColorMatrix in="SourceAlpha" type="matrix" values="0 0 0 0 0 0 0 0 0 0 0 0 0 0 0 0 0 0 127 0" result="hardAlpha"/>
<feOffset/>
<feGaussianBlur stdDeviation="2"/>
<feColorMatrix type="matrix" values="0 0 0 0 0 0 0 0 0 0 0 0 0 0 0 0 0 0 0.1 0"/>
<feBlend mode="normal" in2="BackgroundImageFix" result="effect1_dropShadow_86105_6088"/>
<feBlend mode="normal" in="SourceGraphic" in2="effect1_dropShadow_86105_6088" result="shape"/>
</filter>
</defs>
</svg>
