<svg width="176" height="176" viewBox="0 0 176 176" fill="none" xmlns="http://www.w3.org/2000/svg">
<g filter="url(#filter0_d_86105_6086)">
<rect x="4" y="4" width="168" height="168" rx="30" fill="white"/>
<path d="M88.0682 88.1364C85.0379 88.1364 82.3258 87.5682 79.9318 86.4318C77.5379 85.2803 75.6364 83.7045 74.2273 81.7045C72.8333 79.7045 72.0909 77.4167 72 74.8409H80.1818C80.3333 76.75 81.1591 78.3106 82.6591 79.5227C84.1591 80.7197 85.9621 81.3182 88.0682 81.3182C89.7197 81.3182 91.1894 80.9394 92.4773 80.1818C93.7652 79.4242 94.7803 78.3712 95.5227 77.0227C96.2652 75.6742 96.6288 74.1364 96.6136 72.4091C96.6288 70.6515 96.2576 69.0909 95.5 67.7273C94.7424 66.3636 93.7045 65.2955 92.3864 64.5227C91.0682 63.7348 89.553 63.3409 87.8409 63.3409C86.447 63.3258 85.0758 63.5833 83.7273 64.1136C82.3788 64.6439 81.3106 65.3409 80.5227 66.2045L72.9091 64.9545L75.3409 40.9545H102.341V48H82.3182L80.9773 60.3409H81.25C82.1136 59.3258 83.3333 58.4848 84.9091 57.8182C86.4848 57.1364 88.2121 56.7955 90.0909 56.7955C92.9091 56.7955 95.4242 57.4621 97.6364 58.7955C99.8485 60.1136 101.591 61.9318 102.864 64.25C104.136 66.5682 104.773 69.2197 104.773 72.2045C104.773 75.2803 104.061 78.0227 102.636 80.4318C101.227 82.8258 99.2652 84.7121 96.75 86.0909C94.25 87.4545 91.3561 88.1364 88.0682 88.1364Z" fill="black"/>
<path d="M47.921 108.517V106.955H58.8301V108.517H54.2562V121.5H52.4949V108.517H47.921ZM63.0471 121.756C62.3558 121.756 61.7284 121.625 61.165 121.365C60.6015 121.1 60.1541 120.719 59.8226 120.222C59.4912 119.72 59.3255 119.114 59.3255 118.403C59.3255 117.778 59.4486 117.272 59.6948 116.884C59.941 116.491 60.2701 116.183 60.682 115.96C61.0939 115.738 61.5485 115.572 62.0456 115.463C62.5475 115.349 63.0518 115.259 63.5584 115.193C64.2213 115.108 64.7587 115.044 65.1706 115.001C65.5873 114.954 65.8903 114.876 66.0797 114.767C66.2739 114.658 66.3709 114.469 66.3709 114.199V114.142C66.3709 113.441 66.1792 112.897 65.7956 112.509C65.4168 112.12 64.8416 111.926 64.0698 111.926C63.2696 111.926 62.6422 112.101 62.1877 112.452C61.7331 112.802 61.4135 113.176 61.2289 113.574L59.638 113.006C59.9221 112.343 60.3008 111.827 60.7743 111.457C61.2525 111.083 61.7734 110.823 62.3368 110.676C62.905 110.525 63.4637 110.449 64.013 110.449C64.3633 110.449 64.7658 110.491 65.2203 110.577C65.6796 110.657 66.1223 110.825 66.5485 111.081C66.9793 111.337 67.3368 111.723 67.6209 112.239C67.905 112.755 68.0471 113.446 68.0471 114.312V121.5H66.3709V120.023H66.2857C66.1721 120.259 65.9827 120.513 65.7175 120.783C65.4524 121.053 65.0996 121.282 64.6593 121.472C64.2189 121.661 63.6815 121.756 63.0471 121.756ZM63.3027 120.25C63.9656 120.25 64.5243 120.12 64.9789 119.859C65.4382 119.599 65.7838 119.263 66.0158 118.851C66.2525 118.439 66.3709 118.006 66.3709 117.551V116.017C66.2999 116.102 66.1436 116.18 65.9022 116.251C65.6654 116.318 65.3908 116.377 65.0783 116.429C64.7705 116.476 64.4699 116.519 64.1763 116.557C63.8875 116.59 63.6531 116.618 63.4732 116.642C63.0376 116.699 62.6304 116.791 62.2516 116.919C61.8775 117.042 61.5745 117.229 61.3425 117.48C61.1152 117.726 61.0016 118.062 61.0016 118.489C61.0016 119.071 61.217 119.511 61.6479 119.81C62.0835 120.103 62.6351 120.25 63.3027 120.25ZM78.8336 113.034L77.3279 113.46C77.2333 113.209 77.0936 112.965 76.9089 112.729C76.729 112.487 76.4828 112.288 76.1703 112.132C75.8578 111.976 75.4577 111.898 74.97 111.898C74.3024 111.898 73.746 112.052 73.301 112.359C72.8606 112.662 72.6404 113.048 72.6404 113.517C72.6404 113.934 72.792 114.263 73.095 114.504C73.398 114.746 73.8715 114.947 74.5154 115.108L76.1348 115.506C77.1101 115.742 77.8369 116.105 78.3152 116.592C78.7934 117.075 79.0325 117.698 79.0325 118.46C79.0325 119.085 78.8526 119.644 78.4927 120.136C78.1376 120.629 77.6404 121.017 77.0012 121.301C76.362 121.585 75.6187 121.727 74.7711 121.727C73.6584 121.727 72.7375 121.486 72.0083 121.003C71.2792 120.52 70.8175 119.814 70.6234 118.886L72.2143 118.489C72.3658 119.076 72.6523 119.516 73.0737 119.81C73.4998 120.103 74.0562 120.25 74.7427 120.25C75.524 120.25 76.1442 120.084 76.6035 119.753C77.0675 119.417 77.2995 119.014 77.2995 118.545C77.2995 118.167 77.167 117.849 76.9018 117.594C76.6367 117.333 76.2295 117.139 75.6802 117.011L73.862 116.585C72.863 116.348 72.1291 115.982 71.6603 115.484C71.1963 114.982 70.9643 114.355 70.9643 113.602C70.9643 112.987 71.1371 112.442 71.4828 111.969C71.8332 111.495 72.309 111.124 72.9103 110.854C73.5164 110.584 74.2029 110.449 74.97 110.449C76.0495 110.449 76.8971 110.686 77.5126 111.159C78.1329 111.633 78.5732 112.258 78.8336 113.034ZM83.1181 117.523L83.0897 115.449H83.4306L88.2033 110.591H90.2772L85.1919 115.733H85.0499L83.1181 117.523ZM81.5556 121.5V106.955H83.2317V121.5H81.5556ZM88.4874 121.5L84.226 116.102L85.4192 114.938L90.6181 121.5H88.4874ZM100.162 113.034L98.6561 113.46C98.5614 113.209 98.4217 112.965 98.237 112.729C98.0571 112.487 97.8109 112.288 97.4984 112.132C97.1859 111.976 96.7858 111.898 96.2981 111.898C95.6305 111.898 95.0742 112.052 94.6291 112.359C94.1887 112.662 93.9686 113.048 93.9686 113.517C93.9686 113.934 94.1201 114.263 94.4231 114.504C94.7261 114.746 95.1996 114.947 95.8436 115.108L97.4629 115.506C98.4383 115.742 99.1651 116.105 99.6433 116.592C100.122 117.075 100.361 117.698 100.361 118.46C100.361 119.085 100.181 119.644 99.8208 120.136C99.4657 120.629 98.9686 121.017 98.3294 121.301C97.6902 121.585 96.9468 121.727 96.0993 121.727C94.9866 121.727 94.0656 121.486 93.3365 121.003C92.6073 120.52 92.1457 119.814 91.9515 118.886L93.5424 118.489C93.694 119.076 93.9804 119.516 94.4018 119.81C94.8279 120.103 95.3843 120.25 96.0708 120.25C96.8521 120.25 97.4724 120.084 97.9316 119.753C98.3957 119.417 98.6277 119.014 98.6277 118.545C98.6277 118.167 98.4951 117.849 98.2299 117.594C97.9648 117.333 97.5576 117.139 97.0083 117.011L95.1902 116.585C94.1911 116.348 93.4572 115.982 92.9885 115.484C92.5244 114.982 92.2924 114.355 92.2924 113.602C92.2924 112.987 92.4653 112.442 92.8109 111.969C93.1613 111.495 93.6371 111.124 94.2385 110.854C94.8445 110.584 95.5311 110.449 96.2981 110.449C97.3777 110.449 98.2252 110.686 98.8407 111.159C99.461 111.633 99.9013 112.258 100.162 113.034ZM108.509 121.5V110.591H110.185V121.5H108.509ZM109.361 108.773C109.034 108.773 108.753 108.661 108.516 108.439C108.284 108.216 108.168 107.949 108.168 107.636C108.168 107.324 108.284 107.056 108.516 106.834C108.753 106.611 109.034 106.5 109.361 106.5C109.688 106.5 109.967 106.611 110.199 106.834C110.436 107.056 110.554 107.324 110.554 107.636C110.554 107.949 110.436 108.216 110.199 108.439C109.967 108.661 109.688 108.773 109.361 108.773ZM114.931 114.938V121.5H113.255V110.591H114.874V112.295H115.016C115.272 111.741 115.66 111.296 116.181 110.96C116.702 110.619 117.374 110.449 118.198 110.449C118.937 110.449 119.583 110.6 120.137 110.903C120.691 111.202 121.122 111.656 121.43 112.267C121.737 112.873 121.891 113.64 121.891 114.568V121.5H120.215V114.682C120.215 113.825 119.992 113.157 119.547 112.679C119.102 112.196 118.492 111.955 117.715 111.955C117.18 111.955 116.702 112.071 116.28 112.303C115.864 112.535 115.535 112.873 115.293 113.318C115.052 113.763 114.931 114.303 114.931 114.938ZM61.8903 145.5V130.955H66.9755C67.9888 130.955 68.8245 131.13 69.4826 131.48C70.1407 131.826 70.6308 132.292 70.9528 132.879C71.2747 133.462 71.4357 134.108 71.4357 134.818C71.4357 135.443 71.3245 135.959 71.1019 136.366C70.8841 136.774 70.5953 137.096 70.2354 137.332C69.8803 137.569 69.4944 137.744 69.0778 137.858V138C69.5228 138.028 69.9703 138.185 70.4201 138.469C70.8699 138.753 71.2463 139.16 71.5494 139.69C71.8524 140.221 72.0039 140.869 72.0039 141.636C72.0039 142.366 71.8382 143.021 71.5067 143.604C71.1753 144.186 70.6521 144.648 69.9371 144.989C69.2222 145.33 68.2918 145.5 67.146 145.5H61.8903ZM63.6516 143.938H67.146C68.2965 143.938 69.1133 143.715 69.5962 143.27C70.0839 142.82 70.3278 142.276 70.3278 141.636C70.3278 141.144 70.2023 140.689 69.9513 140.273C69.7004 139.851 69.3429 139.515 68.8789 139.264C68.4149 139.009 67.8656 138.881 67.2312 138.881H63.6516V143.938ZM63.6516 137.347H66.9187C67.449 137.347 67.9272 137.242 68.3533 137.034C68.7842 136.826 69.1251 136.532 69.3761 136.153C69.6317 135.775 69.7596 135.33 69.7596 134.818C69.7596 134.179 69.5371 133.637 69.092 133.192C68.6469 132.742 67.9414 132.517 66.9755 132.517H63.6516V137.347ZM79.1026 145.727C78.1178 145.727 77.2537 145.493 76.5103 145.024C75.7717 144.555 75.194 143.9 74.7773 143.057C74.3654 142.214 74.1594 141.229 74.1594 140.102C74.1594 138.966 74.3654 137.974 74.7773 137.126C75.194 136.279 75.7717 135.621 76.5103 135.152C77.2537 134.683 78.1178 134.449 79.1026 134.449C80.0875 134.449 80.9492 134.683 81.6879 135.152C82.4312 135.621 83.0089 136.279 83.4208 137.126C83.8375 137.974 84.0458 138.966 84.0458 140.102C84.0458 141.229 83.8375 142.214 83.4208 143.057C83.0089 143.9 82.4312 144.555 81.6879 145.024C80.9492 145.493 80.0875 145.727 79.1026 145.727ZM79.1026 144.222C79.8507 144.222 80.4663 144.03 80.9492 143.646C81.4322 143.263 81.7897 142.759 82.0217 142.134C82.2537 141.509 82.3697 140.831 82.3697 140.102C82.3697 139.373 82.2537 138.694 82.0217 138.064C81.7897 137.434 81.4322 136.925 80.9492 136.537C80.4663 136.149 79.8507 135.955 79.1026 135.955C78.3545 135.955 77.739 136.149 77.256 136.537C76.7731 136.925 76.4156 137.434 76.1836 138.064C75.9516 138.694 75.8356 139.373 75.8356 140.102C75.8356 140.831 75.9516 141.509 76.1836 142.134C76.4156 142.759 76.7731 143.263 77.256 143.646C77.739 144.03 78.3545 144.222 79.1026 144.222ZM89.8146 145.756C89.1233 145.756 88.496 145.625 87.9325 145.365C87.3691 145.1 86.9216 144.719 86.5902 144.222C86.2588 143.72 86.093 143.114 86.093 142.403C86.093 141.778 86.2161 141.272 86.4624 140.884C86.7086 140.491 87.0376 140.183 87.4496 139.96C87.8615 139.738 88.3161 139.572 88.8132 139.463C89.3151 139.349 89.8194 139.259 90.326 139.193C90.9889 139.108 91.5263 139.044 91.9382 139.001C92.3549 138.954 92.6579 138.876 92.8473 138.767C93.0414 138.658 93.1385 138.469 93.1385 138.199V138.142C93.1385 137.441 92.9467 136.897 92.5632 136.509C92.1844 136.12 91.6091 135.926 90.8374 135.926C90.0372 135.926 89.4098 136.101 88.9553 136.452C88.5007 136.802 88.1811 137.176 87.9964 137.574L86.4055 137.006C86.6896 136.343 87.0684 135.827 87.5419 135.457C88.0201 135.083 88.541 134.823 89.1044 134.676C89.6726 134.525 90.2313 134.449 90.7805 134.449C91.1309 134.449 91.5334 134.491 91.9879 134.577C92.4472 134.657 92.8899 134.825 93.3161 135.081C93.7469 135.337 94.1044 135.723 94.3885 136.239C94.6726 136.755 94.8146 137.446 94.8146 138.312V145.5H93.1385V144.023H93.0533C92.9396 144.259 92.7502 144.513 92.4851 144.783C92.2199 145.053 91.8672 145.282 91.4268 145.472C90.9865 145.661 90.4491 145.756 89.8146 145.756ZM90.0703 144.25C90.7332 144.25 91.2919 144.12 91.7464 143.859C92.2057 143.599 92.5514 143.263 92.7834 142.851C93.0201 142.439 93.1385 142.006 93.1385 141.551V140.017C93.0675 140.102 92.9112 140.18 92.6697 140.251C92.433 140.318 92.1584 140.377 91.8459 140.429C91.5381 140.476 91.2375 140.519 90.9439 140.557C90.6551 140.59 90.4207 140.618 90.2408 140.642C89.8052 140.699 89.398 140.791 89.0192 140.919C88.6451 141.042 88.3421 141.229 88.1101 141.48C87.8828 141.726 87.7692 142.062 87.7692 142.489C87.7692 143.071 87.9846 143.511 88.4155 143.81C88.8511 144.103 89.4027 144.25 90.0703 144.25ZM97.8739 145.5V134.591H99.4933V136.239H99.6069C99.8058 135.699 100.166 135.261 100.686 134.925C101.207 134.589 101.794 134.42 102.448 134.42C102.571 134.42 102.725 134.423 102.909 134.428C103.094 134.432 103.234 134.439 103.328 134.449V136.153C103.272 136.139 103.141 136.118 102.938 136.089C102.739 136.056 102.528 136.04 102.306 136.04C101.775 136.04 101.302 136.151 100.885 136.374C100.473 136.591 100.147 136.894 99.9052 137.283C99.6684 137.666 99.5501 138.104 99.5501 138.597V145.5H97.8739ZM109.103 145.727C108.194 145.727 107.391 145.498 106.695 145.038C105.999 144.574 105.454 143.921 105.061 143.078C104.668 142.231 104.472 141.229 104.472 140.074C104.472 138.928 104.668 137.934 105.061 137.091C105.454 136.248 106.001 135.597 106.702 135.138C107.403 134.679 108.212 134.449 109.131 134.449C109.841 134.449 110.402 134.567 110.814 134.804C111.231 135.036 111.548 135.301 111.766 135.599C111.989 135.893 112.161 136.134 112.284 136.324H112.426V130.955H114.103V145.5H112.483V143.824H112.284C112.161 144.023 111.986 144.274 111.759 144.577C111.532 144.875 111.207 145.143 110.786 145.379C110.364 145.611 109.803 145.727 109.103 145.727ZM109.33 144.222C110.002 144.222 110.57 144.046 111.034 143.696C111.498 143.341 111.851 142.851 112.093 142.226C112.334 141.596 112.455 140.869 112.455 140.045C112.455 139.231 112.337 138.518 112.1 137.908C111.863 137.292 111.513 136.814 111.049 136.473C110.585 136.127 110.012 135.955 109.33 135.955C108.62 135.955 108.028 136.137 107.554 136.501C107.086 136.861 106.733 137.351 106.496 137.972C106.264 138.587 106.148 139.278 106.148 140.045C106.148 140.822 106.266 141.527 106.503 142.162C106.745 142.792 107.1 143.294 107.569 143.668C108.042 144.037 108.629 144.222 109.33 144.222Z" fill="#2A3647"/>
</g>
<defs>
<filter id="filter0_d_86105_6086" x="0" y="0" width="176" height="176" filterUnits="userSpaceOnUse" color-interpolation-filters="sRGB">
<feFlood flood-opacity="0" result="BackgroundImageFix"/>
<feColorMatrix in="SourceAlpha" type="matrix" values="0 0 0 0 0 0 0 0 0 0 0 0 0 0 0 0 0 0 127 0" result="hardAlpha"/>
<feOffset/>
<feGaussianBlur stdDeviation="2"/>
<feColorMatrix type="matrix" values="0 0 0 0 0 0 0 0 0 0 0 0 0 0 0 0 0 0 0.1 0"/>
<feBlend mode="normal" in2="BackgroundImageFix" result="effect1_dropShadow_86105_6086"/>
<feBlend mode="normal" in="SourceGraphic" in2="effect1_dropShadow_86105_6086" result="shape"/>
</filter>
</defs>
</svg>
