<svg width="568" height="176" viewBox="0 0 568 176" fill="none" xmlns="http://www.w3.org/2000/svg">
<g filter="url(#filter0_d_86105_6084)">
<rect x="4" y="4" width="560" height="168" rx="30" fill="white"/>
<circle cx="99" cy="88" r="30" fill="#FF3D00"/>
<g clip-path="url(#clip0_86105_6084)">
<path d="M113.871 99.1626C113.47 99.1633 113.079 99.0337 112.756 98.7929L98.6511 88.263L84.5458 98.7929C84.3478 98.941 84.1229 99.0482 83.8839 99.1084C83.645 99.1685 83.3966 99.1805 83.1531 99.1435C82.9096 99.1066 82.6757 99.0214 82.4647 98.893C82.2536 98.7645 82.0697 98.5953 81.9233 98.3949C81.777 98.1945 81.6711 97.9669 81.6116 97.7251C81.5522 97.4832 81.5404 97.2319 81.5769 96.9855C81.6507 96.4878 81.9168 96.0402 82.3167 95.7411L97.5365 84.3677C97.8591 84.126 98.2498 83.9956 98.6511 83.9956C99.0524 83.9956 99.4431 84.126 99.7657 84.3677L114.985 95.7411C115.303 95.9781 115.539 96.3106 115.659 96.6912C115.779 97.0718 115.777 97.481 115.653 97.8604C115.53 98.2398 115.291 98.57 114.971 98.8039C114.651 99.0377 114.266 99.1633 113.871 99.1626Z" fill="white"/>
<path d="M113.871 89.2109C113.47 89.2116 113.079 89.082 112.756 88.8413L98.651 78.3114L84.5457 88.8413C84.1458 89.1404 83.6448 89.2665 83.153 89.1919C82.6612 89.1172 82.2188 88.8479 81.9232 88.4432C81.6276 88.0385 81.503 87.5315 81.5768 87.0339C81.6506 86.5362 81.9167 86.0885 82.3166 85.7894L97.5364 74.416C97.859 74.1744 98.2497 74.0439 98.651 74.0439C99.0523 74.0439 99.443 74.1744 99.7655 74.416L114.985 85.7894C115.303 86.0264 115.539 86.359 115.659 86.7396C115.779 87.1202 115.777 87.5294 115.653 87.9088C115.529 88.2882 115.291 88.6184 114.971 88.8522C114.65 89.0861 114.266 89.2116 113.871 89.2109Z" fill="white"/>
</g>
<path d="M180.693 55.4545V102H172.261V63.6591H171.989L161.102 70.6136V62.8864L172.67 55.4545H180.693Z" fill="black"/>
<path d="M156.045 120.364H157.455V128.068C157.455 128.864 157.267 129.574 156.892 130.199C156.521 130.82 155.996 131.311 155.318 131.67C154.64 132.027 153.845 132.205 152.932 132.205C152.019 132.205 151.223 132.027 150.545 131.67C149.867 131.311 149.341 130.82 148.966 130.199C148.595 129.574 148.409 128.864 148.409 128.068V120.364H149.818V127.955C149.818 128.523 149.943 129.028 150.193 129.472C150.443 129.911 150.799 130.258 151.261 130.511C151.727 130.761 152.284 130.886 152.932 130.886C153.58 130.886 154.136 130.761 154.602 130.511C155.068 130.258 155.424 129.911 155.67 129.472C155.92 129.028 156.045 128.523 156.045 127.955V120.364ZM160.087 132V123.273H161.382V124.591H161.473C161.632 124.159 161.92 123.809 162.337 123.54C162.753 123.271 163.223 123.136 163.746 123.136C163.844 123.136 163.967 123.138 164.115 123.142C164.263 123.146 164.375 123.152 164.45 123.159V124.523C164.405 124.511 164.301 124.494 164.138 124.472C163.979 124.445 163.81 124.432 163.632 124.432C163.208 124.432 162.829 124.521 162.496 124.699C162.166 124.873 161.905 125.116 161.712 125.426C161.522 125.733 161.428 126.083 161.428 126.477V132H160.087ZM169.297 135.455C168.649 135.455 168.092 135.371 167.626 135.205C167.161 135.042 166.772 134.826 166.462 134.557C166.155 134.292 165.911 134.008 165.729 133.705L166.797 132.955C166.918 133.114 167.071 133.295 167.257 133.5C167.443 133.708 167.696 133.888 168.018 134.04C168.344 134.195 168.77 134.273 169.297 134.273C170.001 134.273 170.583 134.102 171.041 133.761C171.5 133.42 171.729 132.886 171.729 132.159V130.386H171.615C171.517 130.545 171.376 130.742 171.195 130.977C171.017 131.208 170.759 131.415 170.422 131.597C170.089 131.775 169.638 131.864 169.07 131.864C168.365 131.864 167.732 131.697 167.172 131.364C166.615 131.03 166.174 130.545 165.848 129.909C165.526 129.273 165.365 128.5 165.365 127.591C165.365 126.697 165.522 125.919 165.837 125.256C166.151 124.589 166.589 124.074 167.149 123.71C167.71 123.343 168.357 123.159 169.092 123.159C169.661 123.159 170.111 123.254 170.445 123.443C170.782 123.629 171.039 123.841 171.217 124.08C171.399 124.314 171.539 124.508 171.638 124.659H171.774V123.273H173.07V132.25C173.07 133 172.899 133.61 172.558 134.08C172.221 134.553 171.767 134.9 171.195 135.119C170.626 135.343 169.994 135.455 169.297 135.455ZM169.251 130.659C169.789 130.659 170.244 130.536 170.615 130.29C170.986 130.044 171.268 129.689 171.462 129.227C171.655 128.765 171.751 128.212 171.751 127.568C171.751 126.939 171.657 126.384 171.467 125.903C171.278 125.422 170.998 125.045 170.626 124.773C170.255 124.5 169.797 124.364 169.251 124.364C168.683 124.364 168.21 124.508 167.831 124.795C167.456 125.083 167.174 125.47 166.984 125.955C166.799 126.439 166.706 126.977 166.706 127.568C166.706 128.174 166.801 128.71 166.99 129.176C167.183 129.638 167.467 130.002 167.842 130.267C168.221 130.528 168.691 130.659 169.251 130.659ZM179.183 132.182C178.342 132.182 177.617 131.996 177.007 131.625C176.401 131.25 175.933 130.727 175.604 130.057C175.278 129.383 175.115 128.598 175.115 127.705C175.115 126.811 175.278 126.023 175.604 125.341C175.933 124.655 176.392 124.121 176.979 123.739C177.57 123.352 178.259 123.159 179.047 123.159C179.501 123.159 179.95 123.235 180.393 123.386C180.837 123.538 181.24 123.784 181.604 124.125C181.967 124.462 182.257 124.909 182.473 125.466C182.689 126.023 182.797 126.708 182.797 127.523V128.091H176.07V126.932H181.433C181.433 126.439 181.335 126 181.138 125.614C180.945 125.227 180.668 124.922 180.308 124.699C179.952 124.475 179.532 124.364 179.047 124.364C178.513 124.364 178.051 124.496 177.661 124.761C177.274 125.023 176.977 125.364 176.768 125.784C176.56 126.205 176.456 126.655 176.456 127.136V127.909C176.456 128.568 176.57 129.127 176.797 129.585C177.028 130.04 177.348 130.386 177.757 130.625C178.166 130.86 178.642 130.977 179.183 130.977C179.536 130.977 179.854 130.928 180.138 130.83C180.426 130.727 180.674 130.576 180.882 130.375C181.09 130.17 181.251 129.917 181.365 129.614L182.661 129.977C182.524 130.417 182.295 130.803 181.973 131.136C181.651 131.466 181.253 131.723 180.78 131.909C180.306 132.091 179.774 132.182 179.183 132.182ZM186.178 126.75V132H184.837V123.273H186.132V124.636H186.246C186.45 124.193 186.761 123.837 187.178 123.568C187.594 123.295 188.132 123.159 188.791 123.159C189.382 123.159 189.899 123.28 190.342 123.523C190.786 123.761 191.13 124.125 191.376 124.614C191.623 125.098 191.746 125.712 191.746 126.455V132H190.405V126.545C190.405 125.86 190.227 125.326 189.871 124.943C189.515 124.557 189.026 124.364 188.405 124.364C187.977 124.364 187.594 124.456 187.257 124.642C186.924 124.828 186.661 125.098 186.467 125.455C186.274 125.811 186.178 126.242 186.178 126.75ZM197.991 123.273V124.409H193.469V123.273H197.991ZM194.787 121.182H196.128V129.5C196.128 129.879 196.183 130.163 196.293 130.352C196.406 130.538 196.55 130.663 196.724 130.727C196.902 130.788 197.09 130.818 197.287 130.818C197.435 130.818 197.556 130.811 197.651 130.795C197.745 130.777 197.821 130.761 197.878 130.75L198.151 131.955C198.06 131.989 197.933 132.023 197.77 132.057C197.607 132.095 197.401 132.114 197.151 132.114C196.772 132.114 196.401 132.032 196.037 131.869C195.677 131.706 195.378 131.458 195.139 131.125C194.904 130.792 194.787 130.371 194.787 129.864V121.182Z" fill="#2A3647"/>
<path d="M260 36.9883V139.011" stroke="#D1D1D1" stroke-width="2" stroke-linecap="round"/>
<path d="M336.362 71.8636C336.362 73.5291 336.047 74.946 335.415 76.1143C334.789 77.2827 333.934 78.1751 332.85 78.7915C331.771 79.4031 330.558 79.7088 329.211 79.7088C327.853 79.7088 326.635 79.4006 325.556 78.7841C324.478 78.1676 323.625 77.2752 322.999 76.1069C322.372 74.9386 322.059 73.5241 322.059 71.8636C322.059 70.1982 322.372 68.7812 322.999 67.6129C323.625 66.4446 324.478 65.5547 325.556 64.9432C326.635 64.3267 327.853 64.0185 329.211 64.0185C330.558 64.0185 331.771 64.3267 332.85 64.9432C333.934 65.5547 334.789 66.4446 335.415 67.6129C336.047 68.7812 336.362 70.1982 336.362 71.8636ZM333.088 71.8636C333.088 70.7848 332.927 69.875 332.604 69.1342C332.286 68.3935 331.836 67.8317 331.254 67.4489C330.672 67.0661 329.991 66.8746 329.211 66.8746C328.43 66.8746 327.749 67.0661 327.167 67.4489C326.586 67.8317 326.133 68.3935 325.81 69.1342C325.492 69.875 325.333 70.7848 325.333 71.8636C325.333 72.9425 325.492 73.8523 325.81 74.593C326.133 75.3338 326.586 75.8956 327.167 76.2784C327.749 76.6612 328.43 76.8526 329.211 76.8526C329.991 76.8526 330.672 76.6612 331.254 76.2784C331.836 75.8956 332.286 75.3338 332.604 74.593C332.927 73.8523 333.088 72.9425 333.088 71.8636ZM343.87 79.7237C342.697 79.7237 341.687 79.4751 340.842 78.978C340.002 78.4759 339.356 77.7798 338.903 76.8899C338.456 76 338.232 74.9759 338.232 73.8175C338.232 72.6442 338.458 71.6151 338.911 70.7301C339.368 69.8402 340.017 69.1467 340.857 68.6495C341.697 68.1474 342.697 67.8963 343.855 67.8963C344.854 67.8963 345.729 68.0778 346.48 68.4407C347.231 68.8036 347.825 69.3132 348.262 69.9695C348.7 70.6257 348.941 71.3963 348.986 72.2812H345.988C345.903 71.7095 345.68 71.2496 345.317 70.9016C344.959 70.5487 344.489 70.3722 343.907 70.3722C343.415 70.3722 342.985 70.5064 342.617 70.7749C342.254 71.0384 341.971 71.4237 341.767 71.9308C341.563 72.4379 341.461 73.0518 341.461 73.7727C341.461 74.5036 341.561 75.125 341.759 75.6371C341.963 76.1491 342.249 76.5394 342.617 76.8079C342.985 77.0763 343.415 77.2106 343.907 77.2106C344.27 77.2106 344.596 77.136 344.884 76.9869C345.177 76.8377 345.419 76.6214 345.608 76.3381C345.801 76.0497 345.928 75.7042 345.988 75.3015H348.986C348.936 76.1765 348.697 76.9471 348.27 77.6133C347.847 78.2745 347.263 78.7915 346.517 79.1644C345.772 79.5373 344.889 79.7237 343.87 79.7237ZM357.112 68.0455V70.4318H350.214V68.0455H357.112ZM351.78 65.3011H354.957V75.9801C354.957 76.2734 355.002 76.5021 355.091 76.6662C355.181 76.8253 355.305 76.9371 355.464 77.0018C355.628 77.0664 355.817 77.0987 356.031 77.0987C356.18 77.0987 356.329 77.0863 356.479 77.0614C356.628 77.0316 356.742 77.0092 356.822 76.9943L357.321 79.3583C357.162 79.408 356.938 79.4652 356.65 79.5298C356.362 79.5994 356.011 79.6417 355.599 79.6566C354.833 79.6864 354.162 79.5845 353.585 79.3509C353.013 79.1172 352.568 78.7543 352.25 78.2621C351.932 77.7699 351.775 77.1484 351.78 76.3977V65.3011ZM364.234 79.7237C363.076 79.7237 362.074 79.4776 361.229 78.9854C360.389 78.4883 359.74 77.7972 359.282 76.9123C358.825 76.0224 358.596 74.9908 358.596 73.8175C358.596 72.6342 358.825 71.6001 359.282 70.7152C359.74 69.8253 360.389 69.1342 361.229 68.642C362.074 68.1449 363.076 67.8963 364.234 67.8963C365.393 67.8963 366.392 68.1449 367.232 68.642C368.077 69.1342 368.729 69.8253 369.186 70.7152C369.643 71.6001 369.872 72.6342 369.872 73.8175C369.872 74.9908 369.643 76.0224 369.186 76.9123C368.729 77.7972 368.077 78.4883 367.232 78.9854C366.392 79.4776 365.393 79.7237 364.234 79.7237ZM364.249 77.2628C364.776 77.2628 365.216 77.1136 365.569 76.8153C365.922 76.5121 366.188 76.0994 366.367 75.5774C366.551 75.0554 366.643 74.4613 366.643 73.7951C366.643 73.1289 366.551 72.5348 366.367 72.0128C366.188 71.4908 365.922 71.0781 365.569 70.7749C365.216 70.4716 364.776 70.32 364.249 70.32C363.717 70.32 363.27 70.4716 362.907 70.7749C362.549 71.0781 362.278 71.4908 362.094 72.0128C361.915 72.5348 361.825 73.1289 361.825 73.7951C361.825 74.4613 361.915 75.0554 362.094 75.5774C362.278 76.0994 362.549 76.5121 362.907 76.8153C363.27 77.1136 363.717 77.2628 364.249 77.2628ZM371.997 79.5V64.2273H375.174V69.9695H375.271C375.41 69.6612 375.612 69.348 375.875 69.0298C376.144 68.7067 376.492 68.4382 376.919 68.2244C377.352 68.0057 377.889 67.8963 378.53 67.8963C379.365 67.8963 380.136 68.1151 380.842 68.5526C381.548 68.9851 382.112 69.6388 382.535 70.5138C382.957 71.3839 383.169 72.4751 383.169 73.7876C383.169 75.0653 382.962 76.1442 382.55 77.0241C382.142 77.8991 381.585 78.5629 380.879 79.0153C380.178 79.4627 379.393 79.6864 378.523 79.6864C377.906 79.6864 377.382 79.5845 376.949 79.3807C376.521 79.1768 376.171 78.9208 375.898 78.6126C375.624 78.2994 375.415 77.9837 375.271 77.6655H375.129V79.5H371.997ZM375.107 73.7727C375.107 74.4538 375.202 75.0479 375.39 75.555C375.579 76.0621 375.853 76.4574 376.211 76.7408C376.569 77.0192 377.004 77.1584 377.516 77.1584C378.033 77.1584 378.47 77.0167 378.828 76.7333C379.186 76.445 379.457 76.0472 379.641 75.5401C379.83 75.0281 379.925 74.4389 379.925 73.7727C379.925 73.1115 379.833 72.5298 379.649 72.0277C379.465 71.5256 379.194 71.1328 378.836 70.8494C378.478 70.5661 378.038 70.4244 377.516 70.4244C376.999 70.4244 376.561 70.5611 376.203 70.8345C375.85 71.108 375.579 71.4957 375.39 71.9979C375.202 72.5 375.107 73.0916 375.107 73.7727ZM390.508 79.7237C389.33 79.7237 388.316 79.4851 387.466 79.0078C386.621 78.5256 385.969 77.8445 385.512 76.9645C385.055 76.0795 384.826 75.033 384.826 73.8249C384.826 72.6467 385.055 71.6126 385.512 70.7227C385.969 69.8327 386.613 69.1392 387.443 68.642C388.279 68.1449 389.258 67.8963 390.382 67.8963C391.137 67.8963 391.841 68.0181 392.492 68.2617C393.148 68.5004 393.72 68.8608 394.207 69.343C394.699 69.8253 395.082 70.4318 395.356 71.1626C395.629 71.8885 395.766 72.7386 395.766 73.7131V74.5856H386.094V72.6168H392.775C392.775 72.1594 392.676 71.7543 392.477 71.4013C392.278 71.0483 392.002 70.7724 391.649 70.5735C391.301 70.3697 390.896 70.2678 390.434 70.2678C389.952 70.2678 389.524 70.3796 389.151 70.6033C388.783 70.8221 388.495 71.1179 388.286 71.4908C388.077 71.8587 387.97 72.2688 387.965 72.7212V74.593C387.965 75.1598 388.07 75.6495 388.279 76.0621C388.492 76.4748 388.793 76.793 389.181 77.0167C389.569 77.2404 390.029 77.3523 390.561 77.3523C390.914 77.3523 391.237 77.3026 391.53 77.2031C391.823 77.1037 392.074 76.9545 392.283 76.7557C392.492 76.5568 392.651 76.3132 392.761 76.0249L395.699 76.2188C395.55 76.9247 395.244 77.5412 394.782 78.0682C394.324 78.5902 393.733 78.9979 393.007 79.2912C392.286 79.5795 391.453 79.7237 390.508 79.7237ZM397.839 79.5V68.0455H400.919V70.044H401.038C401.247 69.3331 401.598 68.7962 402.09 68.4332C402.582 68.0653 403.149 67.8814 403.79 67.8814C403.949 67.8814 404.121 67.8913 404.305 67.9112C404.489 67.9311 404.65 67.9585 404.789 67.9933V70.8121C404.64 70.7674 404.434 70.7276 404.17 70.6928C403.907 70.658 403.666 70.6406 403.447 70.6406C402.98 70.6406 402.562 70.7425 402.194 70.9464C401.831 71.1452 401.543 71.4237 401.329 71.7816C401.12 72.1396 401.016 72.5522 401.016 73.0195V79.5H397.839ZM417.907 64.2273V79.5H414.678V67.2923H414.588L411.091 69.4847V66.6211L414.872 64.2273H417.907ZM427.398 79.7088C426.613 79.7038 425.855 79.5721 425.124 79.3136C424.398 79.055 423.747 78.6349 423.17 78.0533C422.593 77.4716 422.136 76.701 421.798 75.7415C421.465 74.782 421.298 73.6037 421.298 72.2067C421.303 70.924 421.45 69.7781 421.738 68.7688C422.031 67.7546 422.449 66.8945 422.991 66.1886C423.538 65.4826 424.192 64.9457 424.952 64.5778C425.713 64.2049 426.566 64.0185 427.51 64.0185C428.529 64.0185 429.429 64.2173 430.21 64.6151C430.99 65.0078 431.617 65.5423 432.089 66.2184C432.566 66.8945 432.855 67.6527 432.954 68.4929H429.77C429.645 67.9609 429.384 67.5433 428.987 67.2401C428.589 66.9368 428.097 66.7852 427.51 66.7852C426.516 66.7852 425.76 67.2177 425.243 68.0827C424.731 68.9478 424.47 70.1236 424.46 71.6101H424.564C424.793 71.1577 425.101 70.7724 425.489 70.4542C425.882 70.131 426.327 69.8849 426.824 69.7159C427.326 69.5419 427.856 69.4549 428.412 69.4549C429.317 69.4549 430.123 69.6687 430.829 70.0962C431.535 70.5188 432.091 71.1005 432.499 71.8413C432.907 72.582 433.111 73.4297 433.111 74.3842C433.111 75.4183 432.869 76.3381 432.387 77.1435C431.91 77.9489 431.241 78.5803 430.381 79.0376C429.526 79.4901 428.532 79.7138 427.398 79.7088ZM427.383 77.1733C427.881 77.1733 428.325 77.054 428.718 76.8153C429.111 76.5767 429.419 76.2536 429.643 75.8459C429.867 75.4382 429.979 74.9808 429.979 74.4737C429.979 73.9666 429.867 73.5117 429.643 73.109C429.424 72.7063 429.121 72.3857 428.733 72.147C428.345 71.9084 427.903 71.7891 427.406 71.7891C427.033 71.7891 426.687 71.8587 426.369 71.9979C426.056 72.1371 425.78 72.331 425.541 72.5795C425.308 72.8281 425.124 73.1165 424.99 73.4446C424.855 73.7678 424.788 74.1133 424.788 74.4812C424.788 74.9734 424.9 75.4233 425.124 75.831C425.352 76.2386 425.661 76.5643 426.048 76.8079C426.441 77.0515 426.886 77.1733 427.383 77.1733ZM438.247 77.4119L438.165 78.2322C438.1 78.8885 437.976 79.5423 437.792 80.1935C437.613 80.8498 437.424 81.4439 437.225 81.9759C437.031 82.5078 436.875 82.9254 436.755 83.2287H434.697C434.772 82.9354 434.874 82.5252 435.003 81.9982C435.132 81.4762 435.254 80.8896 435.368 80.2383C435.483 79.587 435.555 78.9233 435.585 78.2472L435.622 77.4119H438.247ZM445.264 79.5V77.1733L450.701 72.1396C451.163 71.6921 451.551 71.2894 451.864 70.9315C452.182 70.5735 452.423 70.223 452.587 69.88C452.752 69.532 452.834 69.1566 452.834 68.7539C452.834 68.3065 452.732 67.9212 452.528 67.598C452.324 67.2699 452.046 67.0188 451.693 66.8448C451.34 66.6658 450.939 66.5763 450.492 66.5763C450.025 66.5763 449.617 66.6708 449.269 66.8597C448.921 67.0487 448.652 67.3196 448.464 67.6726C448.275 68.0256 448.18 68.4457 448.18 68.9329H445.115C445.115 67.9336 445.341 67.0661 445.794 66.3303C446.246 65.5945 446.88 65.0252 447.695 64.6225C448.511 64.2198 449.45 64.0185 450.514 64.0185C451.608 64.0185 452.56 64.2124 453.37 64.6001C454.186 64.983 454.82 65.5149 455.272 66.196C455.725 66.8771 455.951 67.6577 455.951 68.5376C455.951 69.1143 455.836 69.6836 455.608 70.2454C455.384 70.8072 454.984 71.4311 454.407 72.1172C453.83 72.7983 453.017 73.6161 451.968 74.5707L449.739 76.7557V76.8601H456.152V79.5H445.264ZM464.48 79.8356C463.197 79.8306 462.094 79.5149 461.169 78.8885C460.249 78.2621 459.541 77.3548 459.044 76.1665C458.551 74.9783 458.308 73.549 458.313 71.8786C458.313 70.2131 458.559 68.7937 459.051 67.6204C459.548 66.4471 460.257 65.5547 461.176 64.9432C462.101 64.3267 463.202 64.0185 464.48 64.0185C465.758 64.0185 466.857 64.3267 467.776 64.9432C468.701 65.5597 469.412 66.4545 469.909 67.6278C470.406 68.7962 470.652 70.2131 470.647 71.8786C470.647 73.554 470.399 74.9858 469.902 76.174C469.409 77.3622 468.703 78.2695 467.784 78.896C466.864 79.5224 465.763 79.8356 464.48 79.8356ZM464.48 77.1584C465.355 77.1584 466.054 76.7184 466.576 75.8384C467.098 74.9585 467.356 73.6385 467.351 71.8786C467.351 70.7202 467.232 69.7557 466.993 68.9851C466.76 68.2145 466.426 67.6353 465.994 67.2475C465.566 66.8597 465.062 66.6658 464.48 66.6658C463.61 66.6658 462.914 67.1009 462.392 67.9709C461.87 68.8409 461.607 70.1435 461.602 71.8786C461.602 73.0518 461.718 74.0312 461.952 74.8168C462.191 75.5973 462.526 76.1839 462.959 76.5767C463.391 76.9645 463.898 77.1584 464.48 77.1584ZM472.95 79.5V77.1733L478.386 72.1396C478.849 71.6921 479.236 71.2894 479.55 70.9315C479.868 70.5735 480.109 70.223 480.273 69.88C480.437 69.532 480.519 69.1566 480.519 68.7539C480.519 68.3065 480.417 67.9212 480.213 67.598C480.009 67.2699 479.731 67.0188 479.378 66.8448C479.025 66.6658 478.625 66.5763 478.177 66.5763C477.71 66.5763 477.302 66.6708 476.954 66.8597C476.606 67.0487 476.338 67.3196 476.149 67.6726C475.96 68.0256 475.866 68.4457 475.866 68.9329H472.801C472.801 67.9336 473.027 67.0661 473.479 66.3303C473.932 65.5945 474.566 65.0252 475.381 64.6225C476.196 64.2198 477.136 64.0185 478.2 64.0185C479.294 64.0185 480.246 64.2124 481.056 64.6001C481.871 64.983 482.505 65.5149 482.958 66.196C483.41 66.8771 483.636 67.6577 483.636 68.5376C483.636 69.1143 483.522 69.6836 483.293 70.2454C483.07 70.8072 482.669 71.4311 482.093 72.1172C481.516 72.7983 480.703 73.6161 479.654 74.5707L477.424 76.7557V76.8601H483.838V79.5H472.95ZM486.177 79.5V77.1733L491.614 72.1396C492.076 71.6921 492.464 71.2894 492.777 70.9315C493.095 70.5735 493.336 70.223 493.501 69.88C493.665 69.532 493.747 69.1566 493.747 68.7539C493.747 68.3065 493.645 67.9212 493.441 67.598C493.237 67.2699 492.959 67.0188 492.606 66.8448C492.253 66.6658 491.852 66.5763 491.405 66.5763C490.938 66.5763 490.53 66.6708 490.182 66.8597C489.834 67.0487 489.566 67.3196 489.377 67.6726C489.188 68.0256 489.093 68.4457 489.093 68.9329H486.028C486.028 67.9336 486.254 67.0661 486.707 66.3303C487.159 65.5945 487.793 65.0252 488.608 64.6225C489.424 64.2198 490.363 64.0185 491.427 64.0185C492.521 64.0185 493.473 64.2124 494.284 64.6001C495.099 64.983 495.733 65.5149 496.185 66.196C496.638 66.8771 496.864 67.6577 496.864 68.5376C496.864 69.1143 496.749 69.6836 496.521 70.2454C496.297 70.8072 495.897 71.4311 495.32 72.1172C494.743 72.7983 493.931 73.6161 492.882 74.5707L490.652 76.7557V76.8601H497.065V79.5H486.177Z" fill="#2A3647"/>
<path d="M330.045 100.864H331.455V108.568C331.455 109.364 331.267 110.074 330.892 110.699C330.521 111.32 329.996 111.811 329.318 112.17C328.64 112.527 327.845 112.705 326.932 112.705C326.019 112.705 325.223 112.527 324.545 112.17C323.867 111.811 323.341 111.32 322.966 110.699C322.595 110.074 322.409 109.364 322.409 108.568V100.864H323.818V108.455C323.818 109.023 323.943 109.528 324.193 109.972C324.443 110.411 324.799 110.758 325.261 111.011C325.727 111.261 326.284 111.386 326.932 111.386C327.58 111.386 328.136 111.261 328.602 111.011C329.068 110.758 329.424 110.411 329.67 109.972C329.92 109.528 330.045 109.023 330.045 108.455V100.864ZM334.087 115.773V103.773H335.382V105.159H335.541C335.64 105.008 335.776 104.814 335.95 104.58C336.128 104.341 336.382 104.129 336.712 103.943C337.045 103.754 337.496 103.659 338.064 103.659C338.799 103.659 339.446 103.843 340.007 104.21C340.568 104.578 341.005 105.098 341.32 105.773C341.634 106.447 341.791 107.242 341.791 108.159C341.791 109.083 341.634 109.884 341.32 110.562C341.005 111.237 340.57 111.759 340.013 112.131C339.456 112.498 338.814 112.682 338.087 112.682C337.526 112.682 337.077 112.589 336.74 112.403C336.403 112.214 336.143 112 335.962 111.761C335.78 111.519 335.64 111.318 335.541 111.159H335.428V115.773H334.087ZM335.405 108.136C335.405 108.795 335.501 109.377 335.695 109.881C335.888 110.381 336.17 110.773 336.541 111.057C336.912 111.337 337.367 111.477 337.905 111.477C338.465 111.477 338.933 111.33 339.308 111.034C339.687 110.735 339.971 110.333 340.161 109.83C340.354 109.322 340.45 108.758 340.45 108.136C340.45 107.523 340.356 106.97 340.166 106.477C339.981 105.981 339.698 105.589 339.32 105.301C338.945 105.009 338.473 104.864 337.905 104.864C337.359 104.864 336.901 105.002 336.53 105.278C336.159 105.551 335.878 105.934 335.689 106.426C335.5 106.915 335.405 107.485 335.405 108.136ZM347.382 112.682C346.564 112.682 345.859 112.489 345.268 112.102C344.678 111.716 344.223 111.184 343.905 110.506C343.587 109.828 343.428 109.053 343.428 108.182C343.428 107.295 343.59 106.513 343.916 105.835C344.246 105.153 344.704 104.621 345.291 104.239C345.882 103.852 346.571 103.659 347.359 103.659C347.973 103.659 348.526 103.773 349.018 104C349.511 104.227 349.914 104.545 350.229 104.955C350.543 105.364 350.738 105.841 350.814 106.386H349.473C349.371 105.989 349.143 105.636 348.791 105.33C348.443 105.019 347.973 104.864 347.382 104.864C346.859 104.864 346.401 105 346.007 105.273C345.617 105.542 345.312 105.922 345.092 106.415C344.876 106.903 344.768 107.477 344.768 108.136C344.768 108.811 344.875 109.398 345.087 109.898C345.303 110.398 345.606 110.786 345.996 111.062C346.39 111.339 346.852 111.477 347.382 111.477C347.731 111.477 348.047 111.417 348.331 111.295C348.615 111.174 348.856 111 349.053 110.773C349.25 110.545 349.39 110.273 349.473 109.955H350.814C350.738 110.47 350.551 110.934 350.251 111.347C349.956 111.756 349.564 112.081 349.075 112.324C348.59 112.562 348.026 112.682 347.382 112.682ZM356.32 112.682C355.532 112.682 354.84 112.494 354.246 112.119C353.655 111.744 353.193 111.22 352.859 110.545C352.53 109.871 352.365 109.083 352.365 108.182C352.365 107.273 352.53 106.479 352.859 105.801C353.193 105.123 353.655 104.597 354.246 104.222C354.84 103.847 355.532 103.659 356.32 103.659C357.107 103.659 357.797 103.847 358.388 104.222C358.982 104.597 359.445 105.123 359.774 105.801C360.107 106.479 360.274 107.273 360.274 108.182C360.274 109.083 360.107 109.871 359.774 110.545C359.445 111.22 358.982 111.744 358.388 112.119C357.797 112.494 357.107 112.682 356.32 112.682ZM356.32 111.477C356.918 111.477 357.411 111.324 357.797 111.017C358.183 110.71 358.469 110.307 358.655 109.807C358.84 109.307 358.933 108.765 358.933 108.182C358.933 107.598 358.84 107.055 358.655 106.551C358.469 106.047 358.183 105.64 357.797 105.33C357.411 105.019 356.918 104.864 356.32 104.864C355.721 104.864 355.229 105.019 354.842 105.33C354.456 105.64 354.17 106.047 353.984 106.551C353.799 107.055 353.706 107.598 353.706 108.182C353.706 108.765 353.799 109.307 353.984 109.807C354.17 110.307 354.456 110.71 354.842 111.017C355.229 111.324 355.721 111.477 356.32 111.477ZM362.321 112.5V103.773H363.616V105.136H363.73C363.912 104.67 364.205 104.309 364.611 104.051C365.016 103.79 365.503 103.659 366.071 103.659C366.647 103.659 367.126 103.79 367.509 104.051C367.895 104.309 368.196 104.67 368.412 105.136H368.503C368.726 104.686 369.062 104.328 369.509 104.062C369.955 103.794 370.491 103.659 371.116 103.659C371.897 103.659 372.535 103.903 373.031 104.392C373.527 104.877 373.776 105.633 373.776 106.659V112.5H372.435V106.659C372.435 106.015 372.259 105.555 371.906 105.278C371.554 105.002 371.139 104.864 370.662 104.864C370.048 104.864 369.573 105.049 369.236 105.42C368.899 105.788 368.73 106.254 368.73 106.818V112.5H367.366V106.523C367.366 106.027 367.205 105.627 366.884 105.324C366.562 105.017 366.147 104.864 365.639 104.864C365.291 104.864 364.965 104.956 364.662 105.142C364.363 105.328 364.12 105.585 363.935 105.915C363.753 106.241 363.662 106.617 363.662 107.045V112.5H362.321ZM376.227 112.5V103.773H377.568V112.5H376.227ZM376.909 102.318C376.648 102.318 376.422 102.229 376.233 102.051C376.047 101.873 375.955 101.659 375.955 101.409C375.955 101.159 376.047 100.945 376.233 100.767C376.422 100.589 376.648 100.5 376.909 100.5C377.17 100.5 377.394 100.589 377.58 100.767C377.769 100.945 377.864 101.159 377.864 101.409C377.864 101.659 377.769 101.873 377.58 102.051C377.394 102.229 377.17 102.318 376.909 102.318ZM381.365 107.25V112.5H380.024V103.773H381.32V105.136H381.433C381.638 104.693 381.948 104.337 382.365 104.068C382.782 103.795 383.32 103.659 383.979 103.659C384.57 103.659 385.087 103.78 385.53 104.023C385.973 104.261 386.318 104.625 386.564 105.114C386.81 105.598 386.933 106.212 386.933 106.955V112.5H385.592V107.045C385.592 106.36 385.414 105.826 385.058 105.443C384.702 105.057 384.214 104.864 383.592 104.864C383.164 104.864 382.782 104.956 382.445 105.142C382.111 105.328 381.848 105.598 381.655 105.955C381.462 106.311 381.365 106.742 381.365 107.25ZM392.906 115.955C392.259 115.955 391.702 115.871 391.236 115.705C390.77 115.542 390.382 115.326 390.071 115.057C389.764 114.792 389.52 114.508 389.338 114.205L390.406 113.455C390.527 113.614 390.681 113.795 390.866 114C391.052 114.208 391.306 114.388 391.628 114.54C391.954 114.695 392.38 114.773 392.906 114.773C393.611 114.773 394.192 114.602 394.651 114.261C395.109 113.92 395.338 113.386 395.338 112.659V110.886H395.224C395.126 111.045 394.986 111.242 394.804 111.477C394.626 111.708 394.368 111.915 394.031 112.097C393.698 112.275 393.247 112.364 392.679 112.364C391.974 112.364 391.342 112.197 390.781 111.864C390.224 111.53 389.783 111.045 389.457 110.409C389.135 109.773 388.974 109 388.974 108.091C388.974 107.197 389.132 106.419 389.446 105.756C389.76 105.089 390.198 104.574 390.759 104.21C391.319 103.843 391.967 103.659 392.702 103.659C393.27 103.659 393.721 103.754 394.054 103.943C394.391 104.129 394.649 104.341 394.827 104.58C395.009 104.814 395.149 105.008 395.247 105.159H395.384V103.773H396.679V112.75C396.679 113.5 396.509 114.11 396.168 114.58C395.83 115.053 395.376 115.4 394.804 115.619C394.236 115.843 393.603 115.955 392.906 115.955ZM392.861 111.159C393.399 111.159 393.853 111.036 394.224 110.79C394.596 110.544 394.878 110.189 395.071 109.727C395.264 109.265 395.361 108.712 395.361 108.068C395.361 107.439 395.266 106.884 395.077 106.403C394.887 105.922 394.607 105.545 394.236 105.273C393.865 105 393.406 104.864 392.861 104.864C392.293 104.864 391.819 105.008 391.44 105.295C391.065 105.583 390.783 105.97 390.594 106.455C390.408 106.939 390.315 107.477 390.315 108.068C390.315 108.674 390.41 109.21 390.599 109.676C390.793 110.138 391.077 110.502 391.452 110.767C391.83 111.028 392.3 111.159 392.861 111.159ZM407.406 112.5H403.815V100.864H407.565C408.694 100.864 409.66 101.097 410.463 101.562C411.266 102.025 411.882 102.689 412.31 103.557C412.738 104.42 412.952 105.455 412.952 106.659C412.952 107.871 412.736 108.915 412.304 109.79C411.872 110.661 411.243 111.331 410.418 111.801C409.592 112.267 408.588 112.5 407.406 112.5ZM405.224 111.25H407.315C408.277 111.25 409.075 111.064 409.707 110.693C410.34 110.322 410.812 109.794 411.122 109.108C411.433 108.422 411.588 107.606 411.588 106.659C411.588 105.72 411.435 104.911 411.128 104.233C410.821 103.551 410.363 103.028 409.753 102.665C409.143 102.297 408.384 102.114 407.474 102.114H405.224V111.25ZM418.793 112.682C417.952 112.682 417.226 112.496 416.616 112.125C416.01 111.75 415.543 111.227 415.213 110.557C414.887 109.883 414.724 109.098 414.724 108.205C414.724 107.311 414.887 106.523 415.213 105.841C415.543 105.155 416.001 104.621 416.588 104.239C417.179 103.852 417.868 103.659 418.656 103.659C419.111 103.659 419.56 103.735 420.003 103.886C420.446 104.038 420.849 104.284 421.213 104.625C421.577 104.962 421.866 105.409 422.082 105.966C422.298 106.523 422.406 107.208 422.406 108.023V108.591H415.679V107.432H421.043C421.043 106.939 420.944 106.5 420.747 106.114C420.554 105.727 420.277 105.422 419.918 105.199C419.562 104.975 419.141 104.864 418.656 104.864C418.122 104.864 417.66 104.996 417.27 105.261C416.884 105.523 416.586 105.864 416.378 106.284C416.17 106.705 416.065 107.155 416.065 107.636V108.409C416.065 109.068 416.179 109.627 416.406 110.085C416.637 110.54 416.957 110.886 417.366 111.125C417.776 111.36 418.251 111.477 418.793 111.477C419.145 111.477 419.463 111.428 419.747 111.33C420.035 111.227 420.283 111.076 420.491 110.875C420.7 110.67 420.861 110.417 420.974 110.114L422.27 110.477C422.134 110.917 421.904 111.303 421.582 111.636C421.26 111.966 420.863 112.223 420.389 112.409C419.916 112.591 419.384 112.682 418.793 112.682ZM427.014 112.705C426.461 112.705 425.959 112.6 425.509 112.392C425.058 112.18 424.7 111.875 424.435 111.477C424.17 111.076 424.037 110.591 424.037 110.023C424.037 109.523 424.135 109.117 424.332 108.807C424.529 108.492 424.793 108.246 425.122 108.068C425.452 107.89 425.815 107.758 426.213 107.67C426.615 107.58 427.018 107.508 427.423 107.455C427.954 107.386 428.384 107.335 428.713 107.301C429.046 107.263 429.289 107.201 429.44 107.114C429.596 107.027 429.673 106.875 429.673 106.659V106.614C429.673 106.053 429.52 105.617 429.213 105.307C428.91 104.996 428.45 104.841 427.832 104.841C427.192 104.841 426.69 104.981 426.327 105.261C425.963 105.542 425.707 105.841 425.56 106.159L424.287 105.705C424.514 105.174 424.817 104.761 425.196 104.466C425.579 104.167 425.995 103.958 426.446 103.841C426.901 103.72 427.348 103.659 427.787 103.659C428.067 103.659 428.389 103.693 428.753 103.761C429.12 103.826 429.474 103.96 429.815 104.165C430.16 104.369 430.446 104.678 430.673 105.091C430.901 105.504 431.014 106.057 431.014 106.75V112.5H429.673V111.318H429.605C429.514 111.508 429.363 111.71 429.151 111.926C428.938 112.142 428.656 112.326 428.304 112.477C427.952 112.629 427.522 112.705 427.014 112.705ZM427.219 111.5C427.749 111.5 428.196 111.396 428.56 111.188C428.927 110.979 429.204 110.71 429.389 110.381C429.579 110.051 429.673 109.705 429.673 109.341V108.114C429.616 108.182 429.491 108.244 429.298 108.301C429.109 108.354 428.889 108.402 428.639 108.443C428.393 108.481 428.152 108.515 427.918 108.545C427.687 108.572 427.499 108.595 427.355 108.614C427.007 108.659 426.681 108.733 426.378 108.835C426.079 108.934 425.836 109.083 425.651 109.284C425.469 109.481 425.378 109.75 425.378 110.091C425.378 110.557 425.55 110.909 425.895 111.148C426.243 111.383 426.685 111.5 427.219 111.5ZM436.757 112.682C436.03 112.682 435.388 112.498 434.831 112.131C434.274 111.759 433.839 111.237 433.524 110.562C433.21 109.884 433.053 109.083 433.053 108.159C433.053 107.242 433.21 106.447 433.524 105.773C433.839 105.098 434.276 104.578 434.837 104.21C435.397 103.843 436.045 103.659 436.78 103.659C437.348 103.659 437.797 103.754 438.126 103.943C438.46 104.129 438.714 104.341 438.888 104.58C439.066 104.814 439.204 105.008 439.303 105.159H439.416V100.864H440.757V112.5H439.462V111.159H439.303C439.204 111.318 439.064 111.519 438.882 111.761C438.7 112 438.441 112.214 438.104 112.403C437.767 112.589 437.318 112.682 436.757 112.682ZM436.939 111.477C437.477 111.477 437.931 111.337 438.303 111.057C438.674 110.773 438.956 110.381 439.149 109.881C439.342 109.377 439.439 108.795 439.439 108.136C439.439 107.485 439.344 106.915 439.155 106.426C438.965 105.934 438.685 105.551 438.314 105.278C437.943 105.002 437.484 104.864 436.939 104.864C436.371 104.864 435.897 105.009 435.518 105.301C435.143 105.589 434.861 105.981 434.672 106.477C434.486 106.97 434.393 107.523 434.393 108.136C434.393 108.758 434.488 109.322 434.678 109.83C434.871 110.333 435.155 110.735 435.53 111.034C435.909 111.33 436.378 111.477 436.939 111.477ZM444.74 100.864V112.5H443.399V100.864H444.74ZM447.196 112.5V103.773H448.537V112.5H447.196ZM447.878 102.318C447.616 102.318 447.391 102.229 447.202 102.051C447.016 101.873 446.923 101.659 446.923 101.409C446.923 101.159 447.016 100.945 447.202 100.767C447.391 100.589 447.616 100.5 447.878 100.5C448.139 100.5 448.363 100.589 448.548 100.767C448.738 100.945 448.832 101.159 448.832 101.409C448.832 101.659 448.738 101.873 448.548 102.051C448.363 102.229 448.139 102.318 447.878 102.318ZM452.334 107.25V112.5H450.993V103.773H452.288V105.136H452.402C452.607 104.693 452.917 104.337 453.334 104.068C453.75 103.795 454.288 103.659 454.947 103.659C455.538 103.659 456.055 103.78 456.499 104.023C456.942 104.261 457.286 104.625 457.533 105.114C457.779 105.598 457.902 106.212 457.902 106.955V112.5H456.561V107.045C456.561 106.36 456.383 105.826 456.027 105.443C455.671 105.057 455.182 104.864 454.561 104.864C454.133 104.864 453.75 104.956 453.413 105.142C453.08 105.328 452.817 105.598 452.624 105.955C452.43 106.311 452.334 106.742 452.334 107.25ZM464.011 112.682C463.17 112.682 462.445 112.496 461.835 112.125C461.229 111.75 460.761 111.227 460.432 110.557C460.106 109.883 459.943 109.098 459.943 108.205C459.943 107.311 460.106 106.523 460.432 105.841C460.761 105.155 461.22 104.621 461.807 104.239C462.398 103.852 463.087 103.659 463.875 103.659C464.33 103.659 464.778 103.735 465.222 103.886C465.665 104.038 466.068 104.284 466.432 104.625C466.795 104.962 467.085 105.409 467.301 105.966C467.517 106.523 467.625 107.208 467.625 108.023V108.591H460.898V107.432H466.261C466.261 106.939 466.163 106.5 465.966 106.114C465.773 105.727 465.496 105.422 465.136 105.199C464.78 104.975 464.36 104.864 463.875 104.864C463.341 104.864 462.879 104.996 462.489 105.261C462.102 105.523 461.805 105.864 461.597 106.284C461.388 106.705 461.284 107.155 461.284 107.636V108.409C461.284 109.068 461.398 109.627 461.625 110.085C461.856 110.54 462.176 110.886 462.585 111.125C462.994 111.36 463.47 111.477 464.011 111.477C464.364 111.477 464.682 111.428 464.966 111.33C465.254 111.227 465.502 111.076 465.71 110.875C465.919 110.67 466.08 110.417 466.193 110.114L467.489 110.477C467.352 110.917 467.123 111.303 466.801 111.636C466.479 111.966 466.081 112.223 465.608 112.409C465.134 112.591 464.602 112.682 464.011 112.682Z" fill="#2A3647"/>
</g>
<defs>
<filter id="filter0_d_86105_6084" x="0" y="0" width="568" height="176" filterUnits="userSpaceOnUse" color-interpolation-filters="sRGB">
<feFlood flood-opacity="0" result="BackgroundImageFix"/>
<feColorMatrix in="SourceAlpha" type="matrix" values="0 0 0 0 0 0 0 0 0 0 0 0 0 0 0 0 0 0 127 0" result="hardAlpha"/>
<feOffset/>
<feGaussianBlur stdDeviation="2"/>
<feColorMatrix type="matrix" values="0 0 0 0 0 0 0 0 0 0 0 0 0 0 0 0 0 0 0.1 0"/>
<feBlend mode="normal" in2="BackgroundImageFix" result="effect1_dropShadow_86105_6084"/>
<feBlend mode="normal" in="SourceGraphic" in2="effect1_dropShadow_86105_6084" result="shape"/>
</filter>
<clipPath id="clip0_86105_6084">
<rect width="34.186" height="25.1163" fill="white" transform="translate(81.5581 74.0464)"/>
</clipPath>
</defs>
</svg>
